<?xml version="1.0" standalone="no"?>
<!DOCTYPE svg PUBLIC "-//W3C//DTD SVG 1.1//EN" "http://www.w3.org/Graphics/SVG/1.1/DTD/svg11.dtd" >
<svg>
<metadata>
Created by FontForge 20090622 at Fri Jan 11 12:53:41 2019
 By deploy user
2005 Hans Reichel published by FSI FontShop International GmbH
</metadata>
<defs>
<font id="DaxOT-Bold" horiz-adv-x="564" >
  <font-face 
    font-family="DaxOT-Bold"
    font-weight="700"
    font-stretch="normal"
    units-per-em="1000"
    panose-1="2 11 8 4 3 1 1 2 1 2"
    ascent="785"
    descent="-215"
    x-height="539"
    cap-height="688"
    bbox="-128 -315 1175 988"
    underline-thickness="52"
    underline-position="-49"
    unicode-range="U+000D-U+FB02"
  />
<missing-glyph horiz-adv-x="576" 
d="M59 0v688h458v-688h-458zM154 95h268v498h-268v-498z" />
    <glyph glyph-name=".notdef" horiz-adv-x="576" 
d="M59 0v688h458v-688h-458zM154 95h268v498h-268v-498z" />
    <glyph glyph-name=".null" horiz-adv-x="0" 
 />
    <glyph glyph-name=".null" horiz-adv-x="0" 
 />
    <glyph glyph-name="nonmarkingreturn" horiz-adv-x="333" 
 />
    <glyph glyph-name="CR" unicode="&#xd;" horiz-adv-x="268" 
 />
    <glyph glyph-name="space" unicode=" " horiz-adv-x="268" 
 />
    <glyph glyph-name="exclam" unicode="!" horiz-adv-x="326" 
d="M262 688l-33 -435h-119l-34 435h186zM258 80q0 -37 -26 -63t-63 -26t-63 26t-26 63t26 63t63 26t63 -26t26 -63z" />
    <glyph glyph-name="quotedbl" unicode="&#x22;" horiz-adv-x="450" 
d="M392 662l-27 -276h-81l-27 276q21 36 67 36q47 0 68 -36zM193 662l-27 -276h-81l-27 276q21 36 68 36q46 0 67 -36z" />
    <glyph glyph-name="numbersign" unicode="#" horiz-adv-x="676" 
d="M622 413h-110l-17 -126h99v-80h-110l-28 -207h-99l28 207h-133l-28 -207h-98l28 207h-100v80h111l17 126h-100v80h110l27 195h98l-26 -195h133l26 195h99l-27 -195h100v-80zM413 413h-133l-17 -126h133z" />
    <glyph glyph-name="dollar" unicode="$" horiz-adv-x="527" 
d="M476 200q0 -77 -46 -132t-126 -72v-129h-85v122q-105 3 -173 40l40 111q54 -32 129 -32q44 0 70 21.5t26 58.5q0 29 -19 51.5t-48 36t-62 32.5t-62 40t-48 60t-19 90q0 76 47.5 129t128.5 67v120h86v-116q79 -4 140 -39l-37 -99q-49 28 -110 28q-43 0 -69 -20t-26 -57
q0 -34 27 -58t65.5 -41.5t77.5 -40t66 -66t27 -105.5z" />
    <glyph glyph-name="percent" unicode="%" horiz-adv-x="910" 
d="M863 203q0 -92 -40.5 -153t-119.5 -61t-119.5 61t-40.5 153t40.5 153t119.5 61t119.5 -61t40.5 -153zM613 674l-236 -688l-81 29l236 688zM367 485q0 -92 -40.5 -153t-119.5 -61t-119.5 61t-40.5 153t40.5 153t119.5 61t119.5 -61t40.5 -153zM758 205q0 147 -55 147
t-55 -147t55 -147t55 147zM262 487q0 147 -55 147t-55 -147t55 -147t55 147z" />
    <glyph glyph-name="ampersand" unicode="&#x26;" horiz-adv-x="650" 
d="M642 375l-108 -19v-326q-79 -41 -220 -41q-132 0 -204 50t-72 148q0 67 41.5 114.5t110.5 74.5v2q-112 41 -112 148q0 79 61 126t156 47q98 0 170 -40l-46 -91q-42 23 -94 23q-41 0 -66 -21t-25 -57t28 -60t74 -24q60 0 148 19l137 29zM381 98v245q-93 -14 -135.5 -50.5
t-42.5 -99.5q0 -49 30 -77.5t88 -28.5q35 0 60 11z" />
    <glyph glyph-name="quotesingle" unicode="'" horiz-adv-x="251" 
d="M193 662l-27 -276h-81l-27 276q21 36 68 36q46 0 67 -36z" />
    <glyph glyph-name="parenleft" unicode="(" horiz-adv-x="377" 
d="M357 -189l-74 -50q-235 217 -235 525t235 525l74 -50q-72 -98 -110 -221t-38 -254t38 -254t110 -221z" />
    <glyph glyph-name="parenright" unicode=")" horiz-adv-x="377" 
d="M329 286q0 -308 -235 -525l-74 50q72 98 110 221t38 254t-38 254t-110 221l74 50q235 -217 235 -525z" />
    <glyph glyph-name="asterisk" unicode="*" horiz-adv-x="463" 
d="M418 712q0 -24 -16.5 -41t-40.5 -17t-41 17t-17 41t17 40.5t41 16.5t40.5 -16.5t16.5 -40.5zM289 806q0 -24 -16.5 -40.5t-40.5 -16.5t-41 16.5t-17 40.5t17 41t41 17t40.5 -17t16.5 -41zM277 672q0 -19 -13 -32.5t-32 -13.5t-32.5 13.5t-13.5 32.5t13.5 32t32.5 13
t32 -13t13 -32zM369 562q0 -24 -16.5 -40.5t-40.5 -16.5t-41 16.5t-17 40.5t17 41t41 17t40.5 -17t16.5 -41zM160 712q0 -24 -16.5 -41t-40.5 -17t-41 17t-17 41t17 40.5t41 16.5t40.5 -16.5t16.5 -40.5zM209 562q0 -24 -17 -40.5t-41 -16.5t-40.5 16.5t-16.5 40.5t16.5 41
t40.5 17t41 -17t17 -41z" />
    <glyph glyph-name="plus" unicode="+" horiz-adv-x="532" 
d="M478 272h-155v-155h-114v155h-155v106h155v156h114v-156h155v-106z" />
    <glyph glyph-name="comma" unicode="," horiz-adv-x="294" 
d="M246 121l-150 -266h-92l84 266q30 47 90 47q59 0 68 -47z" />
    <glyph glyph-name="hyphen" unicode="-" horiz-adv-x="356" 
d="M308 268h-260v114h260v-114z" />
    <glyph glyph-name="period" unicode="." horiz-adv-x="282" 
d="M230 80q0 -37 -26 -63t-63 -26t-63 26t-26 63t26 63t63 26t63 -26t26 -63z" />
    <glyph glyph-name="slash" unicode="/" horiz-adv-x="469" 
d="M450 763l-338 -978l-126 46l339 978z" />
    <glyph glyph-name="zero" unicode="0" horiz-adv-x="578" 
d="M531 344q0 -97 -24 -175t-80 -129t-138 -51t-138 51t-80 129t-24 175t24 175t80 129t138 51t138 -51t80 -129t24 -175zM376 347q0 253 -87 253q-88 0 -88 -253t88 -253q87 0 87 253z" />
    <glyph glyph-name="one" unicode="1" horiz-adv-x="434" 
d="M353 0h-158v524q-55 -26 -162 -32l-20 93q85 11 145.5 39.5t81.5 63.5h113v-688z" />
    <glyph glyph-name="two" unicode="2" horiz-adv-x="517" 
d="M472 0h-461l246 359q47 69 47 129q0 46 -27.5 72t-84.5 26q-63 0 -123 -27l-37 99q82 41 193 41q122 0 182 -53.5t60 -141.5q0 -78 -91 -195l-139 -180h235v-129z" />
    <glyph glyph-name="three" unicode="3" horiz-adv-x="519" 
d="M476 208q0 -98 -72 -158.5t-187 -60.5q-125 0 -203 39l42 106q57 -30 135 -30q55 0 88 28t33 76q0 56 -41.5 83.5t-112.5 27.5h-15v83q73 7 113 36t40 74q0 37 -26 57t-70 20q-67 0 -128 -28l-38 99q84 39 192 39q104 0 163.5 -44t59.5 -124q0 -50 -31 -87t-77 -56v-2
q60 -20 97.5 -64.5t37.5 -113.5z" />
    <glyph glyph-name="four" unicode="4" horiz-adv-x="545" 
d="M506 136h-51v-136h-147v136h-274v92l268 460h153v-466h51v-86zM312 544h-2q-19 -49 -47 -99l-130 -223h175v218q0 42 4 104z" />
    <glyph glyph-name="five" unicode="5" horiz-adv-x="519" 
d="M476 208q0 -93 -72 -156t-188 -63q-124 0 -202 39l42 106q55 -30 135 -30q57 0 89 30t32 75q0 116 -160 116q-50 0 -101 -8l42 371h353v-128h-244l-15 -147q20 2 30 2q129 0 194 -56.5t65 -150.5z" />
    <glyph glyph-name="six" unicode="6" horiz-adv-x="563" 
d="M520 214q0 -98 -61.5 -161.5t-173.5 -63.5q-115 0 -177 73t-62 195q0 174 107 291t285 151l30 -104q-182 -48 -245 -183q33 10 67 10q107 0 168.5 -56.5t61.5 -151.5zM373 216q0 127 -116 127q-27 0 -57 -10q-8 -35 -8 -82q0 -161 94 -161q42 0 64.5 35.5t22.5 90.5z" />
    <glyph glyph-name="seven" unicode="7" horiz-adv-x="509" 
d="M497 688l-87 -211q-112 -271 -156 -477h-189l247 560h-287v128h472z" />
    <glyph glyph-name="eight" unicode="8" horiz-adv-x="559" 
d="M516 172q0 -83 -65.5 -133t-171.5 -50q-103 0 -169.5 48t-66.5 134q0 64 35 105t103 81q-58 37 -88.5 75.5t-30.5 93.5q0 77 61.5 125t155.5 48q95 0 156.5 -47.5t61.5 -124.5q0 -55 -30 -91.5t-89 -72.5q66 -40 102 -84t36 -107zM371 529q0 37 -25 60t-63 23
q-39 0 -63.5 -23t-24.5 -60q0 -36 20 -60t69 -55q46 30 66.5 55t20.5 60zM373 174q0 42 -22 70t-74 60q-52 -30 -75 -58.5t-23 -70.5q0 -37 28.5 -63.5t69.5 -26.5q42 0 69 25t27 64z" />
    <glyph glyph-name="nine" unicode="9" horiz-adv-x="563" 
d="M517 431q0 -174 -107 -291t-286 -151l-29 104q181 47 244 183q-33 -10 -66 -10q-107 0 -168.5 56.5t-61.5 151.5q0 98 61.5 161.5t173.5 63.5q115 0 177 -73t62 -195zM371 439q0 76 -24 118.5t-71 42.5q-42 0 -64 -35t-22 -91q0 -127 116 -127q24 0 57 11q8 35 8 81z" />
    <glyph glyph-name="colon" unicode=":" horiz-adv-x="292" 
d="M240 394q0 -37 -26 -63t-63 -26t-63 26t-26 63t26 63t63 26t63 -26t26 -63zM240 80q0 -37 -26 -63t-63 -26t-63 26t-26 63t26 63t63 26t63 -26t26 -63z" />
    <glyph glyph-name="semicolon" unicode=";" horiz-adv-x="298" 
d="M246 393q0 -37 -26 -62.5t-63 -25.5t-63 25.5t-26 62.5t26 63t63 26t63 -26t26 -63zM249 121l-149 -266h-93l84 266q30 47 90 47q59 0 68 -47z" />
    <glyph glyph-name="less" unicode="&#x3c;" horiz-adv-x="532" 
d="M478 105l-424 173v94l424 174v-118l-289 -102v-2l289 -102v-117z" />
    <glyph glyph-name="equal" unicode="=" horiz-adv-x="532" 
d="M478 379h-424v106h424v-106zM478 166h-424v106h424v-106z" />
    <glyph glyph-name="greater" unicode="&#x3e;" horiz-adv-x="532" 
d="M478 278l-424 -173v117l289 102v2l-289 102v118l424 -174v-94z" />
    <glyph glyph-name="question" unicode="?" horiz-adv-x="456" 
d="M442 530q0 -60 -45.5 -103.5t-104.5 -61.5l-8 -112h-119l-12 157q52 11 88 37.5t36 66.5q0 78 -96 78q-51 0 -101 -25l-40 92q71 40 172 40q107 0 168.5 -45.5t61.5 -123.5zM314 80q0 -37 -26 -63t-63 -26t-63 26t-26 63t26 63t63 26t63 -26t26 -63z" />
    <glyph glyph-name="at" unicode="@" horiz-adv-x="908" 
d="M866 377q0 -160 -111.5 -274.5t-269.5 -114.5q-109 0 -170 66.5t-61 171.5q0 120 68.5 206.5t181.5 86.5q90 0 148 -49l-57 -376q74 30 123 105.5t49 175.5q0 108 -63 176t-179 68q-120 0 -209.5 -59t-132 -147.5t-42.5 -190.5q0 -150 87.5 -241.5t234.5 -91.5
q200 0 349 129l52 -65q-79 -70 -185.5 -108.5t-220.5 -38.5q-182 0 -299 111t-117 297q0 127 57.5 236.5t170.5 179t258 69.5q155 0 246.5 -90.5t91.5 -231.5zM545 427q-22 12 -53 12q-61 0 -98.5 -62.5t-37.5 -145.5q0 -73 33 -114.5t98 -41.5h6z" />
    <glyph glyph-name="A" unicode="A" horiz-adv-x="624" 
d="M620 0h-170l-41 153h-208l-42 -153h-155l224 688h169zM385 246l-59 224q-8 30 -18 89h-2q-7 -53 -17 -89l-62 -224h158z" />
    <glyph glyph-name="B" unicode="B" horiz-adv-x="601" 
d="M563 189q0 -100 -73.5 -150t-205.5 -50q-133 0 -219 39v632q87 39 213 39q130 0 197.5 -51.5t67.5 -133.5q0 -57 -34 -96.5t-88 -54.5v-2q60 -16 101 -63.5t41 -108.5zM389 504q0 104 -111 104q-30 0 -59 -9v-203h38q69 0 100.5 26.5t31.5 81.5zM401 196q0 63 -35 93
t-109 30h-38v-225q23 -9 62 -9q120 0 120 111z" />
    <glyph glyph-name="C" unicode="C" horiz-adv-x="492" 
d="M466 30q-61 -41 -150 -41q-69 0 -122.5 30t-85.5 80.5t-48 112.5t-16 132t16 132t48 112.5t85.5 80.5t122.5 30q90 0 150 -40l-35 -99q-37 22 -83 22q-37 0 -64.5 -20t-42.5 -54.5t-22.5 -75t-7.5 -86.5q0 -61 13 -111.5t45 -86t78 -35.5q45 0 81 22z" />
    <glyph glyph-name="D" unicode="D" horiz-adv-x="622" 
d="M578 344q0 -168 -80.5 -261.5t-227.5 -93.5q-120 0 -205 39v632q85 39 205 39q147 0 227.5 -93.5t80.5 -261.5zM415 347q0 245 -137 245q-34 0 -53 -8v-475q19 -8 53 -8q137 0 137 246z" />
    <glyph glyph-name="E" unicode="E" horiz-adv-x="459" 
d="M416 0h-351v688h351v-109h-189v-175h165v-106h-165v-189h189v-109z" />
    <glyph glyph-name="F" unicode="F" horiz-adv-x="452" 
d="M415 579h-188v-175h165v-106h-165v-298h-162v688h350v-109z" />
    <glyph glyph-name="G" unicode="G" horiz-adv-x="616" 
d="M556 28q-72 -39 -197 -39q-152 0 -233.5 96t-81.5 258q0 156 87.5 256t242.5 100q102 0 176 -41l-44 -100q-50 26 -117 26q-89 0 -135.5 -67.5t-46.5 -183.5q0 -109 40.5 -170t103.5 -61q35 0 54 8v197h-88v97h239v-376z" />
    <glyph glyph-name="H" unicode="H" horiz-adv-x="628" 
d="M563 0h-162v298h-174v-298h-162v688h162v-284h174v284h162v-688z" />
    <glyph glyph-name="I" unicode="I" horiz-adv-x="296" 
d="M229 0h-162v688h162v-688z" />
    <glyph glyph-name="J" unicode="J" horiz-adv-x="296" 
d="M229 688v-601q0 -133 -68 -215t-198 -93v113q104 31 104 181v615h162z" />
    <glyph glyph-name="K" unicode="K" horiz-adv-x="600" 
d="M591 0h-184l-178 341h-2v-341h-160v688h160v-310h2l181 310h168l-205 -317z" />
    <glyph glyph-name="L" unicode="L" horiz-adv-x="434" 
d="M404 0h-337v688h162v-579h175v-109z" />
    <glyph glyph-name="M" unicode="M" horiz-adv-x="799" 
d="M760 0h-152l-32 396q-4 54 -4 83h-2q-11 -54 -20 -83l-117 -396h-82l-114 396q-9 30 -21 83h-2v-12q0 -44 -3 -71l-36 -396h-136l73 688h159l109 -384q12 -43 19 -88h2q8 54 18 88l109 384h159z" />
    <glyph glyph-name="N" unicode="N" horiz-adv-x="654" 
d="M589 0h-124l-230 388q-21 36 -36 72h-2q4 -55 4 -81v-379h-136v688h142l211 -357q19 -32 36 -69h2q-4 46 -4 78v348h137v-688z" />
    <glyph glyph-name="O" unicode="O" horiz-adv-x="626" 
d="M582 344q0 -160 -68 -257.5t-201 -97.5t-201 97.5t-68 257.5t68 257.5t201 97.5t201 -97.5t68 -257.5zM419 347q0 243 -106 243t-106 -243q0 -242 106 -242t106 242z" />
    <glyph glyph-name="P" unicode="P" horiz-adv-x="576" 
d="M542 479q0 -99 -69.5 -161t-205.5 -62q-19 0 -43 4v-260h-159v660q88 39 209 39q136 0 202 -60.5t66 -159.5zM387 480q0 127 -112 127q-29 0 -51 -8v-246q20 -3 43 -3q120 0 120 130z" />
    <glyph glyph-name="Q" unicode="Q" horiz-adv-x="626" 
d="M582 344q0 -225 -120 -310l115 -135l-119 -93l-96 188q-25 -5 -49 -5q-133 0 -201 97.5t-68 257.5t68 257.5t201 97.5t201 -97.5t68 -257.5zM419 347q0 243 -106 243t-106 -243q0 -242 106 -242t106 242z" />
    <glyph glyph-name="R" unicode="R" horiz-adv-x="595" 
d="M575 0h-179l-93 206q-30 66 -79 88v-294h-158v660q86 39 206 39q133 0 204.5 -52.5t71.5 -156.5q0 -67 -41.5 -113.5t-114.5 -67.5v-2q36 -33 67 -92zM389 484q0 123 -113 123q-31 0 -52 -8v-239q15 -4 43 -4q57 0 89.5 36.5t32.5 91.5z" />
    <glyph glyph-name="S" unicode="S" horiz-adv-x="505" 
d="M464 200q0 -92 -66 -151.5t-174 -59.5q-117 0 -191 40l41 111q58 -32 127 -32q45 0 71 21t26 56q0 29 -19 51t-47.5 36t-62 33.5t-62 41t-47.5 60.5t-19 91q0 89 64 145t168 56q99 0 169 -40l-36 -99q-49 28 -111 28q-44 0 -69.5 -20t-25.5 -56q0 -29 19.5 -51t49 -35
t63.5 -32t63.5 -40.5t49 -61t19.5 -92.5z" />
    <glyph glyph-name="T" unicode="T" horiz-adv-x="472" 
d="M441 579h-124v-579h-162v579h-124v109h410v-109z" />
    <glyph glyph-name="U" unicode="U" horiz-adv-x="614" 
d="M549 688v-485q0 -98 -67 -156.5t-175 -58.5t-175 58.5t-67 156.5v485h162v-487q0 -41 24.5 -65t61.5 -24q36 0 60.5 24t24.5 65v487h151z" />
    <glyph glyph-name="V" unicode="V" horiz-adv-x="568" 
d="M562 688l-207 -688h-141l-207 688h171l97 -399q8 -34 15 -90h2q7 55 16 90l100 399h154z" />
    <glyph glyph-name="W" unicode="W" horiz-adv-x="841" 
d="M820 688l-155 -688h-143l-88 362q-7 26 -12 74h-2q-5 -48 -12 -74l-88 -362h-144l-155 688h160l73 -402q6 -36 10 -80h2q3 34 13 80l91 402h115l88 -402q8 -37 13 -80h2q3 36 10 80l75 402h147z" />
    <glyph glyph-name="X" unicode="X" horiz-adv-x="561" 
d="M554 0h-180l-97 235h-2l-102 -235h-166l185 350l-169 338h172l89 -217h2l95 217h157l-168 -325z" />
    <glyph glyph-name="Y" unicode="Y" horiz-adv-x="532" 
d="M531 688l-184 -399v-289h-162v289l-183 399h170l99 -260h2l104 260h154z" />
    <glyph glyph-name="Z" unicode="Z" horiz-adv-x="477" 
d="M443 0h-426l220 579h-197v109h399l-212 -579h216v-109z" />
    <glyph glyph-name="bracketleft" unicode="[" horiz-adv-x="352" 
d="M319 -215h-255v1000h255v-87h-118v-825h118v-88z" />
    <glyph glyph-name="backslash" unicode="\" horiz-adv-x="469" 
d="M483 -169l-126 -46l-338 978l125 46z" />
    <glyph glyph-name="bracketright" unicode="]" horiz-adv-x="352" 
d="M288 -215h-255v88h118v825h-118v87h255v-1000z" />
    <glyph glyph-name="asciicircum" unicode="^" horiz-adv-x="506" 
d="M458 500l-62 -64l-143 135l-143 -135l-62 64l147 175q23 28 58 28t58 -28z" />
    <glyph glyph-name="underscore" unicode="_" horiz-adv-x="520" 
d="M530 -151h-540v76h540v-76z" />
    <glyph glyph-name="grave" unicode="`" horiz-adv-x="280" 
d="M219 596h-86l-128 137q20 27 68 27q44 0 76 -21z" />
    <glyph glyph-name="a" unicode="a" horiz-adv-x="542" 
d="M483 29q-77 -40 -211 -40q-116 0 -176.5 43.5t-60.5 127.5q0 48 23 83.5t66.5 57t94.5 33.5t118 18v24q0 75 -93 75q-74 0 -144 -34l-34 92q92 41 201 41q216 0 216 -197v-324zM337 86v193q-80 -8 -118 -35t-38 -78q0 -90 99 -90q37 0 57 10z" />
    <glyph glyph-name="b" unicode="b" horiz-adv-x="570" 
d="M530 289q0 -143 -71.5 -221.5t-204.5 -78.5q-120 0 -195 40v756h156v-257q41 19 94 19q101 0 161 -70t60 -188zM376 273q0 184 -106 184q-28 0 -55 -12v-354q19 -8 48 -8q113 0 113 190z" />
    <glyph glyph-name="c" unicode="c" horiz-adv-x="432" 
d="M405 28q-53 -39 -136 -39q-102 0 -165.5 75.5t-63.5 205.5q0 129 64 204.5t165 75.5q83 0 136 -39l-33 -86q-27 21 -67 21q-48 0 -77 -46.5t-29 -126.5t29 -126.5t77 -46.5q39 0 66 21z" />
    <glyph glyph-name="d" unicode="d" horiz-adv-x="570" 
d="M511 29q-78 -40 -210 -40q-124 0 -192.5 71t-68.5 202q0 126 65 205t178 79q37 0 73 -9v248h155v-756zM356 96v356q-21 6 -44 6q-118 0 -118 -185q0 -186 114 -186q26 0 48 9z" />
    <glyph glyph-name="e" unicode="e" horiz-adv-x="558" 
d="M518 285q0 -12 -1 -23l-324 -46q8 -57 43 -88.5t92 -31.5q76 0 136 31l36 -98q-80 -40 -197 -40q-126 0 -194.5 77.5t-68.5 204.5q0 128 65.5 203.5t181.5 75.5q112 0 171.5 -69.5t59.5 -195.5zM370 321q-2 138 -89 138q-47 0 -73 -41.5t-26 -111.5v-14z" />
    <glyph glyph-name="f" unicode="f" horiz-adv-x="353" 
d="M330 439h-84v-439h-156v439h-58v100h58v55q0 91 52.5 142t145.5 51q18 0 42 -3v-100q-10 1 -15 1q-69 0 -69 -87v-59h84v-100z" />
    <glyph glyph-name="g" unicode="g" horiz-adv-x="570" 
d="M511 7q0 -113 -63.5 -172.5t-175.5 -59.5q-126 0 -201 41l40 101q60 -32 133 -32q112 0 112 107v24q-36 -17 -94 -17q-100 0 -161 71t-61 191q0 138 73.5 213.5t208.5 75.5q114 0 189 -39v-504zM356 102v348q-20 9 -49 9q-113 0 -113 -189q0 -180 110 -180q30 0 52 12z
" />
    <glyph glyph-name="h" unicode="h" horiz-adv-x="579" 
d="M520 0h-156v369q0 82 -81 82q-37 0 -68 -17v-434h-156v785h156v-265q55 26 116 26q96 0 142.5 -48t46.5 -124v-374z" />
    <glyph glyph-name="i" unicode="i" horiz-adv-x="280" 
d="M223 694q0 -31 -24.5 -52.5t-58.5 -21.5t-58.5 21.5t-24.5 52.5t24 52t59 21t59 -21t24 -52zM218 0h-156v539h156v-539z" />
    <glyph glyph-name="j" unicode="j" horiz-adv-x="282" 
d="M225 694q0 -31 -24.5 -52.5t-58.5 -21.5q-35 0 -59 21.5t-24 52.5t24 52t59 21t59 -21.5t24 -51.5zM220 539v-458q0 -132 -63 -209t-182 -92v104q48 21 68.5 63t20.5 115v477h156z" />
    <glyph glyph-name="k" unicode="k" horiz-adv-x="558" 
d="M554 0h-177l-159 263h-2v-263h-155v785h155v-493h2l155 247h165l-182 -253z" />
    <glyph glyph-name="l" unicode="l" horiz-adv-x="280" 
d="M218 0h-156v785h156v-785z" />
    <glyph glyph-name="m" unicode="m" horiz-adv-x="873" 
d="M814 0h-153v367q0 86 -81 86q-41 0 -67 -28v-425h-153v374q0 79 -83 79q-39 0 -66 -11v-442h-152v509q95 40 209 40q108 0 169 -53q69 53 168 53q105 0 157 -49.5t52 -133.5v-366z" />
    <glyph glyph-name="n" unicode="n" horiz-adv-x="579" 
d="M520 0h-156v365q0 45 -20.5 66.5t-66.5 21.5q-32 0 -62 -11v-442h-156v510q92 39 218 39q243 0 243 -185v-364z" />
    <glyph glyph-name="o" unicode="o" horiz-adv-x="566" 
d="M526 270q0 -127 -63 -204t-180 -77t-180 77t-63 204q0 126 63 203t180 77t180 -77t63 -203zM370 273q0 181 -87 181t-87 -181q0 -183 87 -183t87 183z" />
    <glyph glyph-name="p" unicode="p" horiz-adv-x="570" 
d="M530 274q0 -129 -65 -205t-172 -76q-54 0 -78 9v-217h-156v726q85 39 204 39q127 0 197 -71t70 -205zM376 272q0 93 -26.5 139.5t-87.5 46.5q-26 0 -47 -8v-358q20 -6 41 -6q120 0 120 186z" />
    <glyph glyph-name="q" unicode="q" horiz-adv-x="570" 
d="M511 -215h-155v224q-32 -16 -92 -16q-102 0 -163 73t-61 193q0 138 73.5 214.5t208.5 76.5q114 0 189 -39v-726zM356 99v352q-21 8 -49 8q-113 0 -113 -190q0 -182 108 -182q32 0 54 12z" />
    <glyph glyph-name="r" unicode="r" horiz-adv-x="359" 
d="M347 546l-28 -108q-25 13 -57 13q-31 0 -47 -8v-443h-156v510q83 40 219 40q37 0 69 -4z" />
    <glyph glyph-name="s" unicode="s" horiz-adv-x="446" 
d="M409 164q0 -77 -58 -126t-155 -49q-103 0 -166 39l41 96q53 -31 105 -31q33 0 53.5 17t20.5 43q0 25 -21.5 43t-52 31t-61 29t-52 49t-21.5 80q0 75 54 120t134 45q99 0 165 -39l-37 -86q-48 28 -94 28q-32 0 -49.5 -16t-17.5 -41q0 -24 22 -41.5t53 -30.5t62 -29.5
t53 -50t22 -80.5z" />
    <glyph glyph-name="t" unicode="t" horiz-adv-x="364" 
d="M330 7q-28 -15 -79 -15q-77 0 -119 41.5t-42 118.5v287h-58v100h58v115l156 41v-156h84v-100h-84v-287q0 -55 51 -55q18 0 33 6v-96z" />
    <glyph glyph-name="u" unicode="u" horiz-adv-x="572" 
d="M513 30q-87 -41 -220 -41q-118 0 -176 46t-58 144v360h156v-367q0 -79 80 -79q35 0 62 12v434h156v-509z" />
    <glyph glyph-name="v" unicode="v" horiz-adv-x="533" 
d="M520 539l-178 -539h-150l-178 539h168l76 -313q9 -38 13 -84h2q3 46 14 84l82 313h151z" />
    <glyph glyph-name="w" unicode="w" horiz-adv-x="808" 
d="M787 539l-150 -539h-144l-76 298q-8 33 -12 68h-2q-3 -36 -11 -68l-77 -298h-143l-150 539h159l62 -313q7 -33 9 -80h2q4 39 14 80l82 313h127l76 -313q7 -30 12 -80h2q5 48 11 80l67 313h142z" />
    <glyph glyph-name="x" unicode="x" horiz-adv-x="524" 
d="M516 0h-172l-87 173h-2l-87 -173h-160l171 274l-154 265h163l80 -161h2l82 161h147l-153 -255z" />
    <glyph glyph-name="y" unicode="y" horiz-adv-x="533" 
d="M520 539l-251 -754h-163l89 215l-181 539h168l75 -322q10 -41 12 -83h2q6 47 15 83l83 322h151z" />
    <glyph glyph-name="z" unicode="z" horiz-adv-x="440" 
d="M407 0h-382l184 439h-167v100h361l-180 -439h184v-100z" />
    <glyph glyph-name="braceleft" unicode="{" horiz-adv-x="395" 
d="M354 -215h-32q-101 0 -156.5 51.5t-55.5 148.5v166q0 85 -68 91v87q68 6 68 92v164q0 97 55.5 148.5t156.5 51.5h32v-84q-107 0 -107 -114v-160q0 -111 -75 -140v-2q75 -29 75 -140v-161q0 -113 107 -113v-86z" />
    <glyph glyph-name="bar" unicode="|" horiz-adv-x="249" 
d="M185 -215h-121v1000h121v-1000z" />
    <glyph glyph-name="braceright" unicode="}" horiz-adv-x="395" 
d="M353 242q-68 -6 -68 -91v-166q0 -97 -55.5 -148.5t-156.5 -51.5h-32v86q107 0 107 113v161q0 111 75 140v2q-75 29 -75 140v160q0 114 -107 114v84h32q101 0 156.5 -51.5t55.5 -148.5v-164q0 -86 68 -92v-87z" />
    <glyph glyph-name="asciitilde" unicode="~" horiz-adv-x="506" 
d="M458 400q-8 -68 -40 -109t-89 -41q-36 0 -76 31t-68 31q-44 0 -56 -63l-81 31q8 68 40 109.5t89 41.5q36 0 76 -31t68 -31q44 0 56 62z" />
    <glyph glyph-name="uni00A0" unicode="&#xa0;" horiz-adv-x="268" 
 />
    <glyph glyph-name="exclamdown" unicode="&#xa1;" horiz-adv-x="326" 
d="M258 393q0 -37 -26 -62.5t-63 -25.5t-63 25.5t-26 62.5t26 63t63 26t63 -26t26 -63zM262 -215h-186l34 435h119z" />
    <glyph glyph-name="cent" unicode="&#xa2;" horiz-adv-x="445" 
d="M408 138q-40 -29 -106 -32v-106h-81v110q-79 16 -125 77t-46 161q0 96 47 157t124 77v106h81v-102q61 -3 104 -31l-32 -81q-27 17 -64 17q-51 0 -77.5 -37.5t-26.5 -103.5q0 -68 27 -105.5t77 -37.5q35 0 64 18z" />
    <glyph glyph-name="sterling" unicode="&#xa3;" 
d="M512 0h-458q110 126 110 250q0 30 -6 57h-98v100h69q-14 45 -14 85q0 98 61.5 152.5t163.5 54.5q101 0 171 -39l-34 -101q-49 26 -105 26q-51 0 -79.5 -30t-28.5 -82q0 -26 6 -66h163v-100h-145q3 -24 3 -53q0 -66 -36 -125h257v-129z" />
    <glyph glyph-name="currency" unicode="&#xa4;" horiz-adv-x="580" 
d="M538 132l-58 -59l-70 70q-51 -42 -120 -42t-120 42l-70 -70l-58 59l72 72q-32 56 -32 121q0 67 31 120l-71 72l58 58l69 -69q53 43 121 43t121 -43l69 69l58 -58l-71 -72q31 -53 31 -120q0 -65 -32 -121zM369 326q0 55 -22.5 90.5t-56.5 35.5t-56.5 -35.5t-22.5 -90.5
t22 -90t57 -35t57 35t22 90z" />
    <glyph glyph-name="yen" unicode="&#xa5;" horiz-adv-x="634" 
d="M589 688l-122 -245h95v-65h-128l-43 -87h171v-65h-171v-226h-148v226h-171v65h171l-43 87h-128v65h95l-122 245h160l117 -280h2l122 280h143z" />
    <glyph glyph-name="brokenbar" unicode="&#xa6;" horiz-adv-x="249" 
d="M185 385h-121v400h121v-400zM185 -215h-121v399h121v-399z" />
    <glyph glyph-name="section" unicode="&#xa7;" 
d="M516 229q0 -98 -106 -162q53 -53 53 -117q0 -81 -60 -128t-148 -47q-95 0 -165 43l38 101q47 -33 105 -33q33 0 53.5 17.5t20.5 46.5q0 25 -19 48t-48 39.5t-62.5 39.5t-62.5 46.5t-48 62t-19 85.5q0 99 106 163q-40 45 -40 102q0 76 56 119.5t138 43.5q89 0 153 -41
l-35 -93q-48 31 -98 31q-33 0 -50.5 -16.5t-17.5 -43.5q0 -28 26.5 -52.5t64 -45.5t75 -46.5t64 -67t26.5 -95.5zM387 216q0 21 -8 39t-28.5 36t-33.5 27.5t-46.5 29.5t-43.5 27q-54 -37 -54 -88q0 -15 4 -28.5t14.5 -26.5l18 -22t26.5 -22.5t28 -19l33.5 -20.5t31.5 -20
q58 36 58 88z" />
    <glyph glyph-name="dieresis" unicode="&#xa8;" horiz-adv-x="280" 
d="M297 663q0 -26 -19 -45t-45 -19t-45 19t-19 45t19 45t45 19t45 -19t19 -45zM111 663q0 -26 -19 -45t-45 -19t-45 19t-19 45t19 45t45 19t45 -19t19 -45z" />
    <glyph glyph-name="copyright" unicode="&#xa9;" horiz-adv-x="806" 
d="M761 344q0 -147 -105 -251.5t-253 -104.5t-253 104.5t-105 251.5t105 251.5t253 104.5t253 -104.5t105 -251.5zM676 345q0 118 -79.5 201.5t-193.5 83.5t-193.5 -83.5t-79.5 -201.5t79.5 -201.5t193.5 -83.5t193.5 83.5t79.5 201.5zM496 173q-33 -22 -89 -22
q-79 0 -123.5 57.5t-44.5 138.5t44.5 138.5t123.5 57.5q54 0 89 -22l-18 -50q-21 12 -55 12q-50 0 -74.5 -39t-24.5 -96q0 -56 26 -95t73 -39q31 0 53 12z" />
    <glyph glyph-name="ordfeminine" unicode="&#xaa;" horiz-adv-x="390" 
d="M336 346q-54 -28 -140 -28q-77 0 -119.5 28.5t-42.5 85.5q0 113 200 131v15q0 50 -60 50q-47 0 -95 -22l-23 64q62 28 134 28q146 0 146 -136v-216zM234 386v124q-101 -11 -101 -74q0 -27 16.5 -42t47.5 -15q21 0 37 7z" />
    <glyph glyph-name="guillemotleft" unicode="&#xab;" horiz-adv-x="526" 
d="M480 143l-87 -50l-139 241l139 241l87 -49l-110 -192zM262 143l-87 -50l-139 241l139 241l87 -49l-110 -192z" />
    <glyph glyph-name="logicalnot" unicode="&#xac;" horiz-adv-x="532" 
d="M478 117h-114v155h-310v106h424v-261z" />
    <glyph glyph-name="uni00AD" unicode="&#xad;" horiz-adv-x="356" 
d="M308 268h-260v114h260v-114z" />
    <glyph glyph-name="registered" unicode="&#xae;" horiz-adv-x="806" 
d="M761 344q0 -147 -105 -251.5t-253 -104.5t-253 104.5t-105 251.5t105 251.5t253 104.5t253 -104.5t105 -251.5zM676 345q0 118 -79.5 201.5t-193.5 83.5t-193.5 -83.5t-79.5 -201.5t79.5 -201.5t193.5 -83.5t193.5 83.5t79.5 201.5zM553 162h-90l-55 116q-19 38 -47 49
v-165h-79v364q44 21 110 21q147 0 147 -113q0 -37 -24.5 -63.5t-65.5 -37.5v-2q17 -14 37 -49zM459 431q0 70 -65 70q-18 0 -33 -5v-136q7 -2 26 -2q34 0 53 20.5t19 52.5z" />
    <glyph glyph-name="macron" unicode="&#xaf;" horiz-adv-x="280" 
d="M282 609h-284v81h284v-81z" />
    <glyph glyph-name="degree" unicode="&#xb0;" horiz-adv-x="418" 
d="M366 542q0 -65 -46 -111t-111 -46t-111 46t-46 111t46 111t111 46t111 -46t46 -111zM287 542q0 33 -23 56.5t-55 23.5t-55 -23.5t-23 -56.5t23 -56.5t55 -23.5t55 23.5t23 56.5z" />
    <glyph glyph-name="plusminus" unicode="&#xb1;" horiz-adv-x="532" 
d="M478 317h-155v-146h-114v146h-155v97h155v148h114v-148h155v-97zM478 0h-424v97h424v-97z" />
    <glyph glyph-name="twosuperior" unicode="&#xb2;" horiz-adv-x="372" 
d="M320 476h-301l156 217q29 41 29 73q0 56 -68 56q-37 0 -77 -17l-25 66q55 25 126 25q79 0 118 -32t39 -85q0 -47 -58 -118l-84 -103h145v-82z" />
    <glyph glyph-name="threesuperior" unicode="&#xb3;" horiz-adv-x="372" 
d="M328 601q0 -59 -47 -96t-123 -37q-78 0 -131 24l27 70q34 -18 86 -18q35 0 55 15.5t20 42.5q0 62 -98 62h-8v53q96 9 96 63q0 43 -59 43q-44 0 -82 -16l-24 65q56 24 124 24q69 0 108 -27t39 -75q0 -57 -67 -85v-2q84 -29 84 -106z" />
    <glyph glyph-name="acute" unicode="&#xb4;" horiz-adv-x="280" 
d="M275 733l-128 -137h-86l70 143q32 21 76 21q48 0 68 -27z" />
    <glyph glyph-name="mu" unicode="&#xb5;" horiz-adv-x="574" 
d="M515 41q-81 -51 -193 -51q-60 0 -105 20v-225h-156v754h156v-427q29 -20 71 -20q40 0 71 19v428h156v-498z" />
    <glyph glyph-name="paragraph" unicode="&#xb6;" horiz-adv-x="652" 
d="M586 -215h-132v804q-40 12 -93 12q-19 0 -37 -3v-813h-132v475q-75 23 -115.5 79.5t-40.5 129.5q0 82 49 135.5t119 74t157 20.5q128 0 225 -39v-875z" />
    <glyph glyph-name="periodcentered" unicode="&#xb7;" horiz-adv-x="282" 
d="M230 326q0 -37 -26 -63t-63 -26t-63 26t-26 63t26 63t63 26t63 -26t26 -63z" />
    <glyph glyph-name="cedilla" unicode="&#xb8;" horiz-adv-x="280" 
d="M275 -123q0 -44 -48.5 -67t-137.5 -23q-33 0 -83 5l25 52q33 -3 52 -3q87 0 87 34q0 28 -59 28q-18 0 -54 -3l22 47q33 3 69 3q127 0 127 -73z" />
    <glyph glyph-name="onesuperior" unicode="&#xb9;" horiz-adv-x="372" 
d="M279 476h-113v307q-35 -14 -100 -18l-14 61q107 11 145 62h82v-412z" />
    <glyph glyph-name="ordmasculine" unicode="&#xba;" horiz-adv-x="402" 
d="M364 508q0 -83 -43 -136.5t-120 -53.5t-120 53.5t-43 136.5q0 82 43.5 136t119.5 54t119.5 -54t43.5 -136zM258 510q0 117 -57 117t-57 -117t57 -117t57 117z" />
    <glyph glyph-name="guillemotright" unicode="&#xbb;" horiz-adv-x="526" 
d="M490 334l-139 -241l-87 50l110 191l-110 192l87 49zM272 334l-139 -241l-87 50l110 191l-110 192l87 49z" />
    <glyph glyph-name="onequarter" unicode="&#xbc;" horiz-adv-x="878" 
d="M819 80h-36v-80h-101v80h-175v58l171 274h105v-275h36v-57zM637 671l-303 -690l-79 37l303 689zM279 276h-113v307q-35 -14 -100 -18l-14 61q107 11 145 62h82v-412zM685 321h-2q-16 -35 -30 -59l-74 -125h103v122q0 17 3 62z" />
    <glyph glyph-name="onehalf" unicode="&#xbd;" horiz-adv-x="878" 
d="M826 0h-300l156 217q28 39 28 73q0 56 -68 56q-35 0 -75 -17l-25 66q55 25 124 25q79 0 118.5 -32t39.5 -85q0 -46 -59 -118l-84 -103h145v-82zM607 671l-304 -690l-79 37l304 689zM279 276h-113v307q-35 -14 -100 -18l-14 61q107 11 145 62h82v-412z" />
    <glyph glyph-name="threequarters" unicode="&#xbe;" horiz-adv-x="878" 
d="M819 80h-36v-80h-101v80h-175v58l171 274h105v-275h36v-57zM645 671l-304 -690l-79 37l304 689zM327 401q0 -59 -47 -96t-123 -37q-78 0 -131 24l27 70q34 -18 86 -18q35 0 55 15.5t20 42.5q0 62 -98 62h-8v53q96 9 96 63q0 43 -59 43q-44 0 -82 -16l-24 65q56 24 124 24
q69 0 108 -27t39 -75q0 -57 -67 -85v-2q84 -29 84 -106zM685 321h-2q-13 -30 -30 -59l-74 -125h103v122q0 25 3 62z" />
    <glyph glyph-name="questiondown" unicode="&#xbf;" horiz-adv-x="456" 
d="M345 393q0 -37 -26 -62.5t-63 -25.5t-62.5 25.5t-25.5 62.5t25.5 63t62.5 26t63 -26t26 -63zM442 -186q-71 -40 -173 -40q-107 0 -168 45.5t-61 123.5q0 60 45 103.5t104 61.5l8 112h119l12 -157q-52 -11 -88 -37.5t-36 -66.5q0 -78 96 -78q51 0 101 25z" />
    <glyph glyph-name="Agrave" unicode="&#xc0;" horiz-adv-x="624" 
d="M620 0h-170l-41 153h-208l-42 -153h-155l224 688h169zM385 246l-59 224q-8 30 -18 89h-2q-7 -53 -17 -89l-62 -224h158zM363 744h-86l-128 137q19 27 68 27q44 0 76 -21z" />
    <glyph glyph-name="Aacute" unicode="&#xc1;" horiz-adv-x="624" 
d="M620 0h-170l-41 153h-208l-42 -153h-155l224 688h169zM385 246l-59 224q-8 30 -18 89h-2q-7 -53 -17 -89l-62 -224h158zM472 881l-128 -137h-86l70 143q32 21 76 21q48 0 68 -27z" />
    <glyph glyph-name="Acircumflex" unicode="&#xc2;" horiz-adv-x="624" 
d="M620 0h-170l-41 153h-208l-42 -153h-155l224 688h169zM385 246l-59 224q-8 30 -18 89h-2q-7 -53 -17 -89l-62 -224h158zM457 775l-44 -41l-101 78l-101 -78l-44 41l101 105q18 19 44 19t44 -19z" />
    <glyph glyph-name="Atilde" unicode="&#xc3;" horiz-adv-x="624" 
d="M620 0h-170l-41 153h-208l-42 -153h-155l224 688h169zM385 246l-59 224q-8 30 -18 89h-2q-7 -53 -17 -89l-62 -224h158zM458 848q-13 -103 -93 -103q-27 0 -56 20.5t-48 20.5q-31 0 -38 -41l-61 21q13 102 92 102q27 0 56.5 -20.5t48.5 -20.5q31 0 38 42z" />
    <glyph glyph-name="Adieresis" unicode="&#xc4;" horiz-adv-x="624" 
d="M620 0h-170l-41 153h-208l-42 -153h-155l224 688h169zM385 246l-59 224q-8 30 -18 89h-2q-7 -53 -17 -89l-62 -224h158zM285 811q0 -26 -19 -45t-45 -19t-45 19t-19 45t19 45t45 19t45 -19t19 -45zM469 811q0 -26 -19 -45t-45 -19t-45 19t-19 45t19 45t45 19t45 -19
t19 -45z" />
    <glyph glyph-name="Aring" unicode="&#xc5;" horiz-adv-x="624" 
d="M620 0h-170l-41 153h-208l-42 -153h-155l224 688h169zM385 246l-59 224q-8 30 -18 89h-2q-7 -53 -17 -89l-62 -224h158zM402 824q0 -37 -26.5 -63t-63.5 -26t-63.5 26t-26.5 63t26.5 63.5t63.5 26.5t63.5 -26.5t26.5 -63.5zM351 824q0 17 -11.5 29t-27.5 12t-27.5 -12
t-11.5 -29t11.5 -28.5t27.5 -11.5t27.5 11.5t11.5 28.5z" />
    <glyph glyph-name="AE" unicode="&#xc6;" horiz-adv-x="771" 
d="M742 0h-305l-27 153h-210l-57 -153h-154l290 688h408v-109h-217l41 -175h176v-106h-155l44 -189h166v-109zM394 246l-38 225q-8 49 -10 88h-2q-11 -47 -26 -88l-83 -225h159z" />
    <glyph glyph-name="Ccedilla" unicode="&#xc7;" horiz-adv-x="492" 
d="M466 30q-61 -41 -150 -41q-69 0 -122.5 30t-85.5 80.5t-48 112.5t-16 132t16 132t48 112.5t85.5 80.5t122.5 30q90 0 150 -40l-35 -99q-37 22 -83 22q-37 0 -64.5 -20t-42.5 -54.5t-22.5 -75t-7.5 -86.5q0 -61 13 -111.5t45 -86t78 -35.5q45 0 81 22zM385 -123
q0 -44 -48.5 -67t-137.5 -23q-33 0 -83 5l25 52q33 -3 52 -3q87 0 87 34q0 28 -59 28q-18 0 -54 -3l22 47q33 3 69 3q127 0 127 -73z" />
    <glyph glyph-name="Egrave" unicode="&#xc8;" horiz-adv-x="459" 
d="M416 0h-351v688h351v-109h-189v-175h165v-106h-165v-189h189v-109zM308 744h-86l-128 137q20 27 68 27q44 0 76 -21z" />
    <glyph glyph-name="Eacute" unicode="&#xc9;" horiz-adv-x="459" 
d="M416 0h-351v688h351v-109h-189v-175h165v-106h-165v-189h189v-109zM388 881l-128 -137h-86l70 143q32 21 76 21q48 0 68 -27z" />
    <glyph glyph-name="Ecircumflex" unicode="&#xca;" horiz-adv-x="459" 
d="M416 0h-351v688h351v-109h-189v-175h165v-106h-165v-189h189v-109zM379 778l-44 -41l-101 78l-101 -78l-44 41l101 105q18 19 44 19t44 -19z" />
    <glyph glyph-name="Edieresis" unicode="&#xcb;" horiz-adv-x="459" 
d="M416 0h-351v688h351v-109h-189v-175h165v-106h-165v-189h189v-109zM211 811q0 -26 -19 -45t-45 -19t-45 19t-19 45t19 45t45 19t45 -19t19 -45zM396 811q0 -26 -19 -45t-45 -19t-45 19t-19 45t19 45t45 19t45 -19t19 -45z" />
    <glyph glyph-name="Igrave" unicode="&#xcc;" horiz-adv-x="296" 
d="M229 0h-162v688h162v-688zM212 744h-86l-128 137q20 27 68 27q44 0 76 -21z" />
    <glyph glyph-name="Iacute" unicode="&#xcd;" horiz-adv-x="296" 
d="M229 0h-162v688h162v-688zM298 881l-128 -137h-86l70 143q32 21 76 21q48 0 68 -27z" />
    <glyph glyph-name="Icircumflex" unicode="&#xce;" horiz-adv-x="296" 
d="M229 0h-162v688h162v-688zM293 777l-44 -41l-101 78l-101 -78l-44 41l101 105q18 19 44 19t44 -19z" />
    <glyph glyph-name="Idieresis" unicode="&#xcf;" horiz-adv-x="296" 
d="M229 0h-162v688h162v-688zM120 811q0 -26 -19 -45t-45 -19t-45 19t-19 45t19 45t45 19t45 -19t19 -45zM304 811q0 -26 -19 -45t-45 -19t-45 19t-19 45t19 45t45 19t45 -19t19 -45z" />
    <glyph glyph-name="Eth" unicode="&#xd0;" horiz-adv-x="631" 
d="M587 348q0 -170 -79.5 -264.5t-226.5 -94.5q-123 0 -207 39v280h-56v97h56v254q86 40 206 40q146 0 226.5 -92t80.5 -259zM426 351q0 126 -34.5 184.5t-107.5 58.5q-33 0 -53 -7v-182h84v-97h-84v-200q19 -8 54 -8q74 0 107.5 61t33.5 190z" />
    <glyph glyph-name="Ntilde" unicode="&#xd1;" horiz-adv-x="654" 
d="M589 0h-124l-230 388q-21 36 -36 72h-2q4 -55 4 -81v-379h-136v688h142l211 -357q19 -32 36 -69h2q-4 46 -4 78v348h137v-688zM471 848q-13 -103 -93 -103q-27 0 -56 20.5t-48 20.5q-31 0 -38 -41l-61 21q13 102 92 102q27 0 56.5 -20.5t48.5 -20.5q31 0 38 42z" />
    <glyph glyph-name="Ograve" unicode="&#xd2;" horiz-adv-x="626" 
d="M582 344q0 -160 -68 -257.5t-201 -97.5t-201 97.5t-68 257.5t68 257.5t201 97.5t201 -97.5t68 -257.5zM419 347q0 243 -106 243t-106 -243q0 -242 106 -242t106 242zM379 745h-86l-128 137q19 27 68 27q44 0 76 -21z" />
    <glyph glyph-name="Oacute" unicode="&#xd3;" horiz-adv-x="626" 
d="M582 344q0 -160 -68 -257.5t-201 -97.5t-201 97.5t-68 257.5t68 257.5t201 97.5t201 -97.5t68 -257.5zM419 347q0 243 -106 243t-106 -243q0 -242 106 -242t106 242zM461 882l-128 -137h-86l70 143q32 21 76 21q49 0 68 -27z" />
    <glyph glyph-name="Ocircumflex" unicode="&#xd4;" horiz-adv-x="626" 
d="M582 344q0 -160 -68 -257.5t-201 -97.5t-201 97.5t-68 257.5t68 257.5t201 97.5t201 -97.5t68 -257.5zM419 347q0 243 -106 243t-106 -243q0 -242 106 -242t106 242zM458 775l-44 -41l-101 78l-101 -78l-44 41l101 105q18 19 44 19t44 -19z" />
    <glyph glyph-name="Otilde" unicode="&#xd5;" horiz-adv-x="626" 
d="M582 344q0 -160 -68 -257.5t-201 -97.5t-201 97.5t-68 257.5t68 257.5t201 97.5t201 -97.5t68 -257.5zM419 347q0 243 -106 243t-106 -243q0 -242 106 -242t106 242zM461 849q-13 -103 -93 -103q-27 0 -56 20.5t-48 20.5q-31 0 -38 -41l-61 21q13 102 92 102
q27 0 56.5 -20.5t48.5 -20.5q31 0 38 42z" />
    <glyph glyph-name="Odieresis" unicode="&#xd6;" horiz-adv-x="626" 
d="M582 344q0 -160 -68 -257.5t-201 -97.5t-201 97.5t-68 257.5t68 257.5t201 97.5t201 -97.5t68 -257.5zM419 347q0 243 -106 243t-106 -243q0 -242 106 -242t106 242zM285 812q0 -26 -19 -45t-45 -19t-45 19t-19 45t19 45t45 19t45 -19t19 -45zM470 812q0 -26 -19 -45
t-45 -19t-45 19t-19 45t19 45t45 19t45 -19t19 -45z" />
    <glyph glyph-name="multiply" unicode="&#xd7;" horiz-adv-x="532" 
d="M478 196l-74 -75l-138 137l-138 -137l-74 75l137 137l-137 138l74 75l138 -138l138 138l74 -75l-137 -138z" />
    <glyph glyph-name="Oslash" unicode="&#xd8;" horiz-adv-x="626" 
d="M582 344q0 -160 -68 -257.5t-201 -97.5q-97 0 -160 54l-58 -91l-42 28l63 101q-72 94 -72 263q0 160 68 257.5t201 97.5q98 0 161 -54l57 91l43 -28l-64 -101q72 -94 72 -263zM401 531q-28 65 -88 65q-114 0 -114 -248q0 -70 9 -123zM428 348q0 72 -8 117l-193 -305
q28 -60 86 -60q115 0 115 248z" />
    <glyph glyph-name="Ugrave" unicode="&#xd9;" horiz-adv-x="614" 
d="M549 688v-485q0 -98 -67 -156.5t-175 -58.5t-175 58.5t-67 156.5v485h162v-487q0 -41 24.5 -65t61.5 -24q36 0 60.5 24t24.5 65v487h151zM384 744h-86l-128 137q20 27 68 27q44 0 76 -21z" />
    <glyph glyph-name="Uacute" unicode="&#xda;" horiz-adv-x="614" 
d="M549 688v-485q0 -98 -67 -156.5t-175 -58.5t-175 58.5t-67 156.5v485h162v-487q0 -41 24.5 -65t61.5 -24q36 0 60.5 24t24.5 65v487h151zM455 881l-128 -137h-86l70 143q32 21 76 21q49 0 68 -27z" />
    <glyph glyph-name="Ucircumflex" unicode="&#xdb;" horiz-adv-x="614" 
d="M549 688v-485q0 -98 -67 -156.5t-175 -58.5t-175 58.5t-67 156.5v485h162v-487q0 -41 24.5 -65t61.5 -24q36 0 60.5 24t24.5 65v487h151zM457 778l-44 -41l-101 78l-101 -78l-44 41l101 105q18 19 44 19t44 -19z" />
    <glyph glyph-name="Udieresis" unicode="&#xdc;" horiz-adv-x="614" 
d="M549 688v-485q0 -98 -67 -156.5t-175 -58.5t-175 58.5t-67 156.5v485h162v-487q0 -41 24.5 -65t61.5 -24q36 0 60.5 24t24.5 65v487h151zM285 811q0 -26 -19 -45t-45 -19t-45 19t-19 45t19 45t45 19t45 -19t19 -45zM469 811q0 -26 -19 -45t-45 -19t-45 19t-19 45t19 45
t45 19t45 -19t19 -45z" />
    <glyph glyph-name="Yacute" unicode="&#xdd;" horiz-adv-x="532" 
d="M531 688l-184 -399v-289h-162v289l-183 399h170l99 -260h2l104 260h154zM429 882l-128 -137h-86l70 143q32 21 76 21q49 0 68 -27z" />
    <glyph glyph-name="Thorn" unicode="&#xde;" horiz-adv-x="578" 
d="M539 365q0 -99 -68 -160t-204 -61q-23 0 -43 2v-146h-159v688h159v-109q18 6 52 6q131 0 197 -56.5t66 -163.5zM384 367q0 64 -25 95.5t-84 31.5q-33 0 -51 -7v-247q20 -2 43 -2q117 0 117 129z" />
    <glyph glyph-name="germandbls" unicode="&#xdf;" horiz-adv-x="613" 
d="M577 160q0 -76 -53.5 -122.5t-137.5 -46.5q-72 0 -119 31l25 96q33 -18 65 -18q31 0 48 16t17 44q0 23 -14 43.5t-33.5 38l-39 36.5t-33.5 49t-14 66q0 44 26 77.5t68 48.5v3q0 3 0.5 7.5t1 10.5t0.5 13.5v14.5q0 54 -19.5 88.5t-59.5 34.5q-90 0 -90 -172v-519h-155v506
q0 132 63.5 211t180.5 79q108 0 170.5 -65.5t62.5 -161.5q0 -53 -11 -88q-91 -10 -91 -80q0 -22 14.5 -42.5t35.5 -38.5t42 -39t35.5 -52t14.5 -69z" />
    <glyph glyph-name="agrave" unicode="&#xe0;" horiz-adv-x="542" 
d="M483 29q-77 -40 -211 -40q-116 0 -176.5 43.5t-60.5 127.5q0 48 23 83.5t66.5 57t94.5 33.5t118 18v24q0 75 -93 75q-74 0 -144 -34l-34 92q92 41 201 41q216 0 216 -197v-324zM337 86v193q-80 -8 -118 -35t-38 -78q0 -90 99 -90q37 0 57 10zM346 596h-86l-128 137
q20 27 68 27q44 0 76 -21z" />
    <glyph glyph-name="aacute" unicode="&#xe1;" horiz-adv-x="542" 
d="M483 29q-77 -40 -211 -40q-116 0 -176.5 43.5t-60.5 127.5q0 48 23 83.5t66.5 57t94.5 33.5t118 18v24q0 75 -93 75q-74 0 -144 -34l-34 92q92 41 201 41q216 0 216 -197v-324zM337 86v193q-80 -8 -118 -35t-38 -78q0 -90 99 -90q37 0 57 10zM438 733l-128 -137h-86
l70 143q32 21 76 21q48 0 68 -27z" />
    <glyph glyph-name="acircumflex" unicode="&#xe2;" horiz-adv-x="542" 
d="M483 29q-77 -40 -211 -40q-116 0 -176.5 43.5t-60.5 127.5q0 48 23 83.5t66.5 57t94.5 33.5t118 18v24q0 75 -93 75q-74 0 -144 -34l-34 92q92 41 201 41q216 0 216 -197v-324zM337 86v193q-80 -8 -118 -35t-38 -78q0 -90 99 -90q37 0 57 10zM420 628l-44 -41l-101 78
l-101 -78l-44 41l101 105q18 19 44 19t44 -19z" />
    <glyph glyph-name="atilde" unicode="&#xe3;" horiz-adv-x="542" 
d="M483 29q-77 -40 -211 -40q-116 0 -176.5 43.5t-60.5 127.5q0 48 23 83.5t66.5 57t94.5 33.5t118 18v24q0 75 -93 75q-74 0 -144 -34l-34 92q92 41 201 41q216 0 216 -197v-324zM337 86v193q-80 -8 -118 -35t-38 -78q0 -90 99 -90q37 0 57 10zM421 700q-13 -103 -93 -103
q-27 0 -56 20.5t-48 20.5q-31 0 -38 -41l-61 21q13 102 92 102q27 0 56.5 -20.5t48.5 -20.5q31 0 38 42z" />
    <glyph glyph-name="adieresis" unicode="&#xe4;" horiz-adv-x="542" 
d="M483 29q-77 -40 -211 -40q-116 0 -176.5 43.5t-60.5 127.5q0 48 23 83.5t66.5 57t94.5 33.5t118 18v24q0 75 -93 75q-74 0 -144 -34l-34 92q92 41 201 41q216 0 216 -197v-324zM337 86v193q-80 -8 -118 -35t-38 -78q0 -90 99 -90q37 0 57 10zM251 663q0 -26 -19 -45
t-45 -19t-45 19t-19 45t19 45t45 19t45 -19t19 -45zM436 663q0 -26 -19 -45t-45 -19t-45 19t-19 45t19 45t45 19t45 -19t19 -45z" />
    <glyph glyph-name="aring" unicode="&#xe5;" horiz-adv-x="542" 
d="M483 29q-77 -40 -211 -40q-116 0 -176.5 43.5t-60.5 127.5q0 48 23 83.5t66.5 57t94.5 33.5t118 18v24q0 75 -93 75q-74 0 -144 -34l-34 92q92 41 201 41q216 0 216 -197v-324zM337 86v193q-80 -8 -118 -35t-38 -78q0 -90 99 -90q37 0 57 10zM368 682q0 -37 -26.5 -63
t-63.5 -26t-63.5 26t-26.5 63t26.5 63.5t63.5 26.5t63.5 -26.5t26.5 -63.5zM317 682q0 17 -11.5 29t-27.5 12t-27.5 -12t-11.5 -29t11.5 -28.5t27.5 -11.5t27.5 11.5t11.5 28.5z" />
    <glyph glyph-name="ae" unicode="&#xe6;" horiz-adv-x="835" 
d="M795 285q0 -15 -1 -23l-320 -46q7 -56 40 -88t94 -32q76 0 134 31l35 -98q-78 -40 -187 -40q-118 0 -175 79q-45 -79 -166 -79q-98 0 -156 43.5t-58 126.5q0 48 22.5 83t65.5 56.5t93 34t117 18.5v26q0 74 -91 74q-69 0 -143 -34l-33 92q92 41 197 41q111 0 150 -73
q25 35 68.5 54t88.5 19q109 0 167 -68t58 -197zM650 321q-2 138 -89 138q-45 0 -72 -40t-27 -114v-13zM333 158v121q-77 -8 -116 -34.5t-39 -79.5q0 -40 20.5 -64.5t58.5 -24.5q33 0 54.5 23.5t21.5 58.5z" />
    <glyph glyph-name="ccedilla" unicode="&#xe7;" horiz-adv-x="432" 
d="M405 28q-53 -39 -136 -39q-102 0 -165.5 75.5t-63.5 205.5q0 129 64 204.5t165 75.5q83 0 136 -39l-33 -86q-27 21 -67 21q-48 0 -77 -46.5t-29 -126.5t29 -126.5t77 -46.5q39 0 66 21zM344 -123q0 -44 -48.5 -67t-137.5 -23q-33 0 -83 5l25 52q33 -3 52 -3q87 0 87 34
q0 28 -59 28q-18 0 -54 -3l22 47q33 3 69 3q127 0 127 -73z" />
    <glyph glyph-name="egrave" unicode="&#xe8;" horiz-adv-x="558" 
d="M518 285q0 -12 -1 -23l-324 -46q8 -57 43 -88.5t92 -31.5q76 0 136 31l36 -98q-80 -40 -197 -40q-126 0 -194.5 77.5t-68.5 204.5q0 128 65.5 203.5t181.5 75.5q112 0 171.5 -69.5t59.5 -195.5zM370 321q-2 138 -89 138q-47 0 -73 -41.5t-26 -111.5v-14zM347 596h-86
l-128 137q20 27 68 27q44 0 76 -21z" />
    <glyph glyph-name="eacute" unicode="&#xe9;" horiz-adv-x="558" 
d="M518 285q0 -12 -1 -23l-324 -46q8 -57 43 -88.5t92 -31.5q76 0 136 31l36 -98q-80 -40 -197 -40q-126 0 -194.5 77.5t-68.5 204.5q0 128 65.5 203.5t181.5 75.5q112 0 171.5 -69.5t59.5 -195.5zM370 321q-2 138 -89 138q-47 0 -73 -41.5t-26 -111.5v-14zM444 733
l-128 -137h-86l70 143q32 21 76 21q48 0 68 -27z" />
    <glyph glyph-name="ecircumflex" unicode="&#xea;" horiz-adv-x="558" 
d="M518 285q0 -12 -1 -23l-324 -46q8 -57 43 -88.5t92 -31.5q76 0 136 31l36 -98q-80 -40 -197 -40q-126 0 -194.5 77.5t-68.5 204.5q0 128 65.5 203.5t181.5 75.5q112 0 171.5 -69.5t59.5 -195.5zM370 321q-2 138 -89 138q-47 0 -73 -41.5t-26 -111.5v-14zM431 628l-44 -41
l-101 78l-101 -78l-44 41l101 105q18 19 44 19t44 -19z" />
    <glyph glyph-name="edieresis" unicode="&#xeb;" horiz-adv-x="558" 
d="M518 285q0 -12 -1 -23l-324 -46q8 -57 43 -88.5t92 -31.5q76 0 136 31l36 -98q-80 -40 -197 -40q-126 0 -194.5 77.5t-68.5 204.5q0 128 65.5 203.5t181.5 75.5q112 0 171.5 -69.5t59.5 -195.5zM370 321q-2 138 -89 138q-47 0 -73 -41.5t-26 -111.5v-14zM255 663
q0 -26 -19 -45t-45 -19t-45 19t-19 45t19 45t45 19t45 -19t19 -45zM440 663q0 -26 -19 -45t-45 -19t-45 19t-19 45t19 45t45 19t45 -19t19 -45z" />
    <glyph glyph-name="igrave" unicode="&#xec;" horiz-adv-x="280" 
d="M218 0h-156v539h156v-539zM210 595h-86l-128 137q20 27 68 27q44 0 76 -21z" />
    <glyph glyph-name="iacute" unicode="&#xed;" horiz-adv-x="280" 
d="M218 0h-156v539h156v-539zM284 732l-128 -137h-86l70 143q32 21 76 21q48 0 68 -27z" />
    <glyph glyph-name="icircumflex" unicode="&#xee;" horiz-adv-x="280" 
d="M218 0h-156v539h156v-539zM285 629l-44 -41l-101 78l-101 -78l-44 41l101 105q18 19 44 19t44 -19z" />
    <glyph glyph-name="idieresis" unicode="&#xef;" horiz-adv-x="280" 
d="M218 0h-156v539h156v-539zM112 662q0 -26 -19 -45t-45 -19t-45 19t-19 45t19 45t45 19t45 -19t19 -45zM296 662q0 -26 -19 -45t-45 -19t-45 19t-19 45t19 45t45 19t45 -19t19 -45z" />
    <glyph glyph-name="eth" unicode="&#xf0;" horiz-adv-x="566" 
d="M525 280q0 -130 -60.5 -210.5t-183.5 -80.5q-117 0 -179 71.5t-62 199.5q0 114 63.5 191t168.5 77q22 0 39 -5q-22 42 -61 88l-102 -55l-45 60l88 52l-68 62l103 71l77 -71l93 54l53 -72l-80 -44q156 -172 156 -388zM370 275q0 87 -24 162q-19 7 -44 7q-53 0 -80 -51
t-27 -132q0 -171 88 -171q87 0 87 185z" />
    <glyph glyph-name="ntilde" unicode="&#xf1;" horiz-adv-x="579" 
d="M520 0h-156v365q0 45 -20.5 66.5t-66.5 21.5q-32 0 -62 -11v-442h-156v510q92 39 218 39q243 0 243 -185v-364zM432 700q-13 -103 -93 -103q-27 0 -56 20.5t-48 20.5q-31 0 -38 -41l-61 21q13 102 92 102q27 0 56.5 -20.5t48.5 -20.5q31 0 38 42z" />
    <glyph glyph-name="ograve" unicode="&#xf2;" horiz-adv-x="566" 
d="M526 270q0 -127 -63 -204t-180 -77t-180 77t-63 204q0 126 63 203t180 77t180 -77t63 -203zM370 273q0 181 -87 181t-87 -181q0 -183 87 -183t87 183zM345 596h-86l-128 137q20 27 68 27q44 0 76 -21z" />
    <glyph glyph-name="oacute" unicode="&#xf3;" horiz-adv-x="566" 
d="M526 270q0 -127 -63 -204t-180 -77t-180 77t-63 204q0 126 63 203t180 77t180 -77t63 -203zM370 273q0 181 -87 181t-87 -181q0 -183 87 -183t87 183zM440 733l-128 -137h-86l70 143q32 21 76 21q48 0 68 -27z" />
    <glyph glyph-name="ocircumflex" unicode="&#xf4;" horiz-adv-x="566" 
d="M526 270q0 -127 -63 -204t-180 -77t-180 77t-63 204q0 126 63 203t180 77t180 -77t63 -203zM370 273q0 181 -87 181t-87 -181q0 -183 87 -183t87 183zM428 628l-44 -41l-101 78l-101 -78l-44 41l101 105q18 19 44 19t44 -19z" />
    <glyph glyph-name="otilde" unicode="&#xf5;" horiz-adv-x="566" 
d="M526 270q0 -127 -63 -204t-180 -77t-180 77t-63 204q0 126 63 203t180 77t180 -77t63 -203zM370 273q0 181 -87 181t-87 -181q0 -183 87 -183t87 183zM429 700q-13 -103 -93 -103q-27 0 -56 20.5t-48 20.5q-31 0 -38 -41l-61 21q13 102 92 102q27 0 56.5 -20.5
t48.5 -20.5q31 0 38 42z" />
    <glyph glyph-name="odieresis" unicode="&#xf6;" horiz-adv-x="566" 
d="M526 270q0 -127 -63 -204t-180 -77t-180 77t-63 204q0 126 63 203t180 77t180 -77t63 -203zM370 273q0 181 -87 181t-87 -181q0 -183 87 -183t87 183zM254 663q0 -26 -19 -45t-45 -19t-45 19t-19 45t19 45t45 19t45 -19t19 -45zM440 663q0 -26 -19 -45t-45 -19t-45 19
t-19 45t19 45t45 19t45 -19t19 -45z" />
    <glyph glyph-name="divide" unicode="&#xf7;" horiz-adv-x="532" 
d="M336 496q0 -29 -20.5 -49.5t-49.5 -20.5t-49.5 20.5t-20.5 49.5t20.5 50t49.5 21t49.5 -21t20.5 -50zM478 284h-424v82h424v-82zM336 154q0 -29 -20.5 -49.5t-49.5 -20.5t-49.5 20.5t-20.5 49.5t20.5 50t49.5 21t49.5 -21t20.5 -50z" />
    <glyph glyph-name="oslash" unicode="&#xf8;" horiz-adv-x="566" 
d="M526 270q0 -127 -63 -204t-180 -77q-82 0 -137 38l-51 -74l-39 27l54 78q-70 76 -70 212q0 126 63 203t180 77q82 0 137 -38l51 74l39 -27l-54 -78q70 -76 70 -211zM354 414q-24 47 -71 47q-95 0 -95 -188q0 -54 7 -90zM378 273q0 40 -7 84l-157 -230q24 -44 69 -44
q95 0 95 190z" />
    <glyph glyph-name="ugrave" unicode="&#xf9;" horiz-adv-x="572" 
d="M513 30q-87 -41 -220 -41q-118 0 -176 46t-58 144v360h156v-367q0 -79 80 -79q35 0 62 12v434h156v-509zM356 595h-86l-128 137q19 27 68 27q44 0 76 -21z" />
    <glyph glyph-name="uacute" unicode="&#xfa;" horiz-adv-x="572" 
d="M513 30q-87 -41 -220 -41q-118 0 -176 46t-58 144v360h156v-367q0 -79 80 -79q35 0 62 12v434h156v-509zM443 732l-128 -137h-86l70 143q32 21 76 21q49 0 68 -27z" />
    <glyph glyph-name="ucircumflex" unicode="&#xfb;" horiz-adv-x="572" 
d="M513 30q-87 -41 -220 -41q-118 0 -176 46t-58 144v360h156v-367q0 -79 80 -79q35 0 62 12v434h156v-509zM431 629l-44 -41l-101 78l-101 -78l-44 41l101 105q18 19 44 19t44 -19z" />
    <glyph glyph-name="udieresis" unicode="&#xfc;" horiz-adv-x="572" 
d="M513 30q-87 -41 -220 -41q-118 0 -176 46t-58 144v360h156v-367q0 -79 80 -79q35 0 62 12v434h156v-509zM257 662q0 -26 -19 -45t-45 -19t-45 19t-19 45t19 45t45 19t45 -19t19 -45zM442 662q0 -26 -19 -45t-45 -19t-45 19t-19 45t19 45t45 19t45 -19t19 -45z" />
    <glyph glyph-name="yacute" unicode="&#xfd;" horiz-adv-x="533" 
d="M520 539l-251 -754h-163l89 215l-181 539h168l75 -322q10 -41 12 -83h2q6 47 15 83l83 322h151zM427 733l-128 -137h-86l70 143q32 21 76 21q49 0 68 -27z" />
    <glyph glyph-name="thorn" unicode="&#xfe;" horiz-adv-x="570" 
d="M531 288q0 -136 -67 -215.5t-175 -79.5q-38 0 -74 10v-218h-156v1000h156v-258q44 20 95 20q101 0 161 -70t60 -189zM377 274q0 183 -107 183q-28 0 -55 -12v-350q17 -8 46 -8q116 0 116 187z" />
    <glyph glyph-name="ydieresis" unicode="&#xff;" horiz-adv-x="533" 
d="M520 539l-251 -754h-163l89 215l-181 539h168l75 -322q10 -41 12 -83h2q6 47 15 83l83 322h151zM246 663q0 -26 -19 -45t-45 -19t-45 19t-19 45t19 45t45 19t45 -19t19 -45zM441 663q0 -26 -19 -45t-45 -19t-45 19t-19 45t19 45t45 19t45 -19t19 -45z" />
    <glyph glyph-name="dotlessi" unicode="&#x131;" horiz-adv-x="280" 
d="M218 0h-156v539h156v-539z" />
    <glyph glyph-name="IJ" unicode="&#x132;" horiz-adv-x="591" 
d="M524 688v-607q0 -131 -68.5 -210.5t-197.5 -90.5v113q104 29 104 174v621h162zM229 0h-162v688h162v-688z" />
    <glyph glyph-name="ij" unicode="&#x133;" horiz-adv-x="562" 
d="M505 694q0 -31 -24.5 -52.5t-58.5 -21.5q-35 0 -59.5 21.5t-24.5 52.5t24 52t59 21t59.5 -21.5t24.5 -51.5zM223 694q0 -31 -24.5 -52.5t-58.5 -21.5t-58.5 21.5t-24.5 52.5t24 52t59 21t59 -21t24 -52zM499 539v-458q0 -132 -63 -209t-182 -92v104q48 21 68.5 63
t20.5 115v477h156zM218 0h-156v539h156v-539z" />
    <glyph glyph-name="Lslash" unicode="&#x141;" horiz-adv-x="444" 
d="M414 0h-337v297l-60 -25v99l60 25v292h162v-230l84 36v-99l-84 -36v-250h175v-109z" />
    <glyph glyph-name="lslash" unicode="&#x142;" horiz-adv-x="296" 
d="M288 445l-64 -27v-418h-156v358l-59 -26v95l59 26v332h156v-273l64 28v-95z" />
    <glyph glyph-name="OE" unicode="&#x152;" horiz-adv-x="769" 
d="M727 0h-316q-31 -11 -83 -11q-142 0 -213 97t-71 258t71 258t213 97q52 0 83 -11h316v-109h-189v-175h166v-106h-166v-189h189v-109zM387 108v479q-22 8 -50 8q-130 0 -130 -248q0 -247 130 -247q28 0 50 8z" />
    <glyph glyph-name="oe" unicode="&#x153;" horiz-adv-x="860" 
d="M820 283q0 -11 -1 -21l-320 -46q7 -56 41.5 -88t93.5 -32q78 0 134 31l35 -98q-78 -40 -187 -40q-62 0 -110.5 26t-72.5 68q-23 -42 -65.5 -68t-95.5 -26q-110 0 -171 75.5t-61 205.5t61 205t171 75q107 0 160 -89q27 44 70.5 66.5t93.5 22.5q108 0 166 -70t58 -197z
M676 321q-2 138 -89 138q-48 0 -73.5 -42t-25.5 -114v-11zM363 273q0 181 -87 181t-87 -181q0 -183 87 -183t87 183z" />
    <glyph glyph-name="Scaron" unicode="&#x160;" horiz-adv-x="505" 
d="M464 200q0 -92 -66 -151.5t-174 -59.5q-117 0 -191 40l41 111q58 -32 127 -32q45 0 71 21t26 56q0 29 -19 51t-47.5 36t-62 33.5t-62 41t-47.5 60.5t-19 91q0 89 64 145t168 56q99 0 169 -40l-36 -99q-49 28 -111 28q-44 0 -69.5 -20t-25.5 -56q0 -29 19.5 -51t49 -35
t63.5 -32t63.5 -40.5t49 -61t19.5 -92.5zM406 866l-101 -105q-18 -19 -44 -19t-44 19l-101 105l44 41l101 -78l101 78z" />
    <glyph glyph-name="scaron" unicode="&#x161;" horiz-adv-x="446" 
d="M409 164q0 -77 -58 -126t-155 -49q-103 0 -166 39l41 96q53 -31 105 -31q33 0 53.5 17t20.5 43q0 25 -21.5 43t-52 31t-61 29t-52 49t-21.5 80q0 75 54 120t134 45q99 0 165 -39l-37 -86q-48 28 -94 28q-32 0 -49.5 -16t-17.5 -41q0 -24 22 -41.5t53 -30.5t62 -29.5
t53 -50t22 -80.5zM370 719l-101 -105q-18 -19 -44 -19t-44 19l-101 105l44 41l101 -78l101 78z" />
    <glyph glyph-name="Ydieresis" unicode="&#x178;" horiz-adv-x="532" 
d="M531 688l-184 -399v-289h-162v289l-183 399h170l99 -260h2l104 260h154zM244 812q0 -26 -19 -45t-45 -19t-45 19t-19 45t19 45t45 19t45 -19t19 -45zM439 812q0 -26 -19 -45t-45 -19t-45 19t-19 45t19 45t45 19t45 -19t19 -45z" />
    <glyph glyph-name="Zcaron" unicode="&#x17d;" horiz-adv-x="477" 
d="M443 0h-426l220 579h-197v109h399l-212 -579h216v-109zM383 866l-101 -105q-18 -19 -44 -19t-44 19l-101 105l44 41l101 -78l101 78z" />
    <glyph glyph-name="zcaron" unicode="&#x17e;" horiz-adv-x="440" 
d="M407 0h-382l184 439h-167v100h361l-180 -439h184v-100zM364 717l-101 -105q-18 -19 -44 -19t-44 19l-101 105l44 41l101 -78l101 78z" />
    <glyph glyph-name="longs" unicode="&#x17f;" horiz-adv-x="336" 
d="M351 778l-18 -98q-16 5 -39 5q-76 0 -76 -93v-807h-155v798q0 99 54 153t147 54q54 0 87 -12z" />
    <glyph glyph-name="florin" unicode="&#x192;" 
d="M528 677l-19 -97q-23 10 -54 10q-76 0 -90 -110l-9 -68h109v-101h-122l-40 -312q-14 -106 -70.5 -163.5t-152.5 -57.5q-57 0 -99 22l20 102q24 -12 56 -12q78 0 92 109l40 312h-94v101h107l9 68q14 105 69.5 161t149.5 56q55 0 98 -20z" />
    <glyph glyph-name="uni02BB" unicode="&#x2bb;" horiz-adv-x="304" 
d="M268 785l-85 -266q-28 -47 -84 -47q-51 0 -61 47l148 266h82z" />
    <glyph glyph-name="afii57929" unicode="&#x2bc;" horiz-adv-x="304" 
d="M266 746l-148 -266h-82l85 266q28 47 84 47q51 0 61 -47z" />
    <glyph glyph-name="circumflex" unicode="&#x2c6;" horiz-adv-x="280" 
d="M285 630l-44 -41l-101 78l-101 -78l-44 41l101 105q18 19 44 19t44 -19z" />
    <glyph glyph-name="caron" unicode="&#x2c7;" horiz-adv-x="280" 
d="M285 717l-101 -105q-18 -19 -44 -19t-44 19l-101 105l44 41l101 -78l101 78z" />
    <glyph glyph-name="uni02C9" unicode="&#x2c9;" horiz-adv-x="280" 
d="M282 609h-284v81h284v-81z" />
    <glyph glyph-name="breve" unicode="&#x2d8;" horiz-adv-x="280" 
d="M280 741q0 -67 -38 -107t-102 -40t-102 40t-38 107l63 10q4 -36 24.5 -55.5t52.5 -19.5t52 19.5t24 55.5z" />
    <glyph glyph-name="dotaccent" unicode="&#x2d9;" horiz-adv-x="279" 
d="M210 670q0 -29 -20.5 -50t-49.5 -21t-50 21t-21 50t21 49.5t50 20.5t49.5 -20.5t20.5 -49.5z" />
    <glyph glyph-name="ring" unicode="&#x2da;" horiz-adv-x="280" 
d="M230 682q0 -37 -26.5 -63t-63.5 -26t-63.5 26t-26.5 63t26.5 63.5t63.5 26.5t63.5 -26.5t26.5 -63.5zM179 682q0 17 -11.5 29t-27.5 12t-27.5 -12t-11.5 -29t11.5 -28.5t27.5 -11.5t27.5 11.5t11.5 28.5z" />
    <glyph glyph-name="ogonek" unicode="&#x2db;" horiz-adv-x="280" 
d="M263 -177q-35 -16 -91 -16q-62 0 -97.5 24.5t-35.5 65.5q0 64 88 115h86q-69 -44 -69 -94q0 -20 15 -32t40 -12q29 0 51 9z" />
    <glyph glyph-name="tilde" unicode="&#x2dc;" horiz-adv-x="280" 
d="M288 700q-13 -103 -93 -103q-27 0 -56 20.5t-48 20.5q-31 0 -38 -41l-61 21q13 102 92 102q27 0 56.5 -20.5t48.5 -20.5q31 0 38 42z" />
    <glyph glyph-name="hungarumlaut" unicode="&#x2dd;" horiz-adv-x="280" 
d="M345 736l-118 -140h-68l87 142q23 20 54 20q32 0 45 -22zM194 736l-118 -140h-68l86 142q23 20 54 20q33 0 46 -22z" />
    <glyph glyph-name="uni037E" unicode="&#x37e;" horiz-adv-x="298" 
d="M246 393q0 -37 -26 -62.5t-63 -25.5t-63 25.5t-26 62.5t26 63t63 26t63 -26t26 -63zM249 121l-149 -266h-93l84 266q30 47 90 47q59 0 68 -47z" />
    <glyph glyph-name="uni0394" unicode="&#x394;" horiz-adv-x="624" 
d="M620 0h-616l224 688h169zM428 95l-102 375q-12 44 -18 89h-2q-6 -51 -17 -89l-107 -375h246z" />
    <glyph glyph-name="uni03A9" unicode="&#x3a9;" horiz-adv-x="638" 
d="M596 0h-244v108q81 114 81 276q0 86 -29 146t-85 60t-84.5 -59.5t-28.5 -146.5q0 -162 81 -276v-108h-245v109h113q-111 137 -111 287q0 127 71.5 215t203.5 88t204 -88t72 -215q0 -149 -112 -287h113v-109z" />
    <glyph glyph-name="uni03BC" unicode="&#x3bc;" horiz-adv-x="574" 
d="M515 41q-81 -51 -193 -51q-60 0 -105 20v-225h-156v754h156v-427q29 -20 71 -20q40 0 71 19v428h156v-498z" />
    <glyph glyph-name="pi" unicode="&#x3c0;" horiz-adv-x="618" 
d="M584 439h-60v-439h-152v439h-117l-55 -439h-152l57 439h-64v100h543v-100z" />
    <glyph glyph-name="uni2007" unicode="&#x2007;" horiz-adv-x="578" 
 />
    <glyph glyph-name="uni2008" unicode="&#x2008;" horiz-adv-x="282" 
 />
    <glyph glyph-name="uni200B" unicode="&#x200b;" horiz-adv-x="0" 
 />
    <glyph glyph-name="endash" unicode="&#x2013;" horiz-adv-x="408" 
d="M408 270h-408v110h408v-110z" />
    <glyph glyph-name="emdash" unicode="&#x2014;" horiz-adv-x="816" 
d="M816 272h-816v106h816v-106z" />
    <glyph glyph-name="quoteleft" unicode="&#x2018;" horiz-adv-x="304" 
d="M268 785l-85 -266q-28 -47 -84 -47q-51 0 -61 47l148 266h82z" />
    <glyph glyph-name="quoteright" unicode="&#x2019;" horiz-adv-x="304" 
d="M266 746l-148 -266h-82l85 266q28 47 84 47q51 0 61 -47z" />
    <glyph glyph-name="quotesinglbase" unicode="&#x201a;" horiz-adv-x="304" 
d="M266 121l-148 -266h-82l85 266q28 47 84 47q51 0 61 -47z" />
    <glyph glyph-name="quotedblleft" unicode="&#x201c;" horiz-adv-x="520" 
d="M484 785l-85 -266q-28 -47 -84 -47q-51 0 -61 47l148 266h82zM268 785l-85 -266q-28 -47 -84 -47q-51 0 -61 47l148 266h82z" />
    <glyph glyph-name="quotedblright" unicode="&#x201d;" horiz-adv-x="520" 
d="M482 746l-148 -266h-82l85 266q28 47 84 47q51 0 61 -47zM266 746l-148 -266h-82l85 266q28 47 84 47q51 0 61 -47z" />
    <glyph glyph-name="quotedblbase" unicode="&#x201e;" horiz-adv-x="520" 
d="M482 121l-148 -266h-82l85 266q28 47 84 47q51 0 61 -47zM266 121l-148 -266h-82l85 266q28 47 84 47q51 0 61 -47z" />
    <glyph glyph-name="dagger" unicode="&#x2020;" horiz-adv-x="608" 
d="M566 392l-194 13l13 -620h-161l12 620l-194 -13v154l194 -13l-12 252h161l-13 -252l194 13v-154z" />
    <glyph glyph-name="daggerdbl" unicode="&#x2021;" horiz-adv-x="608" 
d="M566 100l-194 13l13 -328h-161l12 328l-194 -13v150l194 -12v170l-194 -13v151l194 -13l-12 252h161l-13 -252l194 13v-151l-194 13v-170l194 12v-150z" />
    <glyph glyph-name="bullet" unicode="&#x2022;" horiz-adv-x="392" 
d="M338 363q0 -59 -41.5 -100.5t-100.5 -41.5t-100.5 41.5t-41.5 100.5t41.5 100.5t100.5 41.5t100.5 -41.5t41.5 -100.5z" />
    <glyph glyph-name="ellipsis" unicode="&#x2026;" horiz-adv-x="846" 
d="M794 80q0 -37 -26 -63t-63 -26t-63 26t-26 63t26 63t63 26t63 -26t26 -63zM512 80q0 -37 -26 -63t-63 -26t-63 26t-26 63t26 63t63 26t63 -26t26 -63zM230 80q0 -37 -26 -63t-63 -26t-63 26t-26 63t26 63t63 26t63 -26t26 -63z" />
    <glyph glyph-name="perthousand" unicode="&#x2030;" horiz-adv-x="1222" 
d="M1175 186q0 -84 -40 -140.5t-113 -56.5t-113 56.5t-40 140.5t40 140.5t113 56.5t113 -56.5t40 -140.5zM808 186q0 -84 -40 -140.5t-113 -56.5t-113 56.5t-40 140.5t40 140.5t113 56.5t113 -56.5t40 -140.5zM584 676l-237 -689l-77 26l237 688zM353 502q0 -84 -40 -140.5
t-113 -56.5t-113 56.5t-40 140.5t40 140.5t113 56.5t113 -56.5t40 -140.5zM1076 189q0 132 -54 132t-54 -132q0 -133 54 -133t54 133zM709 189q0 132 -54 132t-54 -132q0 -133 54 -133t54 133zM254 505q0 132 -54 132t-54 -132q0 -133 54 -133t54 133z" />
    <glyph glyph-name="guilsinglleft" unicode="&#x2039;" horiz-adv-x="308" 
d="M262 143l-87 -50l-139 241l139 241l87 -49l-110 -192z" />
    <glyph glyph-name="guilsinglright" unicode="&#x203a;" horiz-adv-x="308" 
d="M272 334l-139 -241l-87 50l110 191l-110 192l87 49z" />
    <glyph glyph-name="fraction" unicode="&#x2044;" horiz-adv-x="132" 
d="M254 671l-303 -690l-79 37l303 689z" />
    <glyph glyph-name="uni2070" unicode="&#x2070;" horiz-adv-x="372" 
d="M341 682q0 -92 -38.5 -153t-116.5 -61t-116.5 61t-38.5 153t38.5 153t116.5 61t116.5 -61t38.5 -153zM237 684q0 147 -51 147t-51 -147t51 -147t51 147z" />
    <glyph glyph-name="uni2074" unicode="&#x2074;" horiz-adv-x="372" 
d="M340 556h-36v-80h-101v80h-175v58l171 274h105v-275h36v-57zM206 797h-2q-14 -32 -30 -59l-74 -125h103v122q0 31 3 62z" />
    <glyph glyph-name="uni2075" unicode="&#x2075;" horiz-adv-x="372" 
d="M328 600q0 -57 -47 -94.5t-123 -37.5q-83 0 -132 23l29 71q36 -19 86 -19q35 0 54.5 16.5t19.5 41.5q0 64 -100 64q-25 0 -65 -5l27 228h230v-81h-154l-10 -84q7 1 17 1q84 0 126 -33.5t42 -90.5z" />
    <glyph glyph-name="uni2076" unicode="&#x2076;" horiz-adv-x="372" 
d="M341 604q0 -59 -40.5 -97.5t-113.5 -38.5q-76 0 -115.5 44t-39.5 118q0 107 70.5 177t182.5 89l20 -70q-112 -24 -152 -101q18 6 40 6q69 0 108.5 -34.5t39.5 -92.5zM239 606q0 73 -69 73q-20 0 -33 -5q-4 -20 -4 -48q0 -93 55 -93q25 0 38 20.5t13 52.5z" />
    <glyph glyph-name="uni2077" unicode="&#x2077;" horiz-adv-x="372" 
d="M345 888l-54 -127q-80 -187 -102 -285h-129l156 330h-183v82h312z" />
    <glyph glyph-name="uni2078" unicode="&#x2078;" horiz-adv-x="372" 
d="M342 579q0 -50 -43.5 -80.5t-113.5 -30.5q-68 0 -111.5 29.5t-43.5 81.5q0 38 22 62.5t66 48.5q-75 45 -75 101q0 47 40 76t102 29t103 -28.5t41 -75.5q0 -33 -18.5 -55.5t-55.5 -43.5q42 -24 64.5 -50.5t22.5 -63.5zM242 793q0 21 -15.5 34t-38.5 13q-24 0 -38.5 -13
t-14.5 -34t12 -34.5t42 -32.5q28 18 40.5 32.5t12.5 34.5zM242 580q0 24 -13 40.5t-45 35.5q-32 -18 -46 -34.5t-14 -40.5q0 -22 17.5 -36.5t42.5 -14.5q26 0 42 14t16 36z" />
    <glyph glyph-name="uni2079" unicode="&#x2079;" horiz-adv-x="372" 
d="M340 734q0 -107 -70.5 -177t-182.5 -89l-20 70q113 27 151 101q-18 -6 -39 -6q-69 0 -108.5 34.5t-39.5 92.5q0 60 40 98t113 38q76 0 116 -44t40 -118zM239 740q0 93 -56 93q-50 0 -50 -73q0 -74 69 -74q18 0 33 6q4 20 4 48z" />
    <glyph glyph-name="uni207A" unicode="&#x207a;" horiz-adv-x="368" 
d="M320 646h-96v-96h-81v96h-95v75h95v95h81v-95h96v-75z" />
    <glyph glyph-name="uni207B" unicode="&#x207b;" horiz-adv-x="368" 
d="M320 646h-272v75h272v-75z" />
    <glyph glyph-name="uni207C" unicode="&#x207c;" horiz-adv-x="368" 
d="M320 716h-272v75h272v-75zM320 576h-272v75h272v-75z" />
    <glyph glyph-name="uni207D" unicode="&#x207d;" horiz-adv-x="238" 
d="M227 415l-52 -39q-141 121 -141 306t141 306l52 -39q-85 -113 -85 -267t85 -267z" />
    <glyph glyph-name="uni207E" unicode="&#x207e;" horiz-adv-x="238" 
d="M204 682q0 -185 -141 -306l-52 39q85 113 85 267t-85 267l52 39q141 -121 141 -306z" />
    <glyph glyph-name="uni207F" unicode="&#x207f;" horiz-adv-x="420" 
d="M370 476h-112v236q0 52 -54 52q-25 0 -43 -7v-281h-111v328q68 27 154 27q166 0 166 -116v-239z" />
    <glyph glyph-name="uni2080" unicode="&#x2080;" horiz-adv-x="372" 
d="M341 -9q0 -92 -38.5 -153t-116.5 -61t-116.5 61t-38.5 153t38.5 153t116.5 61t116.5 -61t38.5 -153zM237 -7q0 147 -51 147t-51 -147t51 -147t51 147z" />
    <glyph glyph-name="uni2081" unicode="&#x2081;" horiz-adv-x="372" 
d="M279 -215h-113v307q-35 -14 -100 -18l-14 61q107 11 145 62h82v-412z" />
    <glyph glyph-name="uni2082" unicode="&#x2082;" horiz-adv-x="372" 
d="M320 -215h-301l156 217q29 41 29 73q0 56 -68 56q-37 0 -77 -17l-25 66q55 25 126 25q79 0 118 -32t39 -85q0 -47 -58 -118l-84 -103h145v-82z" />
    <glyph glyph-name="uni2083" unicode="&#x2083;" horiz-adv-x="372" 
d="M328 -90q0 -59 -47 -96t-123 -37q-78 0 -131 24l27 70q34 -18 86 -18q35 0 55 15.5t20 42.5q0 62 -98 62h-8v53q96 9 96 63q0 43 -59 43q-44 0 -82 -16l-24 65q56 24 124 24q69 0 108 -27t39 -75q0 -57 -67 -85v-2q84 -29 84 -106z" />
    <glyph glyph-name="uni2084" unicode="&#x2084;" horiz-adv-x="372" 
d="M340 -135h-36v-80h-101v80h-175v58l171 274h105v-275h36v-57zM206 106h-2q-14 -32 -30 -59l-74 -125h103v122q0 31 3 62z" />
    <glyph glyph-name="uni2085" unicode="&#x2085;" horiz-adv-x="372" 
d="M328 -91q0 -57 -47 -94.5t-123 -37.5q-83 0 -132 23l29 71q36 -19 86 -19q35 0 54.5 16.5t19.5 41.5q0 64 -100 64q-25 0 -65 -5l27 228h230v-81h-154l-10 -84q7 1 17 1q84 0 126 -33.5t42 -90.5z" />
    <glyph glyph-name="uni2086" unicode="&#x2086;" horiz-adv-x="372" 
d="M341 -87q0 -59 -40.5 -97.5t-113.5 -38.5q-76 0 -115.5 44t-39.5 118q0 107 70.5 177t182.5 89l20 -70q-112 -24 -152 -101q18 6 40 6q69 0 108.5 -34.5t39.5 -92.5zM239 -85q0 73 -69 73q-20 0 -33 -5q-4 -20 -4 -48q0 -93 55 -93q25 0 38 20.5t13 52.5z" />
    <glyph glyph-name="uni2087" unicode="&#x2087;" horiz-adv-x="372" 
d="M345 197l-54 -127q-80 -187 -102 -285h-129l156 330h-183v82h312z" />
    <glyph glyph-name="uni2088" unicode="&#x2088;" horiz-adv-x="372" 
d="M342 -112q0 -50 -43.5 -80.5t-113.5 -30.5q-68 0 -111.5 29.5t-43.5 81.5q0 38 22 62.5t66 48.5q-75 45 -75 101q0 47 40 76t102 29t103 -28.5t41 -75.5q0 -33 -18.5 -55.5t-55.5 -43.5q42 -24 64.5 -50.5t22.5 -63.5zM242 102q0 21 -15.5 34t-38.5 13q-24 0 -38.5 -13
t-14.5 -34t12 -34.5t42 -32.5q28 18 40.5 32.5t12.5 34.5zM242 -111q0 24 -13 40.5t-45 35.5q-32 -18 -46 -34.5t-14 -40.5q0 -22 17.5 -36.5t42.5 -14.5q26 0 42 14t16 36z" />
    <glyph glyph-name="uni2089" unicode="&#x2089;" horiz-adv-x="372" 
d="M340 43q0 -107 -70.5 -177t-182.5 -89l-20 70q113 27 151 101q-18 -6 -39 -6q-69 0 -108.5 34.5t-39.5 92.5q0 60 40 98t113 38q76 0 116 -44t40 -118zM239 49q0 93 -56 93q-50 0 -50 -73q0 -74 69 -74q18 0 33 6q4 20 4 48z" />
    <glyph glyph-name="uni208A" unicode="&#x208a;" horiz-adv-x="368" 
d="M320 -45h-96v-96h-81v96h-95v75h95v95h81v-95h96v-75z" />
    <glyph glyph-name="uni208B" unicode="&#x208b;" horiz-adv-x="368" 
d="M320 -45h-272v75h272v-75z" />
    <glyph glyph-name="uni208C" unicode="&#x208c;" horiz-adv-x="368" 
d="M320 25h-272v75h272v-75zM320 -115h-272v75h272v-75z" />
    <glyph glyph-name="uni208D" unicode="&#x208d;" horiz-adv-x="238" 
d="M227 -276l-52 -39q-141 121 -141 306t141 306l52 -39q-85 -113 -85 -267t85 -267z" />
    <glyph glyph-name="uni208E" unicode="&#x208e;" horiz-adv-x="238" 
d="M204 -9q0 -185 -141 -306l-52 39q85 113 85 267t-85 267l52 39q141 -121 141 -306z" />
    <glyph glyph-name="Euro" unicode="&#x20ac;" horiz-adv-x="654" 
d="M612 29q-58 -41 -158 -41q-124 0 -198 69t-97 184h-104v65h95q-1 12 -1 38q0 17 2 49h-96v65h107q26 109 100.5 175.5t191.5 66.5q101 0 158 -40l-34 -94q-37 22 -94 22q-121 0 -160 -130h212v-65h-224q-3 -24 -3 -47q0 -14 2 -40h225v-65h-213q39 -133 161 -133
q54 0 92 21z" />
    <glyph glyph-name="uni20B4" unicode="&#x20b4;" 
d="M520 241h-258q-18 -26 -18 -59t24 -54.5t60 -21.5q56 0 109 32l37 -109q-65 -40 -167 -40q-95 0 -154 52.5t-59 140.5q0 34 7 59h-57v65h88q28 37 102 87h-190v65h265q16 24 16 54q0 36 -24.5 56t-63.5 20q-57 0 -104 -29l-34 100q65 40 158 40q97 0 154.5 -50.5
t57.5 -137.5q0 -29 -6 -53h57v-65h-86q-26 -37 -97 -87h183v-65z" />
    <glyph glyph-name="afii61289" unicode="&#x2113;" horiz-adv-x="332" 
d="M301 7q-28 -15 -79 -15q-77 0 -118.5 41.5t-41.5 118.5v633h156v-633q0 -55 51 -55q19 0 32 6v-96z" />
    <glyph glyph-name="afii61352" unicode="&#x2116;" horiz-adv-x="995" 
d="M953 344q0 -83 -42.5 -136.5t-119.5 -53.5t-119.5 53.5t-42.5 136.5q0 82 43 136t119 54t119 -54t43 -136zM943 0h-304v87h304v-87zM559 0h-126l-202 387q-19 36 -33 73h-2q3 -36 3 -81v-379h-134v688h143l186 -355q17 -34 31 -73h2q-3 32 -3 80v348h135v-688zM847 346
q0 117 -56 117t-56 -117t56 -117t56 117z" />
    <glyph glyph-name="uni2117" unicode="&#x2117;" horiz-adv-x="806" 
d="M761 344q0 -147 -105 -251.5t-253 -104.5t-253 104.5t-105 251.5t105 251.5t253 104.5t253 -104.5t105 -251.5zM676 345q0 118 -79.5 201.5t-193.5 83.5t-193.5 -83.5t-79.5 -201.5t79.5 -201.5t193.5 -83.5t193.5 83.5t79.5 201.5zM549 425q0 -53 -34.5 -86.5
t-102.5 -33.5q-17 0 -37 2v-149h-80v364q46 22 111 22q73 0 108 -32t35 -87zM470 426q0 71 -66 71q-15 0 -29 -4v-138q7 -1 24 -1q71 0 71 72z" />
    <glyph glyph-name="trademark" unicode="&#x2122;" horiz-adv-x="804" 
d="M760 288h-97l-18 224q-2 28 -2 47h-2q-4 -23 -11 -47l-70 -224h-52l-68 224q-5 18 -12 47h-2q0 -19 -2 -47l-21 -224h-87l45 400h101l64 -216q7 -24 11 -50h2q3 21 11 50l65 216h100zM297 618h-82v-330h-103v330h-82v70h267v-70z" />
    <glyph glyph-name="Omega" unicode="&#x2126;" horiz-adv-x="638" 
d="M596 0h-244v108q81 114 81 276q0 86 -29 146t-85 60t-84.5 -59.5t-28.5 -146.5q0 -162 81 -276v-108h-245v109h113q-111 137 -111 287q0 127 71.5 215t203.5 88t204 -88t72 -215q0 -149 -112 -287h113v-109z" />
    <glyph glyph-name="estimated" unicode="&#x212e;" horiz-adv-x="878" 
d="M838 330h-633q5 -150 80 -224t184 -74q88 0 168.5 44.5t119.5 118.5l36 -23q-47 -84 -137 -134t-217 -50q-96 0 -174 30.5t-126 81.5t-73.5 113.5t-25.5 130.5t25.5 130.5t73.5 113.5t126 81.5t174 30.5t174 -30.5t126 -81.5t73.5 -113.5t25.5 -130.5v-14zM672 371
q-8 138 -76 214.5t-157 76.5t-157 -76.5t-76 -214.5h466z" />
    <glyph glyph-name="uni2150" unicode="&#x2150;" horiz-adv-x="878" 
d="M840 412l-55 -127q-79 -183 -102 -285h-128l156 330h-172v82h301zM603 671l-304 -690l-79 37l304 689zM279 276h-113v307q-35 -14 -100 -18l-14 61q107 11 145 62h82v-412z" />
    <glyph glyph-name="uni2151" unicode="&#x2151;" horiz-adv-x="878" 
d="M834 258q0 -107 -70.5 -177t-182.5 -89l-21 70q114 27 152 101q-18 -6 -39 -6q-69 0 -109 34.5t-40 92.5q0 59 40.5 97.5t113.5 38.5q76 0 116 -44t40 -118zM610 671l-303 -690l-79 37l303 689zM279 276h-113v307q-35 -14 -100 -18l-14 61q107 11 145 62h82v-412z
M733 264q0 93 -56 93q-50 0 -50 -73q0 -74 69 -74q17 0 32 6q5 25 5 48z" />
    <glyph glyph-name="uni2152" unicode="&#x2152;" horiz-adv-x="1190" 
d="M1146 206q0 -92 -38.5 -153t-116.5 -61t-117 61t-39 153t39 153t117 61t116.5 -61t38.5 -153zM757 0h-113v307q-35 -14 -100 -18l-14 61q108 11 146 62h81v-412zM611 671l-303 -690l-79 37l303 689zM279 276h-113v307q-35 -14 -100 -18l-14 61q107 11 145 62h82v-412z
M1042 208q0 147 -51 147t-51 -147t51 -147t51 147z" />
    <glyph glyph-name="onethird" unicode="&#x2153;" horiz-adv-x="878" 
d="M832 125q0 -59 -47 -96t-123 -37q-78 0 -131 24l27 70q34 -18 86 -18q35 0 55 15.5t20 42.5q0 62 -98 62h-9v53q46 4 71.5 20.5t25.5 42.5q0 43 -60 43q-43 0 -81 -16l-24 65q56 24 124 24q69 0 108 -27t39 -75q0 -29 -19.5 -51t-48.5 -34v-2q85 -29 85 -106zM609 671
l-304 -690l-79 37l304 689zM279 276h-113v307q-35 -14 -100 -18l-14 61q107 11 145 62h82v-412z" />
    <glyph glyph-name="twothirds" unicode="&#x2154;" horiz-adv-x="878" 
d="M832 125q0 -59 -47 -96t-123 -37q-78 0 -131 24l27 70q34 -18 86 -18q35 0 55 15.5t20 42.5q0 62 -98 62h-9v53q46 4 71.5 20.5t25.5 42.5q0 43 -60 43q-40 0 -78 -16l-23 65q56 24 120 24q69 0 108 -27t39 -75q0 -29 -19.5 -51t-48.5 -34v-2q85 -29 85 -106zM628 671
l-303 -690l-79 37l303 689zM316 276h-299l155 217q28 39 28 73q0 56 -68 56q-36 0 -76 -17l-25 66q55 25 125 25q79 0 118.5 -32t39.5 -85q0 -46 -59 -118l-84 -103h145v-82z" />
    <glyph glyph-name="uni2155" unicode="&#x2155;" horiz-adv-x="878" 
d="M832 124q0 -57 -47 -94.5t-123 -37.5q-83 0 -132 23l29 71q36 -19 86 -19q35 0 54.5 16.5t19.5 41.5q0 64 -100 64q-25 0 -65 -5l27 228h230v-81h-154l-10 -84q9 1 17 1q84 0 126 -33.5t42 -90.5zM620 671l-304 -690l-79 37l304 689zM279 276h-113v307q-35 -14 -100 -18
l-14 61q107 11 145 62h82v-412z" />
    <glyph glyph-name="uni2156" unicode="&#x2156;" horiz-adv-x="878" 
d="M832 124q0 -57 -47 -94.5t-123 -37.5q-83 0 -132 23l29 71q36 -19 86 -19q35 0 54.5 16.5t19.5 41.5q0 64 -100 64q-25 0 -65 -5l27 228h230v-81h-154l-10 -84q11 1 17 1q84 0 126 -33.5t42 -90.5zM639 671l-304 -690l-79 37l304 689zM317 276h-300l156 217q28 39 28 73
q0 56 -68 56q-37 0 -77 -17l-25 66q55 25 126 25q79 0 118.5 -32t39.5 -85q0 -47 -58 -118l-85 -103h145v-82z" />
    <glyph glyph-name="uni2157" unicode="&#x2157;" horiz-adv-x="878" 
d="M832 124q0 -57 -47 -94.5t-123 -37.5q-83 0 -132 23l29 71q36 -19 86 -19q35 0 54.5 16.5t19.5 41.5q0 64 -100 64q-25 0 -65 -5l27 228h230v-81h-154l-10 -84q11 1 17 1q84 0 126 -33.5t42 -90.5zM625 671l-304 -690l-79 37l304 689zM327 401q0 -59 -47 -96t-123 -37
q-78 0 -131 24l27 70q34 -18 86 -18q35 0 55 15.5t20 42.5q0 62 -98 62h-8v53q96 9 96 63q0 43 -59 43q-44 0 -82 -16l-24 65q56 24 124 24q69 0 108 -27t39 -75q0 -57 -67 -85v-2q84 -29 84 -106z" />
    <glyph glyph-name="uni2158" unicode="&#x2158;" horiz-adv-x="878" 
d="M832 124q0 -57 -47 -94.5t-123 -37.5q-83 0 -132 23l29 71q36 -19 86 -19q35 0 54.5 16.5t19.5 41.5q0 64 -100 64q-25 0 -65 -5l27 228h230v-81h-154l-10 -84q12 1 17 1q84 0 126 -33.5t42 -90.5zM637 671l-304 -690l-79 37l304 689zM341 356h-36v-80h-101v80h-175v58
l171 274h105v-275h36v-57zM207 597h-2q-13 -30 -30 -59l-74 -125h103v122q0 26 3 62z" />
    <glyph glyph-name="uni2159" unicode="&#x2159;" horiz-adv-x="878" 
d="M831 128q0 -59 -40.5 -97.5t-113.5 -38.5q-76 0 -116 44t-40 118q0 107 70.5 177t182.5 89l21 -70q-112 -24 -152 -101q18 6 40 6q69 0 108.5 -34.5t39.5 -92.5zM627 671l-304 -690l-79 37l304 689zM279 276h-113v307q-35 -14 -100 -18l-14 61q107 11 145 62h82v-412z
M729 130q0 73 -70 73q-19 0 -32 -5q-5 -25 -5 -48q0 -93 56 -93q25 0 38 20.5t13 52.5z" />
    <glyph glyph-name="uni215A" unicode="&#x215a;" horiz-adv-x="878" 
d="M831 128q0 -59 -40.5 -97.5t-113.5 -38.5q-76 0 -116 44t-40 118q0 107 70.5 177t182.5 89l21 -70q-112 -24 -152 -101q18 6 40 6q69 0 108.5 -34.5t39.5 -92.5zM637 671l-304 -690l-79 37l304 689zM328 400q0 -57 -46.5 -94.5t-122.5 -37.5q-84 0 -133 23l30 71
q36 -19 85 -19q35 0 54.5 16.5t19.5 41.5q0 64 -99 64q-26 0 -66 -5l27 228h231v-81h-155l-10 -84q11 1 17 1q84 0 126 -33.5t42 -90.5zM729 130q0 73 -70 73q-19 0 -32 -5q-5 -25 -5 -48q0 -93 56 -93q25 0 38 20.5t13 52.5z" />
    <glyph glyph-name="oneeighth" unicode="&#x215b;" horiz-adv-x="878" 
d="M834 103q0 -51 -43 -81t-113 -30q-68 0 -111.5 29.5t-43.5 81.5q0 38 22 62.5t66 48.5q-75 45 -75 101q0 47 40 76t102 29t102.5 -28.5t40.5 -75.5q0 -33 -18.5 -55.5t-55.5 -43.5q42 -24 64.5 -50.5t22.5 -63.5zM613 671l-304 -690l-79 37l304 689zM279 276h-113v307
q-35 -14 -100 -18l-14 61q107 11 145 62h82v-412zM734 317q0 21 -15 34t-38 13q-24 0 -38.5 -13t-14.5 -34t12 -34.5t42 -32.5q28 17 40 32t12 35zM734 104q0 25 -13 41t-44 35q-32 -18 -46 -34.5t-14 -40.5q0 -22 17.5 -36.5t42.5 -14.5q26 0 41.5 14t15.5 36z" />
    <glyph glyph-name="threeeighths" unicode="&#x215c;" horiz-adv-x="878" 
d="M834 103q0 -51 -43 -81t-113 -30q-68 0 -111.5 29.5t-43.5 81.5q0 38 22 62.5t66 48.5q-75 45 -75 101q0 47 40 76t102 29t102.5 -28.5t40.5 -75.5q0 -33 -18.5 -55.5t-55.5 -43.5q42 -24 64.5 -50.5t22.5 -63.5zM619 671l-304 -690l-79 37l304 689zM327 401
q0 -59 -47 -96t-123 -37q-78 0 -131 24l27 70q34 -18 86 -18q35 0 55 15.5t20 42.5q0 62 -98 62h-8v53q96 9 96 63q0 43 -59 43q-44 0 -82 -16l-24 65q56 24 124 24q69 0 108 -27t39 -75q0 -57 -67 -85v-2q84 -29 84 -106zM734 317q0 21 -15 34t-38 13q-24 0 -38.5 -13
t-14.5 -34t12 -34.5t42 -32.5q28 17 40 32t12 35zM734 104q0 25 -13 41t-44 35q-32 -18 -46 -34.5t-14 -40.5q0 -22 17.5 -36.5t42.5 -14.5q26 0 41.5 14t15.5 36z" />
    <glyph glyph-name="fiveeighths" unicode="&#x215d;" horiz-adv-x="878" 
d="M834 103q0 -51 -43 -81t-113 -30q-68 0 -111.5 29.5t-43.5 81.5q0 38 22 62.5t66 48.5q-75 45 -75 101q0 47 40 76t102 29t102.5 -28.5t40.5 -75.5q0 -33 -18.5 -55.5t-55.5 -43.5q42 -24 64.5 -50.5t22.5 -63.5zM620 671l-304 -690l-79 37l304 689zM328 400
q0 -57 -46.5 -94.5t-122.5 -37.5q-84 0 -133 23l30 71q36 -19 85 -19q35 0 54.5 16.5t19.5 41.5q0 64 -99 64q-26 0 -66 -5l27 228h231v-81h-155l-10 -84q12 1 17 1q84 0 126 -33.5t42 -90.5zM734 317q0 21 -15 34t-38 13q-24 0 -38.5 -13t-14.5 -34t12 -34.5t42 -32.5
q28 17 40 32t12 35zM734 104q0 25 -13 41t-44 35q-32 -18 -46 -34.5t-14 -40.5q0 -22 17.5 -36.5t42.5 -14.5q26 0 41.5 14t15.5 36z" />
    <glyph glyph-name="seveneighths" unicode="&#x215e;" horiz-adv-x="878" 
d="M834 103q0 -51 -43 -81t-113 -30q-68 0 -111.5 29.5t-43.5 81.5q0 38 22 62.5t66 48.5q-75 45 -75 101q0 47 40 76t102 29t102.5 -28.5t40.5 -75.5q0 -33 -18.5 -55.5t-55.5 -43.5q42 -24 64.5 -50.5t22.5 -63.5zM588 671l-304 -690l-79 37l304 689zM359 688l-55 -127
q-79 -183 -102 -285h-128l156 330h-183v82h312zM734 317q0 21 -15 34t-38 13q-24 0 -38.5 -13t-14.5 -34t12 -34.5t42 -32.5q28 17 40 32t12 35zM734 104q0 25 -13 41t-44 35q-32 -18 -46 -34.5t-14 -40.5q0 -22 17.5 -36.5t42.5 -14.5q26 0 41.5 14t15.5 36z" />
    <glyph glyph-name="uni215F" unicode="&#x215f;" horiz-adv-x="491" 
d="M613 671l-303 -690l-79 37l303 689zM279 276h-113v307q-35 -14 -100 -18l-14 61q107 11 145 62h82v-412z" />
    <glyph glyph-name="uni2189" unicode="&#x2189;" horiz-adv-x="878" 
d="M838 125q0 -59 -47 -96t-123 -37q-78 0 -131 24l27 70q34 -18 86 -18q35 0 55 15.5t20 42.5q0 62 -98 62h-9v53q46 4 71.5 20.5t25.5 42.5q0 43 -60 43q-41 0 -76 -15l-23 65q54 23 118 23q69 0 108 -27t39 -75q0 -29 -19.5 -51t-48.5 -34v-2q85 -29 85 -106zM631 671
l-303 -690l-79 37l303 689zM351 482q0 -92 -39 -153t-117 -61t-116.5 61t-38.5 153t38.5 153t116.5 61t117 -61t39 -153zM246 484q0 147 -51 147t-51 -147t51 -147t51 147z" />
    <glyph glyph-name="arrowleft" unicode="&#x2190;" horiz-adv-x="940" 
d="M944 272h-684l162 -162l-76 -75l-290 290l290 290l76 -74l-162 -163h684v-106z" />
    <glyph glyph-name="arrowup" unicode="&#x2191;" horiz-adv-x="704" 
d="M648 499l-73 -73l-166 165v-591h-114v591l-166 -165l-73 73l296 296z" />
    <glyph glyph-name="arrowright" unicode="&#x2192;" horiz-adv-x="940" 
d="M884 325l-290 -290l-76 75l162 162h-684v106h684l-162 163l76 74z" />
    <glyph glyph-name="arrowdown" unicode="&#x2193;" horiz-adv-x="704" 
d="M648 286l-296 -296l-296 296l73 73l166 -165v591h114v-591l166 165z" />
    <glyph glyph-name="arrowboth" unicode="&#x2194;" horiz-adv-x="1200" 
d="M1144 325l-290 -290l-76 75l162 162h-680l162 -162l-76 -75l-290 290l290 290l76 -74l-162 -163h680l-162 163l76 74z" />
    <glyph glyph-name="uni2196" unicode="&#x2196;" horiz-adv-x="704" 
d="M664 175l-81 -82l-406 406v-231h-107v420h405v-100h-224z" />
    <glyph glyph-name="uni2197" unicode="&#x2197;" horiz-adv-x="704" 
d="M634 268h-107v231l-406 -406l-81 82l413 413h-224v100h405v-420z" />
    <glyph glyph-name="uni2198" unicode="&#x2198;" horiz-adv-x="704" 
d="M634 0h-405v100h224l-413 413l81 82l406 -406v231h107v-420z" />
    <glyph glyph-name="uni2199" unicode="&#x2199;" horiz-adv-x="704" 
d="M664 513l-413 -413h224v-100h-405v420h107v-231l406 406z" />
    <glyph glyph-name="carriagereturn" unicode="&#x21b5;" horiz-adv-x="940" 
d="M868 0h-612l150 -150l-76 -75l-278 278l278 278l76 -75l-150 -150h495v220h-157v106h274v-432z" />
    <glyph glyph-name="uni21E6" unicode="&#x21e6;" horiz-adv-x="870" 
d="M802 146l-367 39v-185h-73l-344 344l344 344h73v-185l367 39v-396zM707 252v184l-361 -34v134l-193 -192l193 -192v134z" />
    <glyph glyph-name="uni21E7" unicode="&#x21e7;" horiz-adv-x="778" 
d="M734 366h-183l44 -366h-412l44 366h-183v73l345 345l345 -345v-73zM586 452l-197 197l-197 -197h139l-33 -361h182l-33 361h139z" />
    <glyph glyph-name="uni21E8" unicode="&#x21e8;" horiz-adv-x="870" 
d="M852 344l-344 -344h-73v185l-367 -39v396l367 -39v185h73zM717 344l-193 192v-134l-361 34v-184l361 34v-134z" />
    <glyph glyph-name="uni21E9" unicode="&#x21e9;" horiz-adv-x="778" 
d="M734 249l-345 -345l-345 345v73h183l-44 366h412l-44 -366h183v-73zM586 236h-139l33 361h-182l33 -361h-139l197 -197z" />
    <glyph glyph-name="partialdiff" unicode="&#x2202;" 
d="M518 257q0 -122 -62 -195t-177 -73q-112 0 -173.5 63.5t-61.5 161.5q0 95 61.5 151.5t168.5 56.5q33 0 66 -10q-64 137 -242 182l30 104q174 -33 282 -149t108 -292zM372 251q0 47 -8 82q-30 10 -57 10q-116 0 -116 -127q0 -56 22 -91t64 -35q47 0 71 42.5t24 118.5z" />
    <glyph glyph-name="Delta" unicode="&#x2206;" horiz-adv-x="624" 
d="M620 0h-616l224 688h169zM428 95l-102 375q-12 44 -18 89h-2q-6 -51 -17 -89l-107 -375h246z" />
    <glyph glyph-name="product" unicode="&#x220f;" horiz-adv-x="746" 
d="M704 579h-82v-794h-162v794h-174v-794h-162v794h-82v109h662v-109z" />
    <glyph glyph-name="summation" unicode="&#x2211;" 
d="M518 -215h-483l238 471l-233 432h472v-118h-245l173 -314l-181 -348h259v-123z" />
    <glyph glyph-name="minus" unicode="&#x2212;" horiz-adv-x="532" 
d="M478 272h-424v106h424v-106z" />
    <glyph glyph-name="uni2219" unicode="&#x2219;" horiz-adv-x="532" 
d="M408 363q0 -59 -41.5 -100.5t-100.5 -41.5t-100.5 41.5t-41.5 100.5t41.5 100.5t100.5 41.5t100.5 -41.5t41.5 -100.5z" />
    <glyph glyph-name="radical" unicode="&#x221a;" 
d="M550 785l-182 -785h-140l-129 406h-81v93h194l80 -315h2l119 601h137z" />
    <glyph glyph-name="infinity" unicode="&#x221e;" horiz-adv-x="750" 
d="M704 341q0 -82 -45 -136.5t-119 -54.5q-96 0 -166 107q-37 -55 -72.5 -81t-88.5 -26q-75 0 -121 53.5t-46 137.5q0 81 46 136t121 55q52 0 87.5 -27.5t74.5 -81.5q35 53 72 81t91 28q75 0 120.5 -55t45.5 -136zM613 342q0 37 -20.5 61t-54.5 24q-31 0 -54 -20t-50 -63
q29 -45 51 -64.5t53 -19.5q34 0 54.5 22.5t20.5 59.5zM314 336q-28 44 -50.5 64.5t-52.5 20.5q-34 0 -54.5 -23.5t-20.5 -60.5q0 -36 20.5 -59.5t54.5 -23.5q31 0 53 19.5t50 62.5z" />
    <glyph glyph-name="integral" unicode="&#x222b;" horiz-adv-x="422" 
d="M394 778l-18 -98q-16 5 -39 5q-77 0 -77 -93v-604q0 -100 -54 -154t-147 -54q-51 0 -87 13l18 102q16 -5 39 -5q76 0 76 93v600q0 99 54.5 153t147.5 54q54 0 87 -12z" />
    <glyph glyph-name="approxequal" unicode="&#x2248;" horiz-adv-x="532" 
d="M478 396q-42 -46 -115 -46q-35 0 -97 28.5t-97 28.5q-73 0 -115 -46v110q41 43 115 43q35 0 97.5 -29t96.5 -29q74 0 115 49v-109zM478 182q-42 -46 -115 -46q-35 0 -97 29t-97 29q-72 0 -115 -47v110q42 44 115 44q35 0 97.5 -29t96.5 -29q75 0 115 48v-109z" />
    <glyph glyph-name="notequal" unicode="&#x2260;" horiz-adv-x="532" 
d="M478 166h-241l-49 -119l-65 29l38 90h-107v106h151l45 107h-196v106h241l47 114l64 -29l-35 -85h107v-106h-151l-46 -107h197v-106z" />
    <glyph glyph-name="lessequal" unicode="&#x2264;" horiz-adv-x="532" 
d="M478 160l-424 163v87l424 162v-108l-289 -97v-2l289 -97v-108zM478 0h-424v97h424v-97z" />
    <glyph glyph-name="greaterequal" unicode="&#x2265;" horiz-adv-x="532" 
d="M478 323l-424 -163v108l289 97v2l-289 97v108l424 -162v-87zM478 0h-424v97h424v-97z" />
    <glyph glyph-name="dotmath" unicode="&#x22c5;" horiz-adv-x="532" 
d="M355 326q0 -37 -26 -63t-63 -26t-63 26t-26 63t26 63t63 26t63 -26t26 -63z" />
    <glyph glyph-name="uni2300" unicode="&#x2300;" horiz-adv-x="850" 
d="M812 655l-100 -99q73 -96 73 -212q0 -147 -105.5 -251t-254.5 -104q-118 0 -211 68l-99 -100l-77 77l99 99q-72 94 -72 211q0 147 105.5 251t254.5 104q115 0 210 -69l101 101zM557 552q-59 43 -132 43q-102 0 -174 -73.5t-72 -177.5q0 -72 39 -130zM671 344
q0 72 -39 130l-339 -339q58 -42 132 -42q102 0 174 73.5t72 177.5z" />
    <glyph glyph-name="uni2318" unicode="&#x2318;" horiz-adv-x="860" 
d="M804 129q0 -60 -44 -100t-108 -40q-79 0 -120.5 42t-41.5 119v57h-120v-57q0 -77 -41.5 -119t-120.5 -42q-64 0 -108 40t-44 100q0 69 46.5 107.5t129.5 38.5h46v138h-46q-83 0 -129.5 38.5t-46.5 107.5q0 60 44 100t108 40q79 0 120.5 -42t41.5 -119v-57h120v57
q0 77 41.5 119t120.5 42q64 0 108 -40t44 -100q0 -69 -46.5 -107.5t-129.5 -38.5h-46v-138h46q83 0 129.5 -38.5t46.5 -107.5zM712 559q0 30 -17.5 51t-44.5 21q-68 0 -68 -93v-57h49q81 0 81 78zM712 129q0 78 -81 78h-49v-57q0 -93 68 -93q27 0 44.5 21t17.5 51zM490 275
v138h-120v-138h120zM278 481v57q0 93 -68 93q-27 0 -44.5 -21t-17.5 -51q0 -78 81 -78h49zM278 150v57h-49q-81 0 -81 -78q0 -30 17.5 -51t44.5 -21q68 0 68 93z" />
    <glyph glyph-name="uni2324" unicode="&#x2324;" horiz-adv-x="800" 
d="M732 583h-664v105h664v-105zM688 294l-77 -77l-211 211l-211 -211l-77 77l288 288z" />
    <glyph glyph-name="uni2325" unicode="&#x2325;" horiz-adv-x="860" 
d="M802 326h-359v106h359v-106zM802 0h-431l-148 326h-165v106h246l148 -326h350v-106z" />
    <glyph glyph-name="uni2326" unicode="&#x2326;" horiz-adv-x="1140" 
d="M1092 344l-344 -344h-676v688h676zM956 344l-254 254h-528v-508h528zM684 209l-66 -67l-136 137l-137 -137l-66 67l137 136l-137 136l66 66l137 -137l136 137l66 -66l-136 -136z" />
    <glyph glyph-name="uni232B" unicode="&#x232b;" horiz-adv-x="1140" 
d="M1068 0h-676l-344 344l344 344h676v-688zM966 90v508h-528l-254 -254l254 -254h528zM861 209l-66 -67l-137 137l-136 -137l-66 67l136 136l-136 136l66 66l136 -137l137 137l66 -66l-137 -136z" />
    <glyph glyph-name="uni2460" unicode="&#x2460;" horiz-adv-x="898" 
d="M851 392q0 -166 -117.5 -284t-284.5 -118t-284.5 118t-117.5 284t117.5 284t284.5 118t284.5 -118t117.5 -284zM770 393q0 138 -94 236t-227 98t-227 -98t-94 -236t94 -236t227 -98t227 98t94 236zM519 192h-100v309q-33 -14 -96 -18l-13 59q101 11 137 62h72v-412z" />
    <glyph glyph-name="uni2461" unicode="&#x2461;" horiz-adv-x="898" 
d="M851 392q0 -166 -117.5 -284t-284.5 -118t-284.5 118t-117.5 284t117.5 284t284.5 118t284.5 -118t117.5 -284zM770 393q0 138 -94 236t-227 98t-227 -98t-94 -236t94 -236t227 -98t227 98t94 236zM588 192h-281l148 216q28 41 28 76q0 55 -66 55q-37 0 -73 -16l-23 63
q50 25 118 25q74 0 110.5 -32t36.5 -85q0 -47 -55 -118l-80 -102h137v-82z" />
    <glyph glyph-name="uni2462" unicode="&#x2462;" horiz-adv-x="898" 
d="M851 392q0 -166 -117.5 -284t-284.5 -118t-284.5 118t-117.5 284t117.5 284t284.5 118t284.5 -118t117.5 -284zM770 393q0 138 -94 236t-227 98t-227 -98t-94 -236t94 -236t227 -98t227 98t94 236zM605 317q0 -59 -44 -95.5t-115 -36.5q-75 0 -123 24l27 67
q33 -18 80 -18q33 0 52 16t19 44q0 62 -92 62h-8v53q43 4 67 21t24 43q0 44 -57 44q-41 0 -76 -16l-24 62q53 24 117 24q63 0 100 -27t37 -75q0 -56 -64 -84v-2q80 -29 80 -106z" />
    <glyph glyph-name="uni2463" unicode="&#x2463;" horiz-adv-x="898" 
d="M851 392q0 -166 -117.5 -284t-284.5 -118t-284.5 118t-117.5 284t117.5 284t284.5 118t284.5 -118t117.5 -284zM770 393q0 138 -94 236t-227 98t-227 -98t-94 -236t94 -236t227 -98t227 98t94 236zM585 272h-43v-80h-93v80h-164v58l160 274h97v-278h43v-54zM452 513h-2
q-11 -28 -28 -59l-73 -128h100v125q0 26 3 62z" />
    <glyph glyph-name="uni2464" unicode="&#x2464;" horiz-adv-x="898" 
d="M851 392q0 -166 -117.5 -284t-284.5 -118t-284.5 118t-117.5 284t117.5 284t284.5 118t284.5 -118t117.5 -284zM770 393q0 138 -94 236t-227 98t-227 -98t-94 -236t94 -236t227 -98t227 98t94 236zM594 317q0 -57 -44 -94.5t-115 -37.5q-77 0 -123 23l27 68
q33 -18 80 -18q33 0 52 16.5t19 42.5q0 67 -95 67q-23 0 -61 -5l26 225h215v-81h-146l-9 -83h16q79 0 118.5 -33.5t39.5 -89.5z" />
    <glyph glyph-name="uni2465" unicode="&#x2465;" horiz-adv-x="898" 
d="M851 392q0 -166 -117.5 -284t-284.5 -118t-284.5 118t-117.5 284t117.5 284t284.5 118t284.5 -118t117.5 -284zM770 393q0 138 -94 236t-227 98t-227 -98t-94 -236t94 -236t227 -98t227 98t94 236zM590 321q0 -59 -37.5 -97.5t-105.5 -38.5q-71 0 -108 44t-37 117
q0 106 65.5 176t169.5 89l20 -67q-106 -26 -144 -104q17 6 38 6q64 0 101.5 -34t37.5 -91zM496 322q0 73 -66 73q-20 0 -32 -5q-4 -20 -4 -47q0 -94 54 -94q24 0 36 20.5t12 52.5z" />
    <glyph glyph-name="uni2466" unicode="&#x2466;" horiz-adv-x="898" 
d="M851 392q0 -166 -117.5 -284t-284.5 -118t-284.5 118t-117.5 284t117.5 284t284.5 118t284.5 -118t117.5 -284zM770 393q0 138 -94 236t-227 98t-227 -98t-94 -236t94 -236t227 -98t227 98t94 236zM602 604l-52 -127q-75 -182 -97 -285h-120l150 331h-169v81h288z" />
    <glyph glyph-name="uni2467" unicode="&#x2467;" horiz-adv-x="898" 
d="M851 392q0 -166 -117.5 -284t-284.5 -118t-284.5 118t-117.5 284t117.5 284t284.5 118t284.5 -118t117.5 -284zM770 393q0 138 -94 236t-227 98t-227 -98t-94 -236t94 -236t227 -98t227 98t94 236zM594 296q0 -50 -40 -80.5t-105 -30.5q-63 0 -103.5 29t-40.5 81
q0 38 20.5 62.5t61.5 48.5q-70 44 -70 100q0 47 37 76t95 29t95.5 -28.5t37.5 -75.5q0 -56 -69 -98q39 -24 60 -50t21 -63zM503 508q0 21 -14.5 34t-36.5 13q-23 0 -37 -12.5t-14 -33.5q0 -20 11.5 -34t40.5 -33q27 18 38.5 32t11.5 34zM503 296q0 24 -12.5 40.5t-42.5 35.5
q-31 -18 -44 -34t-13 -40q0 -22 17 -37t41 -15t39 14t15 36z" />
    <glyph glyph-name="uni2468" unicode="&#x2468;" horiz-adv-x="898" 
d="M851 392q0 -166 -117.5 -284t-284.5 -118t-284.5 118t-117.5 284t117.5 284t284.5 118t284.5 -118t117.5 -284zM770 393q0 138 -94 236t-227 98t-227 -98t-94 -236t94 -236t227 -98t227 98t94 236zM596 450q0 -106 -66 -176t-170 -89l-19 67q105 26 143 104
q-16 -6 -38 -6q-64 0 -101 34t-37 91q0 59 37.5 97.5t105.5 38.5q71 0 108 -44t37 -117zM504 455q0 93 -54 93q-24 0 -36.5 -20.5t-12.5 -52.5q0 -73 67 -73q16 0 31 6q5 25 5 47z" />
    <glyph glyph-name="uni2469" unicode="&#x2469;" horiz-adv-x="1178" 
d="M1131 392q0 -166 -117.5 -284t-284.5 -118h-280q-167 0 -284.5 118t-117.5 284t117.5 284t284.5 118h280q167 0 284.5 -118t117.5 -284zM1050 393q0 138 -94 236t-227 98h-280q-133 0 -227 -98t-94 -236t94 -236t227 -98h280q133 0 227 98t94 236zM881 398
q0 -92 -36 -152.5t-108 -60.5t-108 60.5t-36 152.5t36 152.5t108 60.5t108 -60.5t36 -152.5zM501 192h-100v309q-33 -14 -96 -18l-13 59q101 11 137 62h72v-412zM785 400q0 147 -48 147q-49 0 -49 -147t49 -147q48 0 48 147z" />
    <glyph glyph-name="uni246A" unicode="&#x246a;" horiz-adv-x="1178" 
d="M1131 392q0 -166 -117.5 -284t-284.5 -118h-280q-167 0 -284.5 118t-117.5 284t117.5 284t284.5 118h280q167 0 284.5 -118t117.5 -284zM1050 393q0 138 -94 236t-227 98h-280q-133 0 -227 -98t-94 -236t94 -236t227 -98h280q133 0 227 98t94 236zM808 192h-101v309
q-33 -14 -96 -18l-12 59q101 11 137 62h72v-412zM520 192h-100v309q-33 -14 -96 -18l-13 59q101 11 137 62h72v-412z" />
    <glyph glyph-name="uni246B" unicode="&#x246b;" horiz-adv-x="1178" 
d="M1131 392q0 -166 -117.5 -284t-284.5 -118h-280q-167 0 -284.5 118t-117.5 284t117.5 284t284.5 118h280q167 0 284.5 -118t117.5 -284zM1050 393q0 138 -94 236t-227 98h-280q-133 0 -227 -98t-94 -236t94 -236t227 -98h280q133 0 227 98t94 236zM856 192h-281l147 216
q28 41 28 76q0 55 -65 55q-37 0 -73 -16l-24 63q50 25 118 25q74 0 110.5 -32t36.5 -85q0 -49 -55 -118l-80 -102h138v-82zM504 192h-100v309q-33 -14 -96 -18l-12 59q101 11 137 62h71v-412z" />
    <glyph glyph-name="uni246C" unicode="&#x246c;" horiz-adv-x="1178" 
d="M1131 392q0 -166 -117.5 -284t-284.5 -118h-280q-167 0 -284.5 118t-117.5 284t117.5 284t284.5 118h280q167 0 284.5 -118t117.5 -284zM1050 393q0 138 -94 236t-227 98h-280q-133 0 -227 -98t-94 -236t94 -236t227 -98h280q133 0 227 98t94 236zM860 317
q0 -59 -44 -95.5t-115 -36.5q-75 0 -123 24l27 67q33 -18 80 -18q33 0 52 16t19 44q0 62 -92 62h-8v53q43 4 67 21t24 43q0 44 -57 44q-41 0 -76 -16l-24 62q53 24 117 24q63 0 100 -27t37 -75q0 -56 -64 -84v-2q80 -29 80 -106zM504 192h-100v309q-33 -14 -96 -18l-12 59
q101 11 137 62h71v-412z" />
    <glyph glyph-name="uni246D" unicode="&#x246d;" horiz-adv-x="1178" 
d="M1131 392q0 -166 -117.5 -284t-284.5 -118h-280q-167 0 -284.5 118t-117.5 284t117.5 284t284.5 118h280q167 0 284.5 -118t117.5 -284zM1050 393q0 138 -94 236t-227 98h-280q-133 0 -227 -98t-94 -236t94 -236t227 -98h280q133 0 227 98t94 236zM870 272h-37v-80h-93
v80h-164v58l160 274h97v-278h37v-54zM498 192h-100v309q-33 -14 -96 -18l-13 59q101 11 137 62h72v-412zM743 513h-2q-13 -32 -28 -59l-73 -128h101v125q0 22 2 62z" />
    <glyph glyph-name="uni246E" unicode="&#x246e;" horiz-adv-x="1178" 
d="M1131 392q0 -166 -117.5 -284t-284.5 -118h-280q-167 0 -284.5 118t-117.5 284t117.5 284t284.5 118h280q167 0 284.5 -118t117.5 -284zM1050 393q0 138 -94 236t-227 98h-280q-133 0 -227 -98t-94 -236t94 -236t227 -98h280q133 0 227 98t94 236zM855 317
q0 -57 -43.5 -94.5t-114.5 -37.5q-77 0 -123 23l26 68q33 -18 81 -18q33 0 51.5 16.5t18.5 42.5q0 67 -94 67q-23 0 -61 -5l25 225h215v-81h-145l-9 -83h16q79 0 118 -33.5t39 -89.5zM499 192h-100v309q-33 -14 -96 -18l-12 59q101 11 137 62h71v-412z" />
    <glyph glyph-name="uni246F" unicode="&#x246f;" horiz-adv-x="1178" 
d="M1131 392q0 -166 -117.5 -284t-284.5 -118h-280q-167 0 -284.5 118t-117.5 284t117.5 284t284.5 118h280q167 0 284.5 -118t117.5 -284zM1050 393q0 138 -94 236t-227 98h-280q-133 0 -227 -98t-94 -236t94 -236t227 -98h280q133 0 227 98t94 236zM871 321
q0 -59 -37.5 -97.5t-105.5 -38.5q-71 0 -108 44t-37 117q0 106 65.5 176t169.5 89l20 -67q-106 -26 -144 -104q16 6 38 6q64 0 101.5 -34t37.5 -91zM496 192h-100v309q-33 -14 -96 -18l-13 59q101 11 137 62h72v-412zM777 322q0 73 -66 73q-19 0 -32 -5q-4 -20 -4 -47
q0 -94 54 -94q24 0 36 20.5t12 52.5z" />
    <glyph glyph-name="uni2470" unicode="&#x2470;" horiz-adv-x="1178" 
d="M1131 392q0 -166 -117.5 -284t-284.5 -118h-280q-167 0 -284.5 118t-117.5 284t117.5 284t284.5 118h280q167 0 284.5 -118t117.5 -284zM1050 393q0 138 -94 236t-227 98h-280q-133 0 -227 -98t-94 -236t94 -236t227 -98h280q133 0 227 98t94 236zM870 604l-52 -127
q-73 -178 -96 -285h-120l149 331h-173v81h292zM496 192h-101v309q-34 -14 -95 -18l-13 59q101 11 137 62h72v-412z" />
    <glyph glyph-name="uni2471" unicode="&#x2471;" horiz-adv-x="1178" 
d="M1131 392q0 -166 -117.5 -284t-284.5 -118h-280q-167 0 -284.5 118t-117.5 284t117.5 284t284.5 118h280q167 0 284.5 -118t117.5 -284zM1050 393q0 138 -94 236t-227 98h-280q-133 0 -227 -98t-94 -236t94 -236t227 -98h280q133 0 227 98t94 236zM870 296
q0 -50 -40 -80.5t-105 -30.5q-63 0 -103.5 29t-40.5 81q0 38 20.5 62.5t61.5 48.5q-70 44 -70 100q0 47 37 76t95 29t95.5 -28.5t37.5 -75.5q0 -32 -18 -54.5t-52 -43.5q40 -24 61 -50t21 -63zM497 192h-100v309q-33 -14 -96 -18l-12 59q101 11 137 62h71v-412zM779 508
q0 21 -14.5 34t-36.5 13q-23 0 -37 -12.5t-14 -33.5q0 -20 11.5 -34t40.5 -33q27 18 38.5 32t11.5 34zM779 296q0 24 -12.5 40.5t-42.5 35.5q-31 -18 -44 -34t-13 -40q0 -22 16.5 -37t40.5 -15q25 0 40 14t15 36z" />
    <glyph glyph-name="uni2472" unicode="&#x2472;" horiz-adv-x="1178" 
d="M1131 392q0 -166 -117.5 -284t-284.5 -118h-280q-167 0 -284.5 118t-117.5 284t117.5 284t284.5 118h280q167 0 284.5 -118t117.5 -284zM1050 393q0 138 -94 236t-227 98h-280q-133 0 -227 -98t-94 -236t94 -236t227 -98h280q133 0 227 98t94 236zM875 450
q0 -106 -66 -176t-170 -89l-19 67q105 26 143 104q-17 -6 -38 -6q-64 0 -101 34t-37 91q0 59 37.5 97.5t105.5 38.5q71 0 108 -44t37 -117zM501 192h-101v309q-34 -14 -95 -18l-13 59q101 11 137 62h72v-412zM782 455q0 93 -53 93q-24 0 -36.5 -20.5t-12.5 -52.5
q0 -73 66 -73q17 0 32 6q4 20 4 47z" />
    <glyph glyph-name="uni2473" unicode="&#x2473;" horiz-adv-x="1178" 
d="M1131 392q0 -166 -117.5 -284t-284.5 -118h-280q-167 0 -284.5 118t-117.5 284t117.5 284t284.5 118h280q167 0 284.5 -118t117.5 -284zM1050 393q0 138 -94 236t-227 98h-280q-133 0 -227 -98t-94 -236t94 -236t227 -98h280q133 0 227 98t94 236zM908 398
q0 -92 -36 -152.5t-108 -60.5t-108 60.5t-36 152.5t36 152.5t108 60.5t108 -60.5t36 -152.5zM565 192h-275l142 216q28 41 28 76q0 55 -66 55q-37 0 -73 -16l-23 63q50 25 118 25q74 0 110.5 -32t36.5 -85q0 -45 -55 -118l-78 -102h135v-82zM813 400q0 147 -49 147
q-48 0 -48 -147t48 -147q49 0 49 147z" />
    <glyph glyph-name="uni24EA" unicode="&#x24ea;" horiz-adv-x="898" 
d="M851 392q0 -166 -117.5 -284t-284.5 -118t-284.5 118t-117.5 284t117.5 284t284.5 118t284.5 -118t117.5 -284zM770 393q0 138 -94 236t-227 98t-227 -98t-94 -236t94 -236t227 -98t227 98t94 236zM593 398q0 -92 -36 -152.5t-108 -60.5t-108 60.5t-36 152.5t36 152.5
t108 60.5t108 -60.5t36 -152.5zM498 400q0 147 -49 147q-48 0 -48 -147t48 -147q49 0 49 147z" />
    <glyph glyph-name="lozenge" unicode="&#x25ca;" horiz-adv-x="628" 
d="M584 344l-270 -354l-270 354l270 354zM455 344l-141 186l-142 -186l142 -184z" />
    <glyph glyph-name="uni2713" unicode="&#x2713;" horiz-adv-x="740" 
d="M702 634l-364 -649l-300 354l112 98l173 -230l254 492z" />
    <glyph glyph-name="fi" unicode="&#xfb01;" horiz-adv-x="634" 
d="M577 694q0 -31 -25 -52.5t-60 -21.5t-60 21.5t-25 52.5t25 52t60 21t60 -21t25 -52zM571 0h-156v539h156v-539zM330 439h-84v-439h-156v439h-58v100h58v55q0 91 52.5 142t145.5 51q18 0 42 -3v-100q-10 1 -15 1q-69 0 -69 -87v-59h84v-100z" />
    <glyph glyph-name="fl" unicode="&#xfb02;" horiz-adv-x="645" 
d="M583 0h-156v785h156v-785zM330 439h-84v-439h-156v439h-58v100h58v55q0 91 52.5 142t145.5 51q18 0 42 -3v-100q-10 1 -15 1q-69 0 -69 -87v-59h84v-100z" />
    <glyph glyph-name="n.subs" horiz-adv-x="420" 
d="M370 -215h-112v236q0 52 -54 52q-25 0 -43 -7v-281h-111v328q68 27 154 27q166 0 166 -116v-239z" />
    <glyph glyph-name="parenleft.numr" horiz-adv-x="238" 
d="M227 215l-52 -39q-141 121 -141 306t141 306l52 -39q-85 -113 -85 -267t85 -267z" />
    <glyph glyph-name="parenright.numr" horiz-adv-x="238" 
d="M204 482q0 -185 -141 -306l-52 39q85 113 85 267t-85 267l52 39q141 -121 141 -306z" />
    <glyph glyph-name="plus.numr" horiz-adv-x="368" 
d="M320 446h-96v-96h-81v96h-95v75h95v95h81v-95h96v-75z" />
    <glyph glyph-name="zero.numr" horiz-adv-x="372" 
d="M341 482q0 -92 -38.5 -153t-116.5 -61t-116.5 61t-38.5 153t38.5 153t116.5 61t116.5 -61t38.5 -153zM237 484q0 147 -51 147t-51 -147t51 -147t51 147z" />
    <glyph glyph-name="one.numr" horiz-adv-x="372" 
d="M279 276h-113v307q-35 -14 -100 -18l-14 61q107 11 145 62h82v-412z" />
    <glyph glyph-name="two.numr" horiz-adv-x="372" 
d="M320 276h-301l156 217q29 41 29 73q0 56 -68 56q-37 0 -77 -17l-25 66q55 25 126 25q79 0 118 -32t39 -85q0 -47 -58 -118l-84 -103h145v-82z" />
    <glyph glyph-name="three.numr" horiz-adv-x="372" 
d="M328 401q0 -59 -47 -96t-123 -37q-78 0 -131 24l27 70q34 -18 86 -18q35 0 55 15.5t20 42.5q0 62 -98 62h-8v53q96 9 96 63q0 43 -59 43q-44 0 -82 -16l-24 65q56 24 124 24q69 0 108 -27t39 -75q0 -57 -67 -85v-2q84 -29 84 -106z" />
    <glyph glyph-name="four.numr" horiz-adv-x="372" 
d="M340 356h-36v-80h-101v80h-175v58l171 274h105v-275h36v-57zM206 597h-2q-14 -31 -30 -59l-74 -125h103v122q0 31 3 62z" />
    <glyph glyph-name="five.numr" horiz-adv-x="372" 
d="M328 400q0 -57 -47 -94.5t-123 -37.5q-83 0 -132 23l29 71q36 -19 86 -19q35 0 54.5 16.5t19.5 41.5q0 64 -100 64q-25 0 -65 -5l27 228h230v-81h-154l-10 -84q7 1 17 1q84 0 126 -33.5t42 -90.5z" />
    <glyph glyph-name="six.numr" horiz-adv-x="372" 
d="M341 404q0 -59 -40.5 -97.5t-113.5 -38.5q-76 0 -115.5 44t-39.5 118q0 107 70.5 177t182.5 89l20 -70q-112 -24 -152 -101q18 6 40 6q69 0 108.5 -34.5t39.5 -92.5zM239 406q0 73 -69 73q-20 0 -33 -5q-4 -20 -4 -48q0 -93 55 -93q25 0 38 20.5t13 52.5z" />
    <glyph glyph-name="seven.numr" horiz-adv-x="372" 
d="M345 688l-54 -127q-80 -187 -102 -285h-129l156 330h-183v82h312z" />
    <glyph glyph-name="eight.numr" horiz-adv-x="372" 
d="M342 379q0 -50 -43.5 -80.5t-113.5 -30.5q-68 0 -111.5 29.5t-43.5 81.5q0 38 22 62.5t66 48.5q-75 45 -75 101q0 47 40 76t102 29t103 -28.5t41 -75.5q0 -33 -18.5 -55.5t-55.5 -43.5q42 -24 64.5 -50.5t22.5 -63.5zM242 593q0 21 -15.5 34t-38.5 13q-24 0 -38.5 -13
t-14.5 -34t12 -34.5t42 -32.5q28 18 40.5 32.5t12.5 34.5zM242 380q0 24 -13 40.5t-45 35.5q-32 -18 -46 -34.5t-14 -40.5q0 -22 17.5 -36.5t42.5 -14.5q26 0 42 14t16 36z" />
    <glyph glyph-name="nine.numr" horiz-adv-x="372" 
d="M340 534q0 -107 -70.5 -177t-182.5 -89l-20 70q113 27 151 101q-18 -6 -39 -6q-69 0 -108.5 34.5t-39.5 92.5q0 60 40 98t113 38q76 0 116 -44t40 -118zM239 540q0 93 -56 93q-50 0 -50 -73q0 -74 69 -74q18 0 33 6q4 20 4 48z" />
    <glyph glyph-name="equal.numr" horiz-adv-x="368" 
d="M320 516h-272v75h272v-75zM320 376h-272v75h272v-75z" />
    <glyph glyph-name="n.numr" horiz-adv-x="420" 
d="M370 276h-112v236q0 52 -54 52q-25 0 -43 -7v-281h-111v328q68 27 154 27q166 0 166 -116v-239z" />
    <glyph glyph-name="minus.numr" horiz-adv-x="368" 
d="M320 446h-272v75h272v-75z" />
    <glyph glyph-name="parenleft.dnom" horiz-adv-x="238" 
d="M227 -61l-52 -39q-141 121 -141 306t141 306l52 -39q-85 -113 -85 -267t85 -267z" />
    <glyph glyph-name="parenright.dnom" horiz-adv-x="238" 
d="M204 206q0 -185 -141 -306l-52 39q85 113 85 267t-85 267l52 39q141 -121 141 -306z" />
    <glyph glyph-name="plus.dnom" horiz-adv-x="368" 
d="M320 170h-96v-96h-81v96h-95v75h95v95h81v-95h96v-75z" />
    <glyph glyph-name="zero.dnom" horiz-adv-x="372" 
d="M341 206q0 -92 -38.5 -153t-116.5 -61t-116.5 61t-38.5 153t38.5 153t116.5 61t116.5 -61t38.5 -153zM237 208q0 147 -51 147t-51 -147t51 -147t51 147z" />
    <glyph glyph-name="one.dnom" horiz-adv-x="372" 
d="M279 0h-113v307q-35 -14 -100 -18l-14 61q107 11 145 62h82v-412z" />
    <glyph glyph-name="two.dnom" horiz-adv-x="372" 
d="M320 0h-301l156 217q29 41 29 73q0 56 -68 56q-37 0 -77 -17l-25 66q55 25 126 25q79 0 118 -32t39 -85q0 -47 -58 -118l-84 -103h145v-82z" />
    <glyph glyph-name="three.dnom" horiz-adv-x="372" 
d="M328 125q0 -59 -47 -96t-123 -37q-78 0 -131 24l27 70q34 -18 86 -18q35 0 55 15.5t20 42.5q0 62 -98 62h-8v53q96 9 96 63q0 43 -59 43q-44 0 -82 -16l-24 65q56 24 124 24q69 0 108 -27t39 -75q0 -57 -67 -85v-2q84 -29 84 -106z" />
    <glyph glyph-name="four.dnom" horiz-adv-x="372" 
d="M340 80h-36v-80h-101v80h-175v58l171 274h105v-275h36v-57zM206 321h-2q-14 -31 -30 -59l-74 -125h103v122q0 31 3 62z" />
    <glyph glyph-name="five.dnom" horiz-adv-x="372" 
d="M328 124q0 -57 -47 -94.5t-123 -37.5q-83 0 -132 23l29 71q36 -19 86 -19q35 0 54.5 16.5t19.5 41.5q0 64 -100 64q-25 0 -65 -5l27 228h230v-81h-154l-10 -84q7 1 17 1q84 0 126 -33.5t42 -90.5z" />
    <glyph glyph-name="six.dnom" horiz-adv-x="372" 
d="M341 128q0 -59 -40.5 -97.5t-113.5 -38.5q-76 0 -115.5 44t-39.5 118q0 107 70.5 177t182.5 89l20 -70q-112 -24 -152 -101q18 6 40 6q69 0 108.5 -34.5t39.5 -92.5zM239 130q0 73 -69 73q-20 0 -33 -5q-4 -20 -4 -48q0 -93 55 -93q25 0 38 20.5t13 52.5z" />
    <glyph glyph-name="seven.dnom" horiz-adv-x="372" 
d="M345 412l-54 -127q-80 -187 -102 -285h-129l156 330h-183v82h312z" />
    <glyph glyph-name="eight.dnom" horiz-adv-x="372" 
d="M342 103q0 -50 -43.5 -80.5t-113.5 -30.5q-68 0 -111.5 29.5t-43.5 81.5q0 38 22 62.5t66 48.5q-75 45 -75 101q0 47 40 76t102 29t103 -28.5t41 -75.5q0 -33 -18.5 -55.5t-55.5 -43.5q42 -24 64.5 -50.5t22.5 -63.5zM242 317q0 21 -15.5 34t-38.5 13q-24 0 -38.5 -13
t-14.5 -34t12 -34.5t42 -32.5q28 18 40.5 32.5t12.5 34.5zM242 104q0 24 -13 40.5t-45 35.5q-32 -18 -46 -34.5t-14 -40.5q0 -22 17.5 -36.5t42.5 -14.5q26 0 42 14t16 36z" />
    <glyph glyph-name="nine.dnom" horiz-adv-x="372" 
d="M340 258q0 -107 -70.5 -177t-182.5 -89l-20 70q113 27 151 101q-18 -6 -39 -6q-69 0 -108.5 34.5t-39.5 92.5q0 60 40 98t113 38q76 0 116 -44t40 -118zM239 264q0 93 -56 93q-50 0 -50 -73q0 -74 69 -74q18 0 33 6q4 20 4 48z" />
    <glyph glyph-name="equal.dnom" horiz-adv-x="368" 
d="M320 240h-272v75h272v-75zM320 100h-272v75h272v-75z" />
    <glyph glyph-name="n.dnom" horiz-adv-x="420" 
d="M370 0h-112v236q0 52 -54 52q-25 0 -43 -7v-281h-111v328q68 27 154 27q166 0 166 -116v-239z" />
    <glyph glyph-name="minus.dnom" horiz-adv-x="368" 
d="M320 170h-272v75h272v-75z" />
    <glyph glyph-name="space.frac" horiz-adv-x="53" 
 />
    <glyph glyph-name="numbersign.osf" horiz-adv-x="580" 
d="M525 327h-90l-15 -109h79v-77h-90l-19 -141h-84l20 141h-110l-19 -141h-84l20 141h-78v77h88l15 109h-78v77h88l18 135h84l-18 -135h109l18 135h84l-18 -135h80v-77zM351 327h-109l-15 -109h109z" />
    <glyph glyph-name="dollar.osf" horiz-adv-x="486" 
d="M433 162q0 -62 -41 -107.5t-113 -59.5v-127h-81v121q-95 3 -153 39l42 96q52 -31 108 -31q35 0 56.5 16.5t21.5 44.5q0 25 -22 42.5t-53.5 31t-63.5 30t-54 49.5t-22 80q0 63 41.5 105.5t108.5 53.5v123h81v-120q76 -6 131 -38l-40 -86q-45 28 -95 28q-34 0 -53.5 -15.5
t-19.5 -42.5q0 -24 23 -41t55 -30.5t64.5 -31t55.5 -50.5t23 -80z" />
    <glyph glyph-name="percent.osf" horiz-adv-x="866" 
d="M818 172q0 -80 -38.5 -131.5t-109.5 -51.5t-109.5 51.5t-38.5 131.5t38.5 131.5t109.5 51.5t109.5 -51.5t38.5 -131.5zM560 526l-185 -540l-70 26l184 540zM344 367q0 -80 -38.5 -131.5t-109.5 -51.5t-109.5 51.5t-38.5 131.5t38.5 131.5t109.5 51.5t109.5 -51.5
t38.5 -131.5zM723 174q0 119 -53 119t-53 -119t53 -119t53 119zM249 369q0 119 -53 119t-53 -119t53 -119t53 119z" />
    <glyph glyph-name="zero.osf" horiz-adv-x="584" 
d="M539 270q0 -122 -66.5 -201.5t-180.5 -79.5t-180.5 79.5t-66.5 201.5t66.5 201t180.5 79t180.5 -79t66.5 -201zM380 272q0 51 -7.5 90.5t-28 67t-52.5 27.5t-52.5 -27.5t-28 -67t-7.5 -90.5q0 -182 88 -182t88 182z" />
    <glyph glyph-name="one.osf" horiz-adv-x="428" 
d="M362 0h-159v375q-55 -26 -162 -32l-19 93q85 11 145.5 39.5t81.5 63.5h113v-539z" />
    <glyph glyph-name="two.osf" horiz-adv-x="502" 
d="M461 0h-441l226 274q46 56 46 97q0 30 -24 48t-68 18q-64 0 -122 -26l-36 98q80 41 195 41q107 0 160 -45t53 -117q0 -67 -67 -137l-117 -122h195v-129z" />
    <glyph glyph-name="three.osf" horiz-adv-x="510" 
d="M471 59q0 -98 -72 -158.5t-187 -60.5q-124 0 -202 39l41 106q57 -30 135 -30q55 0 88 28t33 76q0 56 -41.5 83.5t-112.5 27.5h-15v83q73 7 113 36t40 74q0 37 -26 57t-70 20q-67 0 -128 -28l-38 99q84 39 192 39q104 0 164 -44.5t60 -123.5q0 -50 -31.5 -87t-77.5 -56v-2
q60 -20 97.5 -64.5t37.5 -113.5z" />
    <glyph glyph-name="four.osf" horiz-adv-x="574" 
d="M528 0h-56v-149h-147v149h-282v92l276 447h153v-454h56v-85zM329 398h-2q-23 -49 -49 -92l-135 -221h182v217q0 44 4 96z" />
    <glyph glyph-name="five.osf" horiz-adv-x="510" 
d="M471 59q0 -93 -72 -156t-188 -63q-123 0 -201 39l41 106q55 -30 135 -30q57 0 89 30t32 75q0 116 -160 116q-50 0 -101 -8l42 371h353v-128h-244l-15 -147q20 2 31 2q129 0 193.5 -56t64.5 -151z" />
    <glyph glyph-name="six.osf" horiz-adv-x="561" 
d="M519 214q0 -98 -61.5 -161.5t-173.5 -63.5q-115 0 -177 73t-62 195q0 174 107 291t286 151l29 -104q-181 -47 -244 -183q33 10 66 10q107 0 168.5 -56.5t61.5 -151.5zM372 216q0 127 -116 127q-27 0 -57 -10q-8 -35 -8 -82q0 -76 24 -118.5t71 -42.5q42 0 64 35t22 91z
" />
    <glyph glyph-name="seven.osf" horiz-adv-x="532" 
d="M506 539l-87 -211q-112 -271 -156 -477h-188l246 560h-287v128h472z" />
    <glyph glyph-name="eight.osf" horiz-adv-x="558" 
d="M516 172q0 -83 -66 -133t-172 -50q-103 0 -169.5 48t-66.5 134q0 64 35 105t103 81q-58 37 -88.5 75.5t-30.5 93.5q0 77 61.5 125t155.5 48q95 0 157 -47.5t62 -124.5q0 -55 -30 -91.5t-89 -72.5q66 -40 102 -84t36 -107zM371 529q0 36 -25 59.5t-64 23.5t-63.5 -23
t-24.5 -60q0 -36 20 -60t69 -55q47 30 67.5 55t20.5 60zM373 174q0 42 -23 69.5t-75 60.5q-51 -30 -74 -58.5t-23 -70.5q0 -37 28.5 -63.5t69.5 -26.5q43 0 70 25.5t27 63.5z" />
    <glyph glyph-name="nine.osf" horiz-adv-x="561" 
d="M516 282q0 -174 -107 -291t-285 -151l-30 104q182 48 245 183q-33 -10 -67 -10q-107 0 -168.5 56.5t-61.5 151.5q0 98 61.5 161.5t173.5 63.5q115 0 177 -73t62 -195zM370 290q0 161 -94 161q-42 0 -64.5 -35.5t-22.5 -90.5q0 -127 116 -127q24 0 57 11q8 35 8 81z" />
    <glyph glyph-name="cent.osf" horiz-adv-x="445" 
d="M408 131q-38 -27 -105 -30v-101h-80v105q-80 15 -126.5 72t-46.5 148q0 88 47.5 145t125.5 72v100h80v-96q61 -3 103 -30l-33 -76q-27 17 -63 17q-50 0 -77 -35t-27 -97t27.5 -95.5t77.5 -33.5q36 0 63 17z" />
    <glyph glyph-name="sterling.osf" horiz-adv-x="546" 
d="M490 0h-425q97 97 97 197q0 19 -6 47h-91v75h67q-11 37 -11 65q0 78 56 122t152 44q92 0 157 -34l-32 -86q-40 21 -92 21q-97 0 -97 -85q0 -19 4 -47h135v-75h-121q3 -20 3 -43q0 -51 -27 -91h231v-110z" />
    <glyph glyph-name="currency.osf" horiz-adv-x="580" 
d="M538 78l-58 -59l-70 70q-51 -42 -120 -42t-120 42l-70 -70l-58 59l72 72q-32 56 -32 121q0 67 31 120l-71 72l58 58l69 -69q53 43 121 43t121 -43l69 69l58 -58l-71 -72q31 -53 31 -120q0 -65 -32 -121zM369 272q0 55 -22.5 90.5t-56.5 35.5t-56.5 -35.5t-22.5 -90.5
t22 -90t57 -35t57 35t22 90z" />
    <glyph glyph-name="yen.osf" horiz-adv-x="580" 
d="M538 539l-101 -190h70v-59h-102l-38 -72h140v-59h-140v-159h-154v159h-140v59h140l-38 72h-102v59h70l-101 190h164l88 -227h2l92 227h150z" />
    <glyph glyph-name="florin.osf" horiz-adv-x="538" 
d="M492 533l-22 -96q-23 9 -49 9q-67 0 -78 -90l-7 -55h98v-96h-110l-29 -233q-11 -92 -65 -141.5t-143 -49.5q-59 0 -98 18l24 102q22 -10 49 -10q69 0 80 88l28 226h-84v96h96l8 63q11 90 63 138t143 48q57 0 96 -17z" />
    <glyph glyph-name="perthousand.osf" horiz-adv-x="1164" 
d="M1116 159q0 -73 -38 -121.5t-103 -48.5t-103 48.5t-38 121.5t38 121.5t103 48.5t103 -48.5t38 -121.5zM774 159q0 -73 -38 -121.5t-103 -48.5t-103 48.5t-38 121.5t38 121.5t103 48.5t103 -48.5t38 -121.5zM537 527l-185 -540l-66 25l184 540zM330 380q0 -73 -38 -121.5
t-103 -48.5t-103 48.5t-38 121.5t38 121.5t103 48.5t103 -48.5t38 -121.5zM1026 161q0 107 -51 107q-25 0 -38.5 -29.5t-13.5 -77.5t13.5 -77.5t38.5 -29.5q51 0 51 107zM685 161q0 48 -13.5 77.5t-38.5 29.5q-51 0 -51 -107t51 -107q25 0 38.5 29.5t13.5 77.5zM241 382
q0 48 -13.5 77.5t-38.5 29.5q-51 0 -51 -107t51 -107q25 0 38.5 29.5t13.5 77.5z" />
    <glyph glyph-name="Euro.osf" horiz-adv-x="584" 
d="M544 23q-58 -33 -146 -33q-104 0 -170.5 53.5t-87.5 143.5h-85v54h77q-1 10 -1 29q0 13 2 37h-78v53h87q23 87 89 138t167 51q88 0 146 -33l-33 -79q-36 19 -84 19q-97 0 -131 -96h188v-53h-200q-2 -12 -2 -35q0 -11 2 -31h200v-54h-189q34 -100 132 -100q50 0 84 18z
" />
    <glyph glyph-name="numbersign.tf" 
d="M518 413h-89l-17 -126h78v-80h-89l-28 -207h-86l28 207h-108l-28 -207h-86l28 207h-78v80h89l17 126h-78v80h89l26 195h86l-26 -195h108l26 195h86l-26 -195h78v-80zM343 413h-108l-17 -126h108z" />
    <glyph glyph-name="dollar.tf" 
d="M493 200q0 -77 -46 -132t-126 -72v-129h-85v122q-105 3 -173 40l40 111q54 -32 129 -32q44 0 70 21.5t26 58.5q0 29 -19 51.5t-48 36t-62 32.5t-62 40t-48 60t-19 90q0 76 47.5 129t128.5 67v120h86v-116q79 -4 140 -39l-37 -99q-49 28 -110 28q-43 0 -69 -20t-26 -57
q0 -34 27 -58t66 -41.5t77.5 -40t65.5 -66t27 -105.5z" />
    <glyph glyph-name="percent.tf" horiz-adv-x="910" 
d="M863 203q0 -92 -40.5 -153t-119.5 -61t-119.5 61t-40.5 153t40.5 153t119.5 61t119.5 -61t40.5 -153zM613 674l-236 -688l-81 29l236 688zM367 485q0 -92 -40.5 -153t-119.5 -61t-119.5 61t-40.5 153t40.5 153t119.5 61t119.5 -61t40.5 -153zM758 205q0 147 -55 147
t-55 -147t55 -147t55 147zM262 487q0 147 -55 147t-55 -147t55 -147t55 147z" />
    <glyph glyph-name="zero.tf" 
d="M519 344q0 -98 -23 -175.5t-78 -128.5t-136 -51t-136 51t-78 128.5t-23 175.5t23 175.5t78 128.5t136 51t136 -51t78 -128.5t23 -175.5zM369 347q0 253 -87 253t-87 -253t87 -253t87 253z" />
    <glyph glyph-name="one.tf" 
d="M417 0h-159v524q-55 -26 -162 -32l-19 93q85 11 145.5 39.5t81.5 63.5h113v-688z" />
    <glyph glyph-name="two.tf" 
d="M490 0h-461l246 359q48 71 48 129q0 46 -27.5 72t-84.5 26q-63 0 -123 -27l-37 99q82 41 193 41q122 0 182 -53.5t60 -141.5q0 -78 -91 -195l-140 -180h235v-129z" />
    <glyph glyph-name="three.tf" 
d="M498 208q0 -98 -72 -158.5t-187 -60.5q-125 0 -203 39l42 106q57 -30 135 -30q55 0 88 28t33 76q0 56 -42 83.5t-113 27.5h-15v83q73 7 113 36t40 74q0 37 -25.5 57t-69.5 20q-68 0 -129 -28l-38 99q84 39 193 39q104 0 163.5 -44t59.5 -124q0 -50 -31.5 -87t-77.5 -56
v-2q61 -20 98.5 -65t37.5 -113z" />
    <glyph glyph-name="four.tf" 
d="M517 136h-52v-136h-147v136h-274v92l268 460h153v-466h52v-86zM322 544h-2q-19 -50 -47 -99l-130 -223h175v218q0 42 4 104z" />
    <glyph glyph-name="five.tf" 
d="M502 208q0 -93 -72 -156t-188 -63q-124 0 -202 39l42 106q55 -30 135 -30q57 0 89 30t32 75q0 116 -160 116q-51 0 -102 -8l43 371h353v-128h-244l-16 -147q22 2 31 2q129 0 194 -56.5t65 -150.5z" />
    <glyph glyph-name="six.tf" 
d="M520 214q0 -98 -61.5 -161.5t-173.5 -63.5q-115 0 -177 73t-62 195q0 174 107 291t286 151l29 -104q-181 -47 -244 -183q33 10 66 10q107 0 168.5 -56.5t61.5 -151.5zM373 216q0 127 -116 127q-27 0 -57 -10q-8 -35 -8 -82q0 -76 24 -118.5t71 -42.5q42 0 64 35t22 91z
" />
    <glyph glyph-name="seven.tf" 
d="M530 688l-87 -211q-126 -307 -163 -477h-190l252 560h-295v128h483z" />
    <glyph glyph-name="eight.tf" 
d="M519 172q0 -83 -66 -133t-172 -50q-103 0 -169.5 48t-66.5 134q0 64 35 105t104 81q-58 37 -88.5 75.5t-30.5 93.5q0 77 61 125t155 48q95 0 156.5 -47.5t61.5 -124.5q0 -55 -29.5 -91.5t-88.5 -72.5q66 -40 102 -84t36 -107zM374 529q0 37 -25 60t-63 23
q-39 0 -63.5 -23t-24.5 -60q0 -36 20 -60t69 -55q46 30 66.5 55t20.5 60zM376 174q0 42 -22.5 69.5t-74.5 60.5q-52 -30 -75 -58.5t-23 -70.5q0 -37 29 -63.5t70 -26.5q42 0 69 25t27 64z" />
    <glyph glyph-name="nine.tf" 
d="M518 431q0 -174 -107 -291t-286 -151l-29 104q181 47 244 183q-33 -10 -66 -10q-107 0 -168.5 56.5t-61.5 151.5q0 98 61.5 161.5t173.5 63.5q115 0 177 -73t62 -195zM372 439q0 76 -24 118.5t-71 42.5q-42 0 -64 -35t-22 -91q0 -127 116 -127q24 0 57 11q8 35 8 81z" />
    <glyph glyph-name="cent.tf" 
d="M442 138q-40 -29 -105 -32v-106h-82v110q-79 16 -125 77t-46 161q0 96 47 157t124 77v106h82v-102q61 -3 104 -31l-33 -81q-27 17 -64 17q-51 0 -77 -37.5t-26 -103.5q0 -68 27 -105.5t76 -37.5q35 0 64 18z" />
    <glyph glyph-name="sterling.tf" 
d="M514 0h-454q109 125 109 250q0 36 -7 64h-98v93h70q-14 47 -14 88q0 98 62 151t161 53q97 0 167 -39l-34 -95q-43 24 -98 24q-51 0 -80.5 -29.5t-29.5 -81.5q0 -32 7 -71h148v-93h-131q3 -27 3 -60q0 -29 -10.5 -65.5t-24.5 -59.5h254v-129z" />
    <glyph glyph-name="currency.tf" 
d="M530 132l-58 -59l-70 70q-51 -42 -120 -42t-120 42l-70 -70l-58 59l72 72q-32 56 -32 121q0 67 31 120l-71 72l58 58l69 -69q53 43 121 43t121 -43l69 69l58 -58l-71 -72q31 -53 31 -120q0 -65 -32 -121zM361 326q0 55 -22.5 90.5t-56.5 35.5t-56.5 -35.5t-22.5 -90.5
t22 -90t57 -35t57 35t22 90z" />
    <glyph glyph-name="yen.tf" 
d="M539 688l-113 -245h90v-65h-120l-40 -87h160v-65h-160v-226h-148v226h-160v65h160l-40 87h-120v65h90l-113 245h159l103 -275h2l108 275h142z" />
    <glyph glyph-name="florin.tf" 
d="M528 677l-19 -97q-23 10 -54 10q-76 0 -90 -110l-9 -68h109v-101h-122l-40 -312q-14 -106 -70.5 -163.5t-152.5 -57.5q-57 0 -99 22l20 102q24 -12 56 -12q78 0 92 109l40 312h-94v101h107l9 68q14 105 69.5 161t149.5 56q55 0 98 -20z" />
    <glyph glyph-name="uni2007.tf" 
 />
    <glyph glyph-name="perthousand.tf" horiz-adv-x="1222" 
d="M1175 186q0 -84 -40 -140.5t-113 -56.5t-113 56.5t-40 140.5t40 140.5t113 56.5t113 -56.5t40 -140.5zM808 186q0 -84 -40 -140.5t-113 -56.5t-113 56.5t-40 140.5t40 140.5t113 56.5t113 -56.5t40 -140.5zM584 676l-237 -689l-77 26l237 688zM353 502q0 -84 -40 -140.5
t-113 -56.5t-113 56.5t-40 140.5t40 140.5t113 56.5t113 -56.5t40 -140.5zM1076 189q0 132 -54 132t-54 -132q0 -133 54 -133t54 133zM709 189q0 132 -54 132t-54 -132q0 -133 54 -133t54 133zM254 505q0 132 -54 132t-54 -132q0 -133 54 -133t54 133z" />
    <glyph glyph-name="Euro.tf" 
d="M533 31q-59 -42 -142 -42q-110 0 -174 71t-85 181h-87v65h79q-1 13 -1 38q0 17 2 49h-80v65h90q23 106 87 173.5t169 67.5q90 0 142 -40l-33 -95q-35 22 -81 22q-98 0 -126 -128h172v-65h-181q-2 -32 -2 -48q0 -13 2 -39h181v-65h-172q30 -132 126 -132q42 0 79 22z" />
    <glyph glyph-name="numbersign.tosf" 
d="M510 327h-86l-15 -109h76v-77h-86l-19 -141h-84l19 141h-105l-19 -141h-84l19 141h-73v77h84l15 109h-74v77h84l18 135h84l-19 -135h106l18 135h84l-19 -135h76v-77zM341 327h-106l-15 -109h106z" />
    <glyph glyph-name="dollar.tosf" 
d="M468 162q0 -62 -41 -107.5t-113 -59.5v-127h-81v121q-95 3 -153 39l42 96q52 -31 108 -31q35 0 56.5 16.5t21.5 44.5q0 21 -16 37t-40 26t-51.5 24.5t-51.5 30.5t-40 45.5t-16 69.5q0 63 41.5 105.5t108.5 53.5v123h81v-120q76 -6 131 -38l-40 -86q-45 28 -95 28
q-34 0 -53.5 -15.5t-19.5 -42.5q0 -24 23 -41t55.5 -30.5t64.5 -31t55 -50.5t23 -80z" />
    <glyph glyph-name="percent.tosf" horiz-adv-x="866" 
d="M818 172q0 -80 -38.5 -131.5t-109.5 -51.5t-109.5 51.5t-38.5 131.5t38.5 131.5t109.5 51.5t109.5 -51.5t38.5 -131.5zM560 526l-185 -540l-70 26l184 540zM344 367q0 -80 -38.5 -131.5t-109.5 -51.5t-109.5 51.5t-38.5 131.5t38.5 131.5t109.5 51.5t109.5 -51.5
t38.5 -131.5zM723 174q0 119 -53 119t-53 -119t53 -119t53 119zM249 369q0 119 -53 119t-53 -119t53 -119t53 119z" />
    <glyph glyph-name="zero.tosf" 
d="M521 270q0 -122 -64.5 -201.5t-174.5 -79.5t-174.5 79.5t-64.5 201.5t64.5 201t174.5 79t174.5 -79t64.5 -201zM369 272q0 185 -87 185t-87 -185q0 -183 87 -183t87 183z" />
    <glyph glyph-name="one.tosf" 
d="M416 0h-159v375q-55 -26 -162 -32l-19 93q85 11 145.5 39.5t81.5 63.5h113v-539z" />
    <glyph glyph-name="two.tosf" 
d="M481 0h-441l226 274q46 56 46 97q0 30 -24 48t-68 18q-64 0 -122 -26l-36 98q80 41 195 41q107 0 160 -45t53 -117q0 -67 -67 -137l-117 -122h195v-129z" />
    <glyph glyph-name="three.tosf" 
d="M492 59q0 -98 -72 -158.5t-187 -60.5q-124 0 -202 39l41 106q57 -30 135 -30q55 0 88 28t33 76q0 56 -41.5 83.5t-112.5 27.5h-15v83q73 7 113 36t40 74q0 37 -26 57t-70 20q-67 0 -128 -28l-38 99q84 39 192 39q104 0 164 -44.5t60 -123.5q0 -50 -31.5 -87t-77.5 -56v-2
q60 -20 97.5 -64.5t37.5 -113.5z" />
    <glyph glyph-name="four.tosf" 
d="M521 0h-56v-149h-147v149h-282v92l276 447h153v-454h56v-85zM322 398h-2q-22 -47 -49 -92l-135 -221h182v217q0 40 4 96z" />
    <glyph glyph-name="five.tosf" 
d="M501 59q0 -93 -72 -156t-188 -63q-123 0 -201 39l41 106q55 -30 135 -30q57 0 89 30t32 75q0 116 -160 116q-50 0 -101 -8l42 371h353v-128h-244l-15 -147q21 2 31 2q129 0 193.5 -56t64.5 -151z" />
    <glyph glyph-name="six.tosf" 
d="M520 214q0 -98 -61.5 -161.5t-173.5 -63.5q-115 0 -177 73t-62 195q0 174 107 291t286 151l29 -104q-181 -47 -244 -183q33 10 66 10q107 0 168.5 -56.5t61.5 -151.5zM373 216q0 127 -116 127q-27 0 -57 -10q-8 -35 -8 -82q0 -76 24 -118.5t71 -42.5q42 0 64 35t22 91z
" />
    <glyph glyph-name="seven.tosf" 
d="M522 539l-87 -211q-112 -271 -156 -477h-188l246 560h-287v128h472z" />
    <glyph glyph-name="eight.tosf" 
d="M519 172q0 -83 -66 -133t-172 -50q-103 0 -169.5 48t-66.5 134q0 64 35 105t103 81q-58 37 -88.5 75.5t-30.5 93.5q0 77 61.5 125t155.5 48q95 0 157 -47.5t62 -124.5q0 -55 -30 -91.5t-89 -72.5q66 -40 102 -84t36 -107zM374 529q0 36 -25 59.5t-64 23.5t-63.5 -23
t-24.5 -60q0 -36 20 -60t69 -55q47 30 67.5 55t20.5 60zM376 174q0 42 -23 69.5t-75 60.5q-51 -30 -74 -58.5t-23 -70.5q0 -37 28.5 -63.5t69.5 -26.5q43 0 70 25.5t27 63.5z" />
    <glyph glyph-name="nine.tosf" 
d="M518 282q0 -174 -107 -291t-285 -151l-30 104q182 48 245 183q-33 -10 -67 -10q-107 0 -168.5 56.5t-61.5 151.5q0 98 61.5 161.5t173.5 63.5q115 0 177 -73t62 -195zM372 290q0 161 -94 161q-42 0 -64.5 -35.5t-22.5 -90.5q0 -127 116 -127q24 0 57 11q8 35 8 81z" />
    <glyph glyph-name="cent.tosf" 
d="M438 131q-38 -27 -104 -30v-101h-81v105q-80 15 -126.5 72t-46.5 148q0 88 47.5 145t125.5 72v100h81v-96q61 -3 103 -30l-34 -76q-27 17 -62 17q-50 0 -77.5 -35t-27.5 -97t27.5 -95.5t77.5 -33.5q36 0 63 17z" />
    <glyph glyph-name="sterling.tosf" 
d="M499 0h-425q97 97 97 197q0 19 -6 47h-91v75h67q-11 37 -11 65q0 78 56 122t152 44q92 0 157 -34l-32 -86q-40 21 -92 21q-97 0 -97 -85q0 -19 4 -47h135v-75h-121q3 -20 3 -43q0 -51 -27 -91h231v-110z" />
    <glyph glyph-name="currency.tosf" 
d="M530 78l-58 -59l-70 70q-51 -42 -120 -42t-120 42l-70 -70l-58 59l72 72q-32 56 -32 121q0 67 31 120l-71 72l58 58l69 -69q53 43 121 43t121 -43l69 69l58 -58l-71 -72q31 -53 31 -120q0 -65 -32 -121zM361 272q0 55 -22.5 90.5t-56.5 35.5t-56.5 -35.5t-22.5 -90.5
t22 -90t57 -35t57 35t22 90z" />
    <glyph glyph-name="yen.tosf" 
d="M527 539l-99 -190h67v-59h-98l-38 -72h136v-59h-136v-159h-154v159h-136v59h136l-38 72h-98v59h67l-99 190h164l85 -227h2l89 227h150z" />
    <glyph glyph-name="florin.tosf" 
d="M505 533l-22 -96q-23 9 -49 9q-67 0 -78 -90l-7 -55h98v-96h-110l-29 -233q-11 -92 -65 -141.5t-143 -49.5q-59 0 -98 18l24 102q22 -10 49 -10q69 0 80 88l28 226h-84v96h96l8 63q11 90 63 138t143 48q57 0 96 -17z" />
    <glyph glyph-name="uni2007.tosf" 
 />
    <glyph glyph-name="perthousand.tosf" horiz-adv-x="1164" 
d="M1116 159q0 -73 -38 -121.5t-103 -48.5t-103 48.5t-38 121.5t38 121.5t103 48.5t103 -48.5t38 -121.5zM774 159q0 -73 -38 -121.5t-103 -48.5t-103 48.5t-38 121.5t38 121.5t103 48.5t103 -48.5t38 -121.5zM537 527l-185 -540l-66 25l184 540zM330 380q0 -73 -38 -121.5
t-103 -48.5t-103 48.5t-38 121.5t38 121.5t103 48.5t103 -48.5t38 -121.5zM1026 161q0 107 -51 107q-25 0 -38.5 -29.5t-13.5 -77.5t13.5 -77.5t38.5 -29.5q51 0 51 107zM685 161q0 48 -13.5 77.5t-38.5 29.5q-51 0 -51 -107t51 -107q25 0 38.5 29.5t13.5 77.5zM241 382
q0 48 -13.5 77.5t-38.5 29.5q-51 0 -51 -107t51 -107q25 0 38.5 29.5t13.5 77.5z" />
    <glyph glyph-name="Euro.tosf" 
d="M526 23q-56 -33 -142 -33q-100 0 -164.5 53.5t-85.5 143.5h-80v54h72q-1 10 -1 29q0 13 2 37h-73v53h82q22 87 86 138t162 51q86 0 142 -33l-32 -79q-35 19 -80 19q-92 0 -124 -96h177v-53h-188q-2 -14 -2 -35t1 -31h189v-54h-178q32 -100 125 -100q46 0 79 18z" />
    <glyph glyph-name="ampersand.sc" horiz-adv-x="580" 
d="M566 291l-92 -14v-251q-34 -16 -90 -26.5t-106 -10.5q-116 0 -179.5 40t-63.5 117q0 103 128 149v1q-94 34 -94 117q0 63 53.5 100t137.5 37q88 0 152 -32l-38 -74q-40 17 -85 17q-34 0 -55 -16.5t-21 -43.5t23 -45.5t62 -18.5q55 0 130 15l117 24zM331 77v189
q-76 -10 -110 -38t-34 -77q0 -38 24.5 -59.5t72.5 -21.5q29 0 47 7z" />
    <glyph glyph-name="asterisk.sc" horiz-adv-x="463" 
d="M418 580q0 -24 -16.5 -40.5t-40.5 -16.5t-41 16.5t-17 40.5t17 41t41 17t40.5 -17t16.5 -41zM289 675q0 -24 -16.5 -41t-40.5 -17t-41 17t-17 41t17 40.5t41 16.5t40.5 -16.5t16.5 -40.5zM277 540q0 -19 -13 -32t-32 -13t-32.5 13t-13.5 32t13.5 32t32.5 13t32 -13
t13 -32zM369 431q0 -24 -16.5 -41t-40.5 -17t-41 17t-17 41t17 40.5t41 16.5t40.5 -16.5t16.5 -40.5zM160 580q0 -24 -16.5 -40.5t-40.5 -16.5t-41 16.5t-17 40.5t17 41t41 17t40.5 -17t16.5 -41zM209 431q0 -24 -17 -41t-41 -17t-40.5 17t-16.5 41t16.5 40.5t40.5 16.5
t41 -16.5t17 -40.5z" />
    <glyph glyph-name="at.sc" horiz-adv-x="769" 
d="M727 296q0 -127 -93 -217t-224 -90q-90 0 -141 52.5t-51 135.5q0 95 57 163.5t151 68.5q75 0 124 -40l-47 -295q60 23 99 83t39 138q0 85 -51.5 137.5t-146.5 52.5q-146 0 -230.5 -93t-84.5 -218q0 -118 73 -190t192 -72q165 0 287 102l45 -52q-66 -56 -155 -86.5
t-183 -30.5q-150 0 -247.5 87t-97.5 235q0 155 112.5 269t292.5 114q128 0 204 -71.5t76 -182.5zM458 334q-20 10 -42 10q-49 0 -79 -49t-30 -114q0 -57 26.5 -89.5t77.5 -32.5h4z" />
    <glyph glyph-name="a.sc" horiz-adv-x="571" 
d="M562 0h-165l-32 117h-174l-34 -117h-148l185 539h183zM344 194l-49 178q-7 28 -14 70h-2q-5 -37 -14 -70l-52 -178h131z" />
    <glyph glyph-name="b.sc" horiz-adv-x="544" 
d="M509 148q0 -78 -64.5 -118.5t-191.5 -40.5q-111 0 -193 38v485q82 38 191 38q119 0 180.5 -37.5t61.5 -106.5q0 -47 -30.5 -79.5t-75.5 -42.5v-2q53 -13 87.5 -48.5t34.5 -85.5zM348 395q0 79 -93 79q-29 0 -47 -7v-158h35q105 0 105 86zM358 156q0 92 -115 92h-35v-171
q20 -7 49 -7q101 0 101 86z" />
    <glyph glyph-name="c.sc" horiz-adv-x="436" 
d="M410 27q-52 -38 -137 -38q-104 0 -168.5 77.5t-64.5 203.5q0 125 65 202.5t168 77.5q85 0 137 -38l-34 -86q-28 20 -67 20q-52 0 -81 -47.5t-29 -125.5t29.5 -125.5t80.5 -47.5q38 0 66 20z" />
    <glyph glyph-name="d.sc" horiz-adv-x="567" 
d="M527 270q0 -122 -70 -201.5t-209 -79.5q-107 0 -189 38v485q82 38 187 38q140 0 210.5 -78.5t70.5 -201.5zM372 272q0 91 -30 139.5t-88 48.5q-27 0 -43 -6v-365q16 -6 44 -6q117 0 117 189z" />
    <glyph glyph-name="e.sc" horiz-adv-x="423" 
d="M382 0h-323v539h323v-93h-167v-128h148v-89h-148v-136h167v-93z" />
    <glyph glyph-name="f.sc" horiz-adv-x="417" 
d="M381 446h-166v-128h146v-89h-146v-229h-156v539h322v-93z" />
    <glyph glyph-name="g.sc" horiz-adv-x="555" 
d="M501 27q-74 -38 -182 -38q-138 0 -208.5 76t-70.5 204q0 121 78.5 201t208.5 80q95 0 168 -33l-38 -87q-49 22 -107 22q-76 0 -115 -52t-39 -133q0 -80 32 -132t89 -52q26 0 43 6v149h-70v80h211v-291z" />
    <glyph glyph-name="h.sc" horiz-adv-x="578" 
d="M519 0h-156v229h-148v-229h-156v539h156v-221h148v221h156v-539z" />
    <glyph glyph-name="i.sc" horiz-adv-x="280" 
d="M218 0h-156v539h156v-539z" />
    <glyph glyph-name="j.sc" horiz-adv-x="282" 
d="M220 95q0 -132 -63 -209.5t-182 -92.5v105q48 21 68.5 63t20.5 115v463h156v-444z" />
    <glyph glyph-name="k.sc" horiz-adv-x="560" 
d="M553 0h-179l-157 263h-2v-263h-155v539h155v-247h2l154 247h165l-181 -252z" />
    <glyph glyph-name="l.sc" horiz-adv-x="401" 
d="M371 0h-311v539h156v-438h155v-101z" />
    <glyph glyph-name="m.sc" horiz-adv-x="726" 
d="M689 0h-146l-26 304q-2 21 -2 55v15h-2q-7 -37 -18 -70l-97 -304h-85l-93 304q-9 30 -18 70h-2q0 -30 -3 -70l-27 -304h-133l65 539h155l90 -296q9 -29 15 -69h2q8 42 16 69l89 296h156z" />
    <glyph glyph-name="n.sc" horiz-adv-x="591" 
d="M532 0h-121l-191 294q-16 26 -32 59h-2q3 -39 3 -65v-288h-130v539h138l174 -267q16 -24 32 -56h2q-3 32 -3 63v260h130v-539z" />
    <glyph glyph-name="o.sc" horiz-adv-x="566" 
d="M526 270q0 -127 -63 -204t-180 -77t-180 77t-63 204q0 126 63 203t180 77t180 -77t63 -203zM370 273q0 181 -87 181t-87 -181q0 -183 87 -183t87 183z" />
    <glyph glyph-name="p.sc" horiz-adv-x="530" 
d="M496 376q0 -86 -59.5 -136t-180.5 -50q-22 0 -44 4v-194h-152v512q82 38 190 38q123 0 184.5 -47t61.5 -127zM347 374q0 48 -21 71.5t-69 23.5q-29 0 -45 -7v-187q18 -3 40 -3q95 0 95 102z" />
    <glyph glyph-name="q.sc" horiz-adv-x="566" 
d="M526 270q0 -176 -106 -244l86 -102l-107 -91l-78 159q-18 -3 -38 -3q-117 0 -180 77t-63 204q0 126 63 203t180 77t180 -77t63 -203zM370 273q0 181 -87 181t-87 -181q0 -183 87 -183t87 183z" />
    <glyph glyph-name="r.sc" horiz-adv-x="542" 
d="M522 0h-167l-77 161q-23 50 -66 69v-230h-152v512q84 38 190 38q119 0 183 -41.5t64 -123.5q0 -53 -34 -89.5t-96 -53.5v-1q34 -28 59 -73zM346 376q0 94 -93 94q-19 0 -41 -6v-184q18 -4 35 -4q47 0 73 28.5t26 71.5z" />
    <glyph glyph-name="s.sc" horiz-adv-x="446" 
d="M409 164q0 -77 -58 -126t-155 -49q-103 0 -166 39l41 96q53 -31 105 -31q33 0 53.5 17t20.5 43q0 25 -21.5 43t-52 31t-61 29t-52 49t-21.5 80q0 75 54 120t134 45q99 0 165 -39l-37 -86q-48 28 -94 28q-32 0 -49.5 -16t-17.5 -41q0 -24 22 -41.5t53 -30.5t62 -29.5
t53 -50t22 -80.5z" />
    <glyph glyph-name="t.sc" horiz-adv-x="431" 
d="M400 438h-107v-438h-156v438h-106v101h369v-101z" />
    <glyph glyph-name="u.sc" horiz-adv-x="561" 
d="M502 190q0 -95 -63 -148t-158 -53t-158.5 53t-63.5 148v349h156v-363q0 -36 20 -56t51 -20t51.5 20t20.5 56v363h144v-349z" />
    <glyph glyph-name="v.sc" horiz-adv-x="533" 
d="M520 539l-178 -539h-150l-178 539h168l76 -313q8 -32 13 -84h2q4 48 14 84l82 313h151z" />
    <glyph glyph-name="w.sc" horiz-adv-x="778" 
d="M756 539l-140 -539h-145l-69 286q-9 39 -12 76h-2q-2 -39 -11 -76l-69 -286h-146l-139 539h154l59 -308q7 -34 8 -81h2q5 42 14 81l74 308h127l70 -308q8 -35 11 -81h2q4 49 11 81l63 308h138z" />
    <glyph glyph-name="x.sc" horiz-adv-x="524" 
d="M516 0h-172l-87 173h-2l-87 -173h-160l171 274l-154 265h163l80 -161h2l82 161h147l-153 -255z" />
    <glyph glyph-name="y.sc" horiz-adv-x="501" 
d="M494 539l-165 -317v-222h-156v222l-165 317h166l83 -211h2l85 211h150z" />
    <glyph glyph-name="z.sc" horiz-adv-x="440" 
d="M407 0h-381l183 438h-166v101h360l-179 -438h183v-101z" />
    <glyph glyph-name="exclamdown.sc" horiz-adv-x="326" 
d="M258 608q0 -37 -26 -62.5t-63 -25.5t-63 25.5t-26 62.5t26 63t63 26t63 -26t26 -63zM262 0h-186l34 435h119z" />
    <glyph glyph-name="copyright.sc" horiz-adv-x="656" 
d="M611 270q0 -116 -83 -198.5t-200 -82.5t-200 82.5t-83 198.5t83 198t200 82t200 -82t83 -198zM541 271q0 93 -62 157.5t-151 64.5t-151 -64.5t-62 -157.5t62.5 -158.5t150.5 -65.5t150.5 65.5t62.5 158.5zM401 136q-26 -17 -71 -17q-62 0 -96.5 44.5t-34.5 108.5
q0 63 34.5 107.5t96.5 44.5q46 0 71 -16l-15 -41q-20 10 -43 10q-38 0 -56.5 -30.5t-18.5 -74.5t19.5 -73.5t55.5 -29.5q24 0 42 10z" />
    <glyph glyph-name="ordfeminine.sc" horiz-adv-x="397" 
d="M384 328h-112l-22 79h-116l-23 -79h-98l123 360h125zM235 460l-32 114q-6 22 -9 44h-2q-2 -25 -8 -44l-34 -114h85z" />
    <glyph glyph-name="registered.sc" horiz-adv-x="656" 
d="M611 270q0 -116 -83 -198.5t-200 -82.5t-200 82.5t-83 198.5t83 198t200 82t200 -82t83 -198zM541 271q0 93 -62 157.5t-151 64.5t-151 -64.5t-62 -157.5t62.5 -158.5t150.5 -65.5t150.5 65.5t62.5 158.5zM447 128h-72l-43 90q-13 29 -35 38v-128h-64v284q36 17 88 17
q115 0 115 -89q0 -61 -69 -79v-2q16 -15 28 -37zM372 338q0 53 -50 53q-16 0 -25 -3v-105q10 -2 20 -2q26 0 40.5 16t14.5 41z" />
    <glyph glyph-name="mu.sc" horiz-adv-x="726" 
d="M689 0h-146l-26 304q-2 21 -2 55v15h-2q-7 -37 -18 -70l-97 -304h-85l-93 304q-9 30 -18 70h-2q0 -30 -3 -70l-27 -304h-133l65 539h155l90 -296q9 -29 15 -69h2q8 42 16 69l89 296h156z" />
    <glyph glyph-name="ordmasculine.sc" horiz-adv-x="402" 
d="M364 508q0 -83 -43 -136.5t-120 -53.5t-120 53.5t-43 136.5q0 82 43.5 136t119.5 54t119.5 -54t43.5 -136zM258 510q0 117 -57 117t-57 -117t57 -117t57 117z" />
    <glyph glyph-name="questiondown.sc" horiz-adv-x="456" 
d="M345 608q0 -37 -26 -62.5t-63 -25.5t-62.5 25.5t-25.5 62.5t25.5 63t62.5 26t63 -26t26 -63zM442 29q-71 -40 -173 -40q-107 0 -168 45.5t-61 123.5q0 60 45 103.5t104 61.5l8 112h119l12 -157q-52 -11 -88 -37.5t-36 -66.5q0 -78 96 -78q51 0 101 25z" />
    <glyph glyph-name="germandbls.sc" horiz-adv-x="882" 
d="M409 164q0 -77 -58 -126t-155 -49q-103 0 -166 39l41 96q53 -31 105 -31q33 0 53.5 17t20.5 43q0 25 -21.5 43t-52 31t-61 29t-52 49t-21.5 80q0 75 54 120t134 45q99 0 165 -39l-37 -86q-48 28 -94 28q-32 0 -49.5 -16t-17.5 -41q0 -24 22 -41.5t53 -30.5t62 -29.5
t53 -50t22 -80.5zM845 164q0 -77 -58 -126t-155 -49q-103 0 -166 39l41 96q53 -31 105 -31q33 0 53.5 17t20.5 43q0 25 -21.5 43t-52 31t-61 29t-52 49t-21.5 80q0 75 54 120t134 45q99 0 165 -39l-37 -86q-48 28 -94 28q-32 0 -49.5 -16t-17.5 -41q0 -24 22 -41.5t53 -30.5
t62 -29.5t53 -50t22 -80.5z" />
    <glyph glyph-name="agrave.sc" horiz-adv-x="571" 
d="M562 0h-165l-32 117h-174l-34 -117h-148l185 539h183zM344 194l-49 178q-7 28 -14 70h-2q-5 -37 -14 -70l-52 -178h131zM338 595h-86l-128 137q20 27 68 27q44 0 76 -21z" />
    <glyph glyph-name="aacute.sc" horiz-adv-x="571" 
d="M562 0h-165l-32 117h-174l-34 -117h-148l185 539h183zM344 194l-49 178q-7 28 -14 70h-2q-5 -37 -14 -70l-52 -178h131zM447 732l-128 -137h-86l70 143q32 21 76 21q49 0 68 -27z" />
    <glyph glyph-name="acircumflex.sc" horiz-adv-x="571" 
d="M562 0h-165l-32 117h-174l-34 -117h-148l185 539h183zM344 194l-49 178q-7 28 -14 70h-2q-5 -37 -14 -70l-52 -178h131zM430 625l-44 -41l-101 78l-101 -78l-44 41l101 105q18 19 44 19t44 -19z" />
    <glyph glyph-name="atilde.sc" horiz-adv-x="571" 
d="M562 0h-165l-32 117h-174l-34 -117h-148l185 539h183zM344 194l-49 178q-7 28 -14 70h-2q-5 -37 -14 -70l-52 -178h131zM433 699q-13 -103 -93 -103q-27 0 -56 20.5t-48 20.5q-31 0 -38 -41l-61 21q13 102 92 102q27 0 56.5 -20.5t48.5 -20.5q31 0 38 42z" />
    <glyph glyph-name="adieresis.sc" horiz-adv-x="571" 
d="M562 0h-165l-32 117h-174l-34 -117h-148l185 539h183zM344 194l-49 178q-7 28 -14 70h-2q-5 -37 -14 -70l-52 -178h131zM257 662q0 -26 -19 -45t-45 -19t-45 19t-19 45t19 45t45 19t45 -19t19 -45zM442 662q0 -26 -19 -45t-45 -19t-45 19t-19 45t19 45t45 19t45 -19
t19 -45z" />
    <glyph glyph-name="aring.sc" horiz-adv-x="571" 
d="M562 0h-165l-32 117h-174l-34 -117h-148l185 539h183zM344 194l-49 178q-7 28 -14 70h-2q-5 -37 -14 -70l-52 -178h131zM375 681q0 -37 -26.5 -63t-63.5 -26t-63.5 26t-26.5 63t26.5 63.5t63.5 26.5t63.5 -26.5t26.5 -63.5zM324 681q0 17 -11.5 29t-27.5 12t-27.5 -12
t-11.5 -29t11.5 -28.5t27.5 -11.5t27.5 11.5t11.5 28.5z" />
    <glyph glyph-name="ae.sc" horiz-adv-x="684" 
d="M654 0h-277l-20 117h-167l-43 -117h-151l230 539h381v-93h-173l29 -128h144v-89h-127l31 -136h143v-93zM344 195l-30 178q-6 34 -8 69h-2q-8 -40 -19 -69l-66 -178h125z" />
    <glyph glyph-name="ccedilla.sc" horiz-adv-x="436" 
d="M410 27q-52 -38 -137 -38q-104 0 -168.5 77.5t-64.5 203.5q0 125 65 202.5t168 77.5q85 0 137 -38l-34 -86q-28 20 -67 20q-52 0 -81 -47.5t-29 -125.5t29.5 -125.5t80.5 -47.5q38 0 66 20zM348 -123q0 -44 -48.5 -67t-137.5 -23q-33 0 -83 5l25 52q33 -3 52 -3
q87 0 87 34q0 28 -59 28q-18 0 -54 -3l22 47q33 3 69 3q127 0 127 -73z" />
    <glyph glyph-name="egrave.sc" horiz-adv-x="423" 
d="M382 0h-323v539h323v-93h-167v-128h148v-89h-148v-136h167v-93zM286 595h-86l-128 137q20 27 68 27q44 0 76 -21z" />
    <glyph glyph-name="eacute.sc" horiz-adv-x="423" 
d="M382 0h-323v539h323v-93h-167v-128h148v-89h-148v-136h167v-93zM359 732l-128 -137h-86l70 143q32 21 76 21q49 0 68 -27z" />
    <glyph glyph-name="ecircumflex.sc" horiz-adv-x="423" 
d="M382 0h-323v539h323v-93h-167v-128h148v-89h-148v-136h167v-93zM364 629l-44 -41l-101 78l-101 -78l-44 41l101 105q18 19 44 19t44 -19z" />
    <glyph glyph-name="edieresis.sc" horiz-adv-x="423" 
d="M382 0h-323v539h323v-93h-167v-128h148v-89h-148v-136h167v-93zM192 662q0 -26 -19 -45t-45 -19t-45 19t-19 45t19 45t45 19t45 -19t19 -45zM376 662q0 -26 -19 -45t-45 -19t-45 19t-19 45t19 45t45 19t45 -19t19 -45z" />
    <glyph glyph-name="igrave.sc" horiz-adv-x="280" 
d="M218 0h-156v539h156v-539zM212 595h-86l-128 137q20 27 68 27q44 0 76 -21z" />
    <glyph glyph-name="iacute.sc" horiz-adv-x="280" 
d="M218 0h-156v539h156v-539zM282 732l-128 -137h-86l70 143q32 21 76 21q48 0 68 -27z" />
    <glyph glyph-name="icircumflex.sc" horiz-adv-x="280" 
d="M218 0h-156v539h156v-539zM285 627l-44 -41l-101 78l-101 -78l-44 41l101 105q18 19 44 19t44 -19z" />
    <glyph glyph-name="idieresis.sc" horiz-adv-x="280" 
d="M218 0h-156v539h156v-539zM112 662q0 -26 -19 -45t-45 -19t-45 19t-19 45t19 45t45 19t45 -19t19 -45zM296 662q0 -26 -19 -45t-45 -19t-45 19t-19 45t19 45t45 19t45 -19t19 -45z" />
    <glyph glyph-name="eth.sc" horiz-adv-x="575" 
d="M535 270q0 -122 -70 -201.5t-209 -79.5q-107 0 -189 38v206h-45v86h45v193q82 38 187 38q140 0 210.5 -78.5t70.5 -201.5zM384 272q0 91 -30.5 141t-91.5 50q-29 0 -46 -6v-138h68v-86h-68v-147q20 -7 47 -7q121 0 121 193z" />
    <glyph glyph-name="ntilde.sc" horiz-adv-x="591" 
d="M532 0h-121l-191 294q-16 26 -32 59h-2q3 -39 3 -65v-288h-130v539h138l174 -267q16 -24 32 -56h2q-3 32 -3 63v260h130v-539zM446 699q-13 -103 -93 -103q-27 0 -56 20.5t-48 20.5q-31 0 -38 -41l-61 21q13 102 92 102q27 0 56.5 -20.5t48.5 -20.5q31 0 38 42z" />
    <glyph glyph-name="ograve.sc" horiz-adv-x="566" 
d="M526 270q0 -127 -63 -204t-180 -77t-180 77t-63 204q0 126 63 203t180 77t180 -77t63 -203zM370 273q0 181 -87 181t-87 -181q0 -183 87 -183t87 183zM341 596h-86l-128 137q20 27 68 27q44 0 76 -21z" />
    <glyph glyph-name="oacute.sc" horiz-adv-x="566" 
d="M526 270q0 -127 -63 -204t-180 -77t-180 77t-63 204q0 126 63 203t180 77t180 -77t63 -203zM370 273q0 181 -87 181t-87 -181q0 -183 87 -183t87 183zM440 733l-128 -137h-86l70 143q32 21 76 21q48 0 68 -27z" />
    <glyph glyph-name="ocircumflex.sc" horiz-adv-x="566" 
d="M526 270q0 -127 -63 -204t-180 -77t-180 77t-63 204q0 126 63 203t180 77t180 -77t63 -203zM370 273q0 181 -87 181t-87 -181q0 -183 87 -183t87 183zM428 625l-44 -41l-101 78l-101 -78l-44 41l101 105q18 19 44 19t44 -19z" />
    <glyph glyph-name="otilde.sc" horiz-adv-x="566" 
d="M526 270q0 -127 -63 -204t-180 -77t-180 77t-63 204q0 126 63 203t180 77t180 -77t63 -203zM370 273q0 181 -87 181t-87 -181q0 -183 87 -183t87 183zM431 700q-13 -103 -93 -103q-27 0 -56 20.5t-48 20.5q-31 0 -38 -41l-61 21q13 102 92 102q27 0 56.5 -20.5
t48.5 -20.5q31 0 38 42z" />
    <glyph glyph-name="odieresis.sc" horiz-adv-x="566" 
d="M526 270q0 -127 -63 -204t-180 -77t-180 77t-63 204q0 126 63 203t180 77t180 -77t63 -203zM370 273q0 181 -87 181t-87 -181q0 -183 87 -183t87 183zM256 663q0 -26 -19 -45t-45 -19t-45 19t-19 45t19 45t45 19t45 -19t19 -45zM440 663q0 -26 -19 -45t-45 -19t-45 19
t-19 45t19 45t45 19t45 -19t19 -45z" />
    <glyph glyph-name="oslash.sc" horiz-adv-x="566" 
d="M526 270q0 -127 -63 -204t-180 -77q-81 0 -137 38l-51 -74l-39 27l54 78q-70 76 -70 212q0 126 63 203t180 77q82 0 138 -38l50 74l39 -27l-53 -78q69 -75 69 -211zM353 414q-23 47 -70 47q-94 0 -94 -188q0 -54 7 -90zM377 273q0 47 -6 84l-157 -230q24 -44 69 -44
q94 0 94 190z" />
    <glyph glyph-name="ugrave.sc" horiz-adv-x="561" 
d="M502 190q0 -95 -63 -148t-158 -53t-158.5 53t-63.5 148v349h156v-363q0 -36 20 -56t51 -20t51.5 20t20.5 56v363h144v-349zM349 595h-86l-128 137q20 27 68 27q44 0 76 -21z" />
    <glyph glyph-name="uacute.sc" horiz-adv-x="561" 
d="M502 190q0 -95 -63 -148t-158 -53t-158.5 53t-63.5 148v349h156v-363q0 -36 20 -56t51 -20t51.5 20t20.5 56v363h144v-349zM437 732l-128 -137h-86l70 143q32 21 76 21q49 0 68 -27z" />
    <glyph glyph-name="ucircumflex.sc" horiz-adv-x="561" 
d="M502 190q0 -95 -63 -148t-158 -53t-158.5 53t-63.5 148v349h156v-363q0 -36 20 -56t51 -20t51.5 20t20.5 56v363h144v-349zM431 629l-44 -41l-101 78l-101 -78l-44 41l101 105q18 19 44 19t44 -19z" />
    <glyph glyph-name="udieresis.sc" horiz-adv-x="561" 
d="M502 190q0 -95 -63 -148t-158 -53t-158.5 53t-63.5 148v349h156v-363q0 -36 20 -56t51 -20t51.5 20t20.5 56v363h144v-349zM257 662q0 -26 -19 -45t-45 -19t-45 19t-19 45t19 45t45 19t45 -19t19 -45zM442 662q0 -26 -19 -45t-45 -19t-45 19t-19 45t19 45t45 19t45 -19
t19 -45z" />
    <glyph glyph-name="yacute.sc" horiz-adv-x="501" 
d="M494 539l-165 -317v-222h-156v222l-165 317h166l83 -211h2l85 211h150zM409 732l-128 -137h-86l70 143q32 21 76 21q48 0 68 -27z" />
    <glyph glyph-name="thorn.sc" horiz-adv-x="532" 
d="M496 278q0 -84 -60.5 -131.5t-179.5 -47.5q-23 0 -44 3v-102h-152v539h152v-86q17 5 49 5q117 0 176 -48t59 -132zM347 281q0 48 -21 71.5t-69 23.5q-31 0 -45 -6v-188q14 -2 40 -2q95 0 95 101z" />
    <glyph glyph-name="ydieresis.sc" horiz-adv-x="501" 
d="M494 539l-165 -317v-222h-156v222l-165 317h166l83 -211h2l85 211h150zM229 662q0 -26 -19 -45t-45 -19t-45 19t-19 45t19 45t45 19t45 -19t19 -45zM413 662q0 -26 -19 -45t-45 -19t-45 19t-19 45t19 45t45 19t45 -19t19 -45z" />
    <glyph glyph-name="dotlessi.sc" horiz-adv-x="280" 
d="M218 0h-156v539h156v-539z" />
    <glyph glyph-name="ij.sc" horiz-adv-x="561" 
d="M499 95q0 -132 -63 -209.5t-182 -92.5v105q48 21 68.5 63t20.5 115v463h156v-444zM218 0h-156v539h156v-539z" />
    <glyph glyph-name="lslash.sc" horiz-adv-x="408" 
d="M378 0h-311v235l-51 -22v89l51 22v215h156v-157l67 29v-90l-67 -28v-192h155v-101z" />
    <glyph glyph-name="oe.sc" horiz-adv-x="702" 
d="M661 0h-292q-35 -11 -88 -11q-120 0 -180.5 79t-60.5 202q0 122 60.5 201t180.5 79q53 0 88 -11h292v-93h-165v-128h147v-89h-147v-136h165v-93zM348 92v360q-21 7 -47 7q-55 0 -80 -52.5t-25 -134.5t25 -134t80 -52q29 0 47 6z" />
    <glyph glyph-name="scaron.sc" horiz-adv-x="446" 
d="M409 164q0 -77 -58 -126t-155 -49q-103 0 -166 39l41 96q53 -31 105 -31q33 0 53.5 17t20.5 43q0 25 -21.5 43t-52 31t-61 29t-52 49t-21.5 80q0 75 54 120t134 45q99 0 165 -39l-37 -86q-48 28 -94 28q-32 0 -49.5 -16t-17.5 -41q0 -24 22 -41.5t53 -30.5t62 -29.5
t53 -50t22 -80.5zM371 719l-101 -105q-18 -19 -44 -19t-44 19l-101 105l44 41l101 -78l101 78z" />
    <glyph glyph-name="zcaron.sc" horiz-adv-x="440" 
d="M407 0h-381l183 438h-166v101h360l-179 -438h183v-101zM367 717l-101 -105q-18 -19 -44 -19t-44 19l-101 105l44 41l101 -78l101 78z" />
    <glyph glyph-name="longs.sc" horiz-adv-x="446" 
d="M409 164q0 -77 -58 -126t-155 -49q-103 0 -166 39l41 96q53 -31 105 -31q33 0 53.5 17t20.5 43q0 25 -21.5 43t-52 31t-61 29t-52 49t-21.5 80q0 75 54 120t134 45q99 0 165 -39l-37 -86q-48 28 -94 28q-32 0 -49.5 -16t-17.5 -41q0 -24 22 -41.5t53 -30.5t62 -29.5
t53 -50t22 -80.5z" />
    <glyph glyph-name="florin.sc" horiz-adv-x="538" 
d="M492 533l-22 -96q-23 9 -49 9q-67 0 -78 -90l-7 -55h98v-96h-110l-29 -233q-11 -92 -65 -141.5t-143 -49.5q-59 0 -98 18l24 102q22 -10 49 -10q69 0 80 88l28 226h-84v96h96l8 63q11 90 63 138t143 48q57 0 96 -17z" />
    <glyph glyph-name="uni03BC.sc" horiz-adv-x="726" 
d="M689 0h-146l-26 304q-2 21 -2 55v15h-2q-7 -37 -18 -70l-97 -304h-85l-93 304q-9 30 -18 70h-2q0 -30 -3 -70l-27 -304h-133l65 539h155l90 -296q9 -29 15 -69h2q8 42 16 69l89 296h156z" />
    <glyph glyph-name="pi.sc" horiz-adv-x="578" 
d="M519 0h-156v438h-148v-438h-156v539h460v-539z" />
    <glyph glyph-name="ellipsis.sc" horiz-adv-x="846" 
d="M794 80q0 -37 -26 -63t-63 -26t-63 26t-26 63t26 63t63 26t63 -26t26 -63zM512 80q0 -37 -26 -63t-63 -26t-63 26t-26 63t26 63t63 26t63 -26t26 -63zM230 80q0 -37 -26 -63t-63 -26t-63 26t-26 63t26 63t63 26t63 -26t26 -63z" />
    <glyph glyph-name="Euro.sc" horiz-adv-x="584" 
d="M544 23q-58 -33 -146 -33q-104 0 -170.5 53.5t-87.5 143.5h-85v54h77q-1 10 -1 29q0 13 2 37h-78v53h87q23 87 89 138t167 51q88 0 146 -33l-33 -79q-36 19 -84 19q-97 0 -131 -96h188v-53h-200q-2 -12 -2 -35q0 -11 2 -31h200v-54h-189q34 -100 132 -100q50 0 84 18z
" />
    <glyph glyph-name="uni2117.sc" horiz-adv-x="656" 
d="M611 270q0 -116 -83 -198.5t-200 -82.5t-200 82.5t-83 198.5t83 198t200 82t200 -82t83 -198zM541 271q0 93 -62 157.5t-151 64.5t-151 -64.5t-62 -157.5t62.5 -158.5t150.5 -65.5t150.5 65.5t62.5 158.5zM444 332q0 -41 -27.5 -67t-81.5 -26q-11 0 -27 2v-117h-65v285
q34 17 87 17q57 0 85.5 -25.5t28.5 -68.5zM380 333q0 55 -51 55q-11 0 -21 -4v-105q10 -2 18 -2q54 0 54 56z" />
    <glyph glyph-name="fi.sc" horiz-adv-x="697" 
d="M635 0h-156v539h156v-539zM381 446h-166v-128h146v-89h-146v-229h-156v539h322v-93z" />
    <glyph glyph-name="fl.sc" horiz-adv-x="818" 
d="M788 0h-311v539h156v-438h155v-101zM381 446h-166v-128h146v-89h-146v-229h-156v539h322v-93z" />
    <glyph glyph-name="parenleft.case" horiz-adv-x="377" 
d="M357 -131l-74 -50q-235 217 -235 525t235 525l74 -50q-72 -98 -110 -221t-38 -254t38 -254t110 -221z" />
    <glyph glyph-name="parenright.case" horiz-adv-x="377" 
d="M329 344q0 -308 -235 -525l-74 50q72 98 110 221t38 254t-38 254t-110 221l74 50q235 -217 235 -525z" />
    <glyph glyph-name="hyphen.case" horiz-adv-x="356" 
d="M308 287h-260v114h260v-114z" />
    <glyph glyph-name="bracketleft.case" horiz-adv-x="352" 
d="M319 -156h-255v1000h255v-87h-118v-825h118v-88z" />
    <glyph glyph-name="bracketright.case" horiz-adv-x="352" 
d="M288 -156h-255v88h118v825h-118v87h255v-1000z" />
    <glyph glyph-name="braceleft.case" horiz-adv-x="395" 
d="M354 -156h-32q-101 0 -156.5 51.5t-55.5 148.5v166q0 85 -68 91v87q68 6 68 92v164q0 97 55.5 148.5t156.5 51.5h32v-84q-107 0 -107 -114v-160q0 -111 -75 -140v-2q75 -29 75 -140v-161q0 -113 107 -113v-86z" />
    <glyph glyph-name="braceright.case" horiz-adv-x="395" 
d="M353 301q-68 -6 -68 -91v-166q0 -97 -55.5 -148.5t-156.5 -51.5h-32v86q107 0 107 113v161q0 111 75 140v2q-75 29 -75 140v160q0 114 -107 114v84h32q101 0 156.5 -51.5t55.5 -148.5v-164q0 -86 68 -92v-87z" />
    <glyph glyph-name="exclamdown.case" horiz-adv-x="326" 
d="M258 608q0 -37 -26 -62.5t-63 -25.5t-63 25.5t-26 62.5t26 63t63 26t63 -26t26 -63zM262 0h-186l34 435h119z" />
    <glyph glyph-name="guillemotleft.case" horiz-adv-x="526" 
d="M480 153l-87 -50l-139 241l139 241l87 -49l-110 -192zM262 153l-87 -50l-139 241l139 241l87 -49l-110 -192z" />
    <glyph glyph-name="uni00AD.case" horiz-adv-x="356" 
d="M308 287h-260v114h260v-114z" />
    <glyph glyph-name="periodcentered.case" horiz-adv-x="282" 
d="M230 344q0 -37 -26 -63t-63 -26t-63 26t-26 63t26 63t63 26t63 -26t26 -63z" />
    <glyph glyph-name="guillemotright.case" horiz-adv-x="526" 
d="M490 344l-139 -241l-87 50l110 191l-110 192l87 49zM272 344l-139 -241l-87 50l110 191l-110 192l87 49z" />
    <glyph glyph-name="questiondown.case" horiz-adv-x="456" 
d="M345 607q0 -37 -26 -62.5t-63 -25.5t-62.5 25.5t-25.5 62.5t25.5 63t62.5 26t63 -26t26 -63zM442 28q-71 -40 -173 -40q-107 0 -168 45.5t-61 123.5q0 60 45 103.5t104 61.5l8 112h119l12 -157q-52 -11 -88 -37.5t-36 -66.5q0 -78 96 -78q51 0 101 25z" />
    <glyph glyph-name="endash.case" horiz-adv-x="408" 
d="M408 289h-408v110h408v-110z" />
    <glyph glyph-name="emdash.case" horiz-adv-x="816" 
d="M816 291h-816v106h816v-106z" />
    <glyph glyph-name="guilsinglleft.case" horiz-adv-x="308" 
d="M262 153l-87 -50l-139 241l139 241l87 -49l-110 -192z" />
    <glyph glyph-name="guilsinglright.case" horiz-adv-x="308" 
d="M272 344l-139 -241l-87 50l110 191l-110 192l87 49z" />
    <glyph glyph-name="zero.tf.zero" 
d="M519 344q0 -98 -23 -175.5t-78 -128.5t-136 -51t-136 51t-78 128.5t-23 175.5t23 175.5t78 128.5t136 51t136 -51t78 -128.5t23 -175.5zM365 490q-20 115 -83 115q-92 0 -92 -258q0 -33 1 -49zM374 347q0 35 -1 52l-174 -193q20 -118 83 -118q92 0 92 259z" />
    <glyph glyph-name="pi.ss03" horiz-adv-x="636" 
d="M592 439h-62v-297q0 -47 41 -47q8 0 17 3v-100q-22 -7 -59 -7q-72 0 -111 38.5t-39 112.5v297h-130v-439h-151v439h-64v100h558v-100z" />
    </font>
</defs>
</svg>
